<?xml version="1.0" encoding="utf-8" standalone="no"?>
<!DOCTYPE svg PUBLIC "-//W3C//DTD SVG 1.1//EN"
  "http://www.w3.org/Graphics/SVG/1.1/DTD/svg11.dtd">
<!-- Created with matplotlib (https://matplotlib.org/) -->
<svg height="576pt" version="1.1" viewBox="0 0 864 576" width="864pt" xmlns="http://www.w3.org/2000/svg" xmlns:xlink="http://www.w3.org/1999/xlink">
 <metadata>
  <rdf:RDF xmlns:cc="http://creativecommons.org/ns#" xmlns:dc="http://purl.org/dc/elements/1.1/" xmlns:rdf="http://www.w3.org/1999/02/22-rdf-syntax-ns#">
   <cc:Work>
    <dc:type rdf:resource="http://purl.org/dc/dcmitype/StillImage"/>
    <dc:date>2022-12-14T14:07:49.270638</dc:date>
    <dc:format>image/svg+xml</dc:format>
    <dc:creator>
     <cc:Agent>
      <dc:title>Matplotlib v3.3.4, https://matplotlib.org/</dc:title>
     </cc:Agent>
    </dc:creator>
   </cc:Work>
  </rdf:RDF>
 </metadata>
 <defs>
  <style type="text/css">*{stroke-linecap:butt;stroke-linejoin:round;}</style>
 </defs>
 <g id="figure_1">
  <g id="patch_1">
   <path d="M 0 576 
L 864 576 
L 864 0 
L 0 0 
z
" style="fill:#ffffff;"/>
  </g>
  <g id="axes_1">
   <g id="patch_2">
    <path d="M 65.36 529 
L 431.235 529 
L 431.235 10.8 
L 65.36 10.8 
z
" style="fill:#ffffff;"/>
   </g>
   <g id="matplotlib.axis_1">
    <g id="xtick_1">
     <g id="line2d_1">
      <path clip-path="url(#p9253e25cfa)" d="M 81.990682 529 
L 81.990682 10.8 
" style="fill:none;stroke:#b0b0b0;stroke-linecap:square;stroke-width:0.8;"/>
     </g>
     <g id="line2d_2">
      <defs>
       <path d="M 0 0 
L 0 3.5 
" id="m09c38da51d" style="stroke:#000000;stroke-width:0.8;"/>
      </defs>
      <g>
       <use style="stroke:#000000;stroke-width:0.8;" x="81.990682" xlink:href="#m09c38da51d" y="529"/>
      </g>
     </g>
     <g id="text_1">
      <!-- 0.0 -->
      <g transform="translate(72.448807 545.118125)scale(0.12 -0.12)">
       <defs>
        <path d="M 31.78125 66.40625 
Q 24.171875 66.40625 20.328125 58.90625 
Q 16.5 51.421875 16.5 36.375 
Q 16.5 21.390625 20.328125 13.890625 
Q 24.171875 6.390625 31.78125 6.390625 
Q 39.453125 6.390625 43.28125 13.890625 
Q 47.125 21.390625 47.125 36.375 
Q 47.125 51.421875 43.28125 58.90625 
Q 39.453125 66.40625 31.78125 66.40625 
z
M 31.78125 74.21875 
Q 44.046875 74.21875 50.515625 64.515625 
Q 56.984375 54.828125 56.984375 36.375 
Q 56.984375 17.96875 50.515625 8.265625 
Q 44.046875 -1.421875 31.78125 -1.421875 
Q 19.53125 -1.421875 13.0625 8.265625 
Q 6.59375 17.96875 6.59375 36.375 
Q 6.59375 54.828125 13.0625 64.515625 
Q 19.53125 74.21875 31.78125 74.21875 
z
" id="DejaVuSans-48"/>
        <path d="M 10.6875 12.40625 
L 21 12.40625 
L 21 0 
L 10.6875 0 
z
" id="DejaVuSans-46"/>
       </defs>
       <use xlink:href="#DejaVuSans-48"/>
       <use x="63.623047" xlink:href="#DejaVuSans-46"/>
       <use x="95.410156" xlink:href="#DejaVuSans-48"/>
      </g>
     </g>
    </g>
    <g id="xtick_2">
     <g id="line2d_3">
      <path clip-path="url(#p9253e25cfa)" d="M 123.567386 529 
L 123.567386 10.8 
" style="fill:none;stroke:#b0b0b0;stroke-linecap:square;stroke-width:0.8;"/>
     </g>
     <g id="line2d_4">
      <g>
       <use style="stroke:#000000;stroke-width:0.8;" x="123.567386" xlink:href="#m09c38da51d" y="529"/>
      </g>
     </g>
     <g id="text_2">
      <!-- 0.5 -->
      <g transform="translate(114.025511 545.118125)scale(0.12 -0.12)">
       <defs>
        <path d="M 10.796875 72.90625 
L 49.515625 72.90625 
L 49.515625 64.59375 
L 19.828125 64.59375 
L 19.828125 46.734375 
Q 21.96875 47.46875 24.109375 47.828125 
Q 26.265625 48.1875 28.421875 48.1875 
Q 40.625 48.1875 47.75 41.5 
Q 54.890625 34.8125 54.890625 23.390625 
Q 54.890625 11.625 47.5625 5.09375 
Q 40.234375 -1.421875 26.90625 -1.421875 
Q 22.3125 -1.421875 17.546875 -0.640625 
Q 12.796875 0.140625 7.71875 1.703125 
L 7.71875 11.625 
Q 12.109375 9.234375 16.796875 8.0625 
Q 21.484375 6.890625 26.703125 6.890625 
Q 35.15625 6.890625 40.078125 11.328125 
Q 45.015625 15.765625 45.015625 23.390625 
Q 45.015625 31 40.078125 35.4375 
Q 35.15625 39.890625 26.703125 39.890625 
Q 22.75 39.890625 18.8125 39.015625 
Q 14.890625 38.140625 10.796875 36.28125 
z
" id="DejaVuSans-53"/>
       </defs>
       <use xlink:href="#DejaVuSans-48"/>
       <use x="63.623047" xlink:href="#DejaVuSans-46"/>
       <use x="95.410156" xlink:href="#DejaVuSans-53"/>
      </g>
     </g>
    </g>
    <g id="xtick_3">
     <g id="line2d_5">
      <path clip-path="url(#p9253e25cfa)" d="M 165.144091 529 
L 165.144091 10.8 
" style="fill:none;stroke:#b0b0b0;stroke-linecap:square;stroke-width:0.8;"/>
     </g>
     <g id="line2d_6">
      <g>
       <use style="stroke:#000000;stroke-width:0.8;" x="165.144091" xlink:href="#m09c38da51d" y="529"/>
      </g>
     </g>
     <g id="text_3">
      <!-- 1.0 -->
      <g transform="translate(155.602216 545.118125)scale(0.12 -0.12)">
       <defs>
        <path d="M 12.40625 8.296875 
L 28.515625 8.296875 
L 28.515625 63.921875 
L 10.984375 60.40625 
L 10.984375 69.390625 
L 28.421875 72.90625 
L 38.28125 72.90625 
L 38.28125 8.296875 
L 54.390625 8.296875 
L 54.390625 0 
L 12.40625 0 
z
" id="DejaVuSans-49"/>
       </defs>
       <use xlink:href="#DejaVuSans-49"/>
       <use x="63.623047" xlink:href="#DejaVuSans-46"/>
       <use x="95.410156" xlink:href="#DejaVuSans-48"/>
      </g>
     </g>
    </g>
    <g id="xtick_4">
     <g id="line2d_7">
      <path clip-path="url(#p9253e25cfa)" d="M 206.720795 529 
L 206.720795 10.8 
" style="fill:none;stroke:#b0b0b0;stroke-linecap:square;stroke-width:0.8;"/>
     </g>
     <g id="line2d_8">
      <g>
       <use style="stroke:#000000;stroke-width:0.8;" x="206.720795" xlink:href="#m09c38da51d" y="529"/>
      </g>
     </g>
     <g id="text_4">
      <!-- 1.5 -->
      <g transform="translate(197.17892 545.118125)scale(0.12 -0.12)">
       <use xlink:href="#DejaVuSans-49"/>
       <use x="63.623047" xlink:href="#DejaVuSans-46"/>
       <use x="95.410156" xlink:href="#DejaVuSans-53"/>
      </g>
     </g>
    </g>
    <g id="xtick_5">
     <g id="line2d_9">
      <path clip-path="url(#p9253e25cfa)" d="M 248.2975 529 
L 248.2975 10.8 
" style="fill:none;stroke:#b0b0b0;stroke-linecap:square;stroke-width:0.8;"/>
     </g>
     <g id="line2d_10">
      <g>
       <use style="stroke:#000000;stroke-width:0.8;" x="248.2975" xlink:href="#m09c38da51d" y="529"/>
      </g>
     </g>
     <g id="text_5">
      <!-- 2.0 -->
      <g transform="translate(238.755625 545.118125)scale(0.12 -0.12)">
       <defs>
        <path d="M 19.1875 8.296875 
L 53.609375 8.296875 
L 53.609375 0 
L 7.328125 0 
L 7.328125 8.296875 
Q 12.9375 14.109375 22.625 23.890625 
Q 32.328125 33.6875 34.8125 36.53125 
Q 39.546875 41.84375 41.421875 45.53125 
Q 43.3125 49.21875 43.3125 52.78125 
Q 43.3125 58.59375 39.234375 62.25 
Q 35.15625 65.921875 28.609375 65.921875 
Q 23.96875 65.921875 18.8125 64.3125 
Q 13.671875 62.703125 7.8125 59.421875 
L 7.8125 69.390625 
Q 13.765625 71.78125 18.9375 73 
Q 24.125 74.21875 28.421875 74.21875 
Q 39.75 74.21875 46.484375 68.546875 
Q 53.21875 62.890625 53.21875 53.421875 
Q 53.21875 48.921875 51.53125 44.890625 
Q 49.859375 40.875 45.40625 35.40625 
Q 44.1875 33.984375 37.640625 27.21875 
Q 31.109375 20.453125 19.1875 8.296875 
z
" id="DejaVuSans-50"/>
       </defs>
       <use xlink:href="#DejaVuSans-50"/>
       <use x="63.623047" xlink:href="#DejaVuSans-46"/>
       <use x="95.410156" xlink:href="#DejaVuSans-48"/>
      </g>
     </g>
    </g>
    <g id="xtick_6">
     <g id="line2d_11">
      <path clip-path="url(#p9253e25cfa)" d="M 289.874205 529 
L 289.874205 10.8 
" style="fill:none;stroke:#b0b0b0;stroke-linecap:square;stroke-width:0.8;"/>
     </g>
     <g id="line2d_12">
      <g>
       <use style="stroke:#000000;stroke-width:0.8;" x="289.874205" xlink:href="#m09c38da51d" y="529"/>
      </g>
     </g>
     <g id="text_6">
      <!-- 2.5 -->
      <g transform="translate(280.33233 545.118125)scale(0.12 -0.12)">
       <use xlink:href="#DejaVuSans-50"/>
       <use x="63.623047" xlink:href="#DejaVuSans-46"/>
       <use x="95.410156" xlink:href="#DejaVuSans-53"/>
      </g>
     </g>
    </g>
    <g id="xtick_7">
     <g id="line2d_13">
      <path clip-path="url(#p9253e25cfa)" d="M 331.450909 529 
L 331.450909 10.8 
" style="fill:none;stroke:#b0b0b0;stroke-linecap:square;stroke-width:0.8;"/>
     </g>
     <g id="line2d_14">
      <g>
       <use style="stroke:#000000;stroke-width:0.8;" x="331.450909" xlink:href="#m09c38da51d" y="529"/>
      </g>
     </g>
     <g id="text_7">
      <!-- 3.0 -->
      <g transform="translate(321.909034 545.118125)scale(0.12 -0.12)">
       <defs>
        <path d="M 40.578125 39.3125 
Q 47.65625 37.796875 51.625 33 
Q 55.609375 28.21875 55.609375 21.1875 
Q 55.609375 10.40625 48.1875 4.484375 
Q 40.765625 -1.421875 27.09375 -1.421875 
Q 22.515625 -1.421875 17.65625 -0.515625 
Q 12.796875 0.390625 7.625 2.203125 
L 7.625 11.71875 
Q 11.71875 9.328125 16.59375 8.109375 
Q 21.484375 6.890625 26.8125 6.890625 
Q 36.078125 6.890625 40.9375 10.546875 
Q 45.796875 14.203125 45.796875 21.1875 
Q 45.796875 27.640625 41.28125 31.265625 
Q 36.765625 34.90625 28.71875 34.90625 
L 20.21875 34.90625 
L 20.21875 43.015625 
L 29.109375 43.015625 
Q 36.375 43.015625 40.234375 45.921875 
Q 44.09375 48.828125 44.09375 54.296875 
Q 44.09375 59.90625 40.109375 62.90625 
Q 36.140625 65.921875 28.71875 65.921875 
Q 24.65625 65.921875 20.015625 65.03125 
Q 15.375 64.15625 9.8125 62.3125 
L 9.8125 71.09375 
Q 15.4375 72.65625 20.34375 73.4375 
Q 25.25 74.21875 29.59375 74.21875 
Q 40.828125 74.21875 47.359375 69.109375 
Q 53.90625 64.015625 53.90625 55.328125 
Q 53.90625 49.265625 50.4375 45.09375 
Q 46.96875 40.921875 40.578125 39.3125 
z
" id="DejaVuSans-51"/>
       </defs>
       <use xlink:href="#DejaVuSans-51"/>
       <use x="63.623047" xlink:href="#DejaVuSans-46"/>
       <use x="95.410156" xlink:href="#DejaVuSans-48"/>
      </g>
     </g>
    </g>
    <g id="xtick_8">
     <g id="line2d_15">
      <path clip-path="url(#p9253e25cfa)" d="M 373.027614 529 
L 373.027614 10.8 
" style="fill:none;stroke:#b0b0b0;stroke-linecap:square;stroke-width:0.8;"/>
     </g>
     <g id="line2d_16">
      <g>
       <use style="stroke:#000000;stroke-width:0.8;" x="373.027614" xlink:href="#m09c38da51d" y="529"/>
      </g>
     </g>
     <g id="text_8">
      <!-- 3.5 -->
      <g transform="translate(363.485739 545.118125)scale(0.12 -0.12)">
       <use xlink:href="#DejaVuSans-51"/>
       <use x="63.623047" xlink:href="#DejaVuSans-46"/>
       <use x="95.410156" xlink:href="#DejaVuSans-53"/>
      </g>
     </g>
    </g>
    <g id="xtick_9">
     <g id="line2d_17">
      <path clip-path="url(#p9253e25cfa)" d="M 414.604318 529 
L 414.604318 10.8 
" style="fill:none;stroke:#b0b0b0;stroke-linecap:square;stroke-width:0.8;"/>
     </g>
     <g id="line2d_18">
      <g>
       <use style="stroke:#000000;stroke-width:0.8;" x="414.604318" xlink:href="#m09c38da51d" y="529"/>
      </g>
     </g>
     <g id="text_9">
      <!-- 4.0 -->
      <g transform="translate(405.062443 545.118125)scale(0.12 -0.12)">
       <defs>
        <path d="M 37.796875 64.3125 
L 12.890625 25.390625 
L 37.796875 25.390625 
z
M 35.203125 72.90625 
L 47.609375 72.90625 
L 47.609375 25.390625 
L 58.015625 25.390625 
L 58.015625 17.1875 
L 47.609375 17.1875 
L 47.609375 0 
L 37.796875 0 
L 37.796875 17.1875 
L 4.890625 17.1875 
L 4.890625 26.703125 
z
" id="DejaVuSans-52"/>
       </defs>
       <use xlink:href="#DejaVuSans-52"/>
       <use x="63.623047" xlink:href="#DejaVuSans-46"/>
       <use x="95.410156" xlink:href="#DejaVuSans-48"/>
      </g>
     </g>
    </g>
    <g id="text_10">
     <!-- X -->
     <g transform="translate(243.16 563.011406)scale(0.15 -0.15)">
      <defs>
       <path d="M 6.296875 72.90625 
L 16.890625 72.90625 
L 35.015625 45.796875 
L 53.21875 72.90625 
L 63.8125 72.90625 
L 40.375 37.890625 
L 65.375 0 
L 54.78125 0 
L 34.28125 31 
L 13.625 0 
L 2.984375 0 
L 29 38.921875 
z
" id="DejaVuSans-88"/>
      </defs>
      <use xlink:href="#DejaVuSans-88"/>
     </g>
    </g>
   </g>
   <g id="matplotlib.axis_2">
    <g id="ytick_1">
     <g id="line2d_19">
      <path clip-path="url(#p9253e25cfa)" d="M 65.36 466.460753 
L 431.235 466.460753 
" style="fill:none;stroke:#b0b0b0;stroke-linecap:square;stroke-width:0.8;"/>
     </g>
     <g id="line2d_20">
      <defs>
       <path d="M 0 0 
L -3.5 0 
" id="m0ecc105c5a" style="stroke:#000000;stroke-width:0.8;"/>
      </defs>
      <g>
       <use style="stroke:#000000;stroke-width:0.8;" x="65.36" xlink:href="#m0ecc105c5a" y="466.460753"/>
      </g>
     </g>
     <g id="text_11">
      <!-- −1.0 -->
      <g transform="translate(29.220625 471.019815)scale(0.12 -0.12)">
       <defs>
        <path d="M 10.59375 35.5 
L 73.1875 35.5 
L 73.1875 27.203125 
L 10.59375 27.203125 
z
" id="DejaVuSans-8722"/>
       </defs>
       <use xlink:href="#DejaVuSans-8722"/>
       <use x="83.789062" xlink:href="#DejaVuSans-49"/>
       <use x="147.412109" xlink:href="#DejaVuSans-46"/>
       <use x="179.199219" xlink:href="#DejaVuSans-48"/>
      </g>
     </g>
    </g>
    <g id="ytick_2">
     <g id="line2d_21">
      <path clip-path="url(#p9253e25cfa)" d="M 65.36 358.58589 
L 431.235 358.58589 
" style="fill:none;stroke:#b0b0b0;stroke-linecap:square;stroke-width:0.8;"/>
     </g>
     <g id="line2d_22">
      <g>
       <use style="stroke:#000000;stroke-width:0.8;" x="65.36" xlink:href="#m0ecc105c5a" y="358.58589"/>
      </g>
     </g>
     <g id="text_12">
      <!-- −0.5 -->
      <g transform="translate(29.220625 363.144952)scale(0.12 -0.12)">
       <use xlink:href="#DejaVuSans-8722"/>
       <use x="83.789062" xlink:href="#DejaVuSans-48"/>
       <use x="147.412109" xlink:href="#DejaVuSans-46"/>
       <use x="179.199219" xlink:href="#DejaVuSans-53"/>
      </g>
     </g>
    </g>
    <g id="ytick_3">
     <g id="line2d_23">
      <path clip-path="url(#p9253e25cfa)" d="M 65.36 250.711027 
L 431.235 250.711027 
" style="fill:none;stroke:#b0b0b0;stroke-linecap:square;stroke-width:0.8;"/>
     </g>
     <g id="line2d_24">
      <g>
       <use style="stroke:#000000;stroke-width:0.8;" x="65.36" xlink:href="#m0ecc105c5a" y="250.711027"/>
      </g>
     </g>
     <g id="text_13">
      <!-- 0.0 -->
      <g transform="translate(39.27625 255.270089)scale(0.12 -0.12)">
       <use xlink:href="#DejaVuSans-48"/>
       <use x="63.623047" xlink:href="#DejaVuSans-46"/>
       <use x="95.410156" xlink:href="#DejaVuSans-48"/>
      </g>
     </g>
    </g>
    <g id="ytick_4">
     <g id="line2d_25">
      <path clip-path="url(#p9253e25cfa)" d="M 65.36 142.836164 
L 431.235 142.836164 
" style="fill:none;stroke:#b0b0b0;stroke-linecap:square;stroke-width:0.8;"/>
     </g>
     <g id="line2d_26">
      <g>
       <use style="stroke:#000000;stroke-width:0.8;" x="65.36" xlink:href="#m0ecc105c5a" y="142.836164"/>
      </g>
     </g>
     <g id="text_14">
      <!-- 0.5 -->
      <g transform="translate(39.27625 147.395226)scale(0.12 -0.12)">
       <use xlink:href="#DejaVuSans-48"/>
       <use x="63.623047" xlink:href="#DejaVuSans-46"/>
       <use x="95.410156" xlink:href="#DejaVuSans-53"/>
      </g>
     </g>
    </g>
    <g id="ytick_5">
     <g id="line2d_27">
      <path clip-path="url(#p9253e25cfa)" d="M 65.36 34.961301 
L 431.235 34.961301 
" style="fill:none;stroke:#b0b0b0;stroke-linecap:square;stroke-width:0.8;"/>
     </g>
     <g id="line2d_28">
      <g>
       <use style="stroke:#000000;stroke-width:0.8;" x="65.36" xlink:href="#m0ecc105c5a" y="34.961301"/>
      </g>
     </g>
     <g id="text_15">
      <!-- 1.0 -->
      <g transform="translate(39.27625 39.520364)scale(0.12 -0.12)">
       <use xlink:href="#DejaVuSans-49"/>
       <use x="63.623047" xlink:href="#DejaVuSans-46"/>
       <use x="95.410156" xlink:href="#DejaVuSans-48"/>
      </g>
     </g>
    </g>
    <g id="text_16">
     <!-- Y -->
     <g transform="translate(22.101094 274.480859)rotate(-90)scale(0.15 -0.15)">
      <defs>
       <path d="M -0.203125 72.90625 
L 10.40625 72.90625 
L 30.609375 42.921875 
L 50.6875 72.90625 
L 61.28125 72.90625 
L 35.5 34.71875 
L 35.5 0 
L 25.59375 0 
L 25.59375 34.71875 
z
" id="DejaVuSans-89"/>
      </defs>
      <use xlink:href="#DejaVuSans-89"/>
     </g>
    </g>
   </g>
   <g id="line2d_29">
    <path clip-path="url(#p9253e25cfa)" d="M 81.990682 466.460753 
L 165.144091 34.961301 
L 165.144091 34.961301 
L 414.604318 250.711027 
L 414.604318 250.711027 
L 81.990682 466.460753 
L 81.990682 466.460753 
" style="fill:none;stroke:#303bc1;stroke-linecap:square;stroke-width:1.5;"/>
   </g>
   <g id="line2d_30">
    <path clip-path="url(#p9253e25cfa)" d="M 81.990682 466.460753 
L 165.144091 34.961301 
L 165.144091 34.961301 
L 414.604318 250.711027 
L 414.604318 250.711027 
L 81.990682 466.460753 
L 81.990682 466.460753 
" style="fill:none;stroke:#5835a2;stroke-linecap:square;stroke-width:1.5;"/>
   </g>
   <g id="line2d_31">
    <path clip-path="url(#p9253e25cfa)" d="M 81.990682 466.460753 
L 85.159408 443.625646 
L 88.654625 420.114162 
L 92.461305 395.99778 
L 96.557363 371.370038 
L 101.474706 343.196505 
L 106.669573 314.714025 
L 112.693432 282.966628 
L 119.519903 248.283411 
L 127.062677 211.199261 
L 135.171256 172.447765 
L 144.818051 127.463855 
L 157.095945 71.373972 
L 165.144091 34.961301 
L 165.144091 34.961301 
L 178.426426 37.915469 
L 188.628323 40.405222 
L 198.432517 43.064349 
L 205.519955 45.196666 
L 212.380096 47.465161 
L 219.016289 49.883591 
L 225.434116 52.463596 
L 231.640947 55.214767 
L 237.645516 58.144717 
L 243.457531 61.259183 
L 249.087341 64.562139 
L 254.545652 68.055923 
L 259.843299 71.741366 
L 264.991069 75.617927 
L 269.999564 79.683808 
L 274.87911 83.936068 
L 279.639693 88.370715 
L 284.290923 92.982783 
L 288.842021 97.766389 
L 293.301818 102.714785 
L 299.120759 109.55574 
L 304.811477 116.655763 
L 310.392093 123.99192 
L 315.879909 131.538567 
L 322.634504 141.224184 
L 330.627283 153.133636 
L 342.497099 171.321032 
L 354.38563 189.445929 
L 361.068339 199.268067 
L 366.484497 206.895663 
L 371.983296 214.244282 
L 376.173559 219.527689 
L 380.430268 224.57795 
L 384.762578 229.358871 
L 389.180019 233.832069 
L 392.177157 236.623271 
L 395.219566 239.247089 
L 398.310359 241.690458 
L 401.452727 243.93985 
L 404.649933 245.981277 
L 407.905317 247.800291 
L 411.222287 249.38199 
L 414.604318 250.711027 
L 414.604318 250.711027 
L 407.049471 259.589252 
L 399.33149 269.035578 
L 391.465464 279.006452 
L 383.468764 289.449061 
L 372.63679 303.998943 
L 361.656461 319.110856 
L 345.020979 342.42514 
L 317.270046 381.363398 
L 306.288653 396.406063 
L 295.428383 410.882571 
L 287.379206 421.27735 
L 279.42291 431.212968 
L 271.567294 440.640132 
L 263.818799 449.515981 
L 256.18273 457.803813 
L 251.156674 462.986866 
L 246.183664 467.88691 
L 241.264698 472.497121 
L 236.400676 476.811609 
L 231.59242 480.825354 
L 226.840694 484.534143 
L 222.146213 487.934512 
L 217.509655 491.023687 
L 212.931674 493.79953 
L 208.412904 496.260486 
L 203.953964 498.405532 
L 199.555466 500.234137 
L 195.218011 501.746217 
L 190.942195 502.942119 
L 186.728607 503.822988 
L 182.577557 504.46095 
L 178.488193 504.936202 
L 174.459278 505.254612 
L 168.526431 505.445455 
L 162.72224 505.302485 
L 157.042122 504.837599 
L 151.481402 504.062922 
L 146.035342 502.990747 
L 140.69916 501.633484 
L 135.46804 500.003629 
L 130.337136 498.113751 
L 125.301579 495.976486 
L 120.356472 493.60454 
L 115.496884 491.010707 
L 110.717842 488.207889 
L 106.014324 485.209117 
L 101.381244 482.027586 
L 96.813442 478.676686 
L 90.815494 473.968934 
L 84.911517 469.017368 
L 81.990682 466.460753 
L 81.990682 466.460753 
" style="fill:none;stroke:#802f83;stroke-linecap:square;stroke-width:1.5;"/>
   </g>
   <g id="line2d_32">
    <path clip-path="url(#p9253e25cfa)" d="M 81.990682 466.460753 
L 83.527428 462.861781 
L 85.266389 459.408578 
L 87.214353 456.072902 
L 89.378519 452.822489 
L 91.766298 449.619861 
L 94.385029 446.420855 
L 98.247641 442.068699 
L 113.816367 425.122946 
L 118.035049 419.955363 
L 120.956589 416.08812 
L 123.951523 411.823591 
L 127.004029 407.109253 
L 130.094365 401.893404 
L 133.198672 396.127817 
L 136.289043 389.770967 
L 139.333996 382.791648 
L 142.299398 375.17261 
L 145.149895 366.913721 
L 147.85075 358.034092 
L 150.369924 348.57267 
L 152.680142 338.587009 
L 154.760632 328.150287 
L 156.598294 317.346941 
L 158.188139 306.267605 
L 159.532986 295.004077 
L 160.642542 283.644959 
L 161.53206 272.272373 
L 162.220806 260.959891 
L 162.730521 249.771563 
L 163.209395 233.338422 
L 163.412824 217.450983 
L 163.41072 202.215275 
L 163.191287 183.036154 
L 162.618883 156.870303 
L 161.041165 93.896191 
L 160.980905 79.373291 
L 161.157684 68.856076 
L 161.560985 59.614889 
L 162.057969 53.048516 
L 162.718844 47.149122 
L 163.551967 41.860477 
L 164.566152 37.1312 
L 165.144091 34.961301 
L 165.144091 34.961301 
L 166.513705 34.594232 
L 167.949928 34.392996 
L 169.456519 34.357579 
L 171.037379 34.48837 
L 172.69656 34.786177 
L 175.341481 35.548875 
L 178.187243 36.696342 
L 181.249886 38.237083 
L 184.546375 40.182167 
L 188.094376 42.545353 
L 191.911815 45.343114 
L 196.016088 48.594403 
L 200.422856 52.319913 
L 205.144313 56.540408 
L 211.939287 62.967199 
L 219.29658 70.319892 
L 227.17535 78.553843 
L 237.642366 89.856927 
L 250.857078 104.14676 
L 257.632602 111.189054 
L 264.466877 117.907699 
L 269.036672 122.116136 
L 273.603863 126.051331 
L 278.156485 129.672634 
L 282.682155 132.948336 
L 287.168184 135.857025 
L 291.601872 138.38852 
L 295.97094 140.544282 
L 300.264054 142.337244 
L 304.471375 143.791036 
L 308.58506 144.938663 
L 312.599642 145.820754 
L 316.512258 146.483563 
L 322.19024 147.176054 
L 339.659662 148.909948 
L 342.94588 149.494178 
L 346.186 150.248856 
L 349.390215 151.206526 
L 352.568355 152.39684 
L 355.72967 153.846926 
L 358.882659 155.581746 
L 362.034905 157.62445 
L 365.192937 159.996682 
L 368.3621 162.718819 
L 371.546422 165.810145 
L 374.748496 169.288939 
L 377.969351 173.17248 
L 381.208349 177.476965 
L 384.463083 182.217344 
L 387.729304 187.407102 
L 391.000876 193.057984 
L 394.26977 199.179717 
L 397.526089 205.779732 
L 400.758126 212.862947 
L 403.952454 220.431596 
L 407.094009 228.485135 
L 410.166176 237.020179 
L 413.15085 246.030455 
L 414.604318 250.711027 
L 414.604318 250.711027 
L 412.571728 255.725869 
L 410.416329 260.594518 
L 408.142284 265.283446 
L 405.756086 269.761446 
L 403.266443 274.000899 
L 400.684026 277.978921 
L 398.021104 281.678283 
L 395.291089 285.088008 
L 392.508037 288.203604 
L 389.686139 291.026937 
L 386.839244 293.565763 
L 383.980457 295.833001 
L 381.121812 297.845838 
L 378.27405 299.624733 
L 375.446481 301.192435 
L 372.646934 302.573053 
L 367.155933 304.871475 
L 361.835662 306.712242 
L 354.205438 308.992536 
L 344.659883 311.856463 
L 340.116553 313.440148 
L 335.691194 315.215559 
L 331.352166 317.224278 
L 327.064527 319.488874 
L 322.790509 322.013622 
L 318.489881 324.784223 
L 311.896125 329.32036 
L 286.869886 346.844628 
L 280.983881 350.392788 
L 277.909744 352.027638 
L 274.749248 353.530738 
L 271.505244 354.872726 
L 268.182302 356.025131 
L 264.786672 356.961276 
L 261.326168 357.657186 
L 257.809971 358.092411 
L 254.248353 358.250708 
L 250.652346 358.120526 
L 247.033385 357.695263 
L 243.402943 356.973284 
L 239.772185 355.957703 
L 236.151678 354.655982 
L 232.551141 353.079372 
L 228.979277 351.242273 
L 225.443666 349.161546 
L 221.950719 346.855835 
L 218.505691 344.344938 
L 215.112725 341.649242 
L 211.774943 338.789242 
L 208.494539 335.785154 
L 205.272892 332.656604 
L 199.007996 326.100423 
L 192.979199 319.25908 
L 187.179035 312.253401 
L 181.597171 305.304231 
L 176.239745 299.056435 
L 171.122158 293.582792 
L 166.252059 288.882532 
L 161.629746 284.944249 
L 157.249679 281.752074 
L 155.147566 280.430492 
L 153.102119 279.289183 
L 151.111706 278.326241 
L 149.1746 277.539908 
L 147.289011 276.928595 
L 145.453108 276.490889 
L 143.665046 276.225562 
L 141.922977 276.131568 
L 140.225074 276.208037 
L 138.56954 276.454269 
L 136.954622 276.869721 
L 135.378623 277.453993 
L 133.839912 278.206809 
L 132.336936 279.127999 
L 130.868229 280.217478 
L 129.432425 281.475215 
L 128.028265 282.901215 
L 126.654611 284.49548 
L 125.310452 286.257989 
L 123.994911 288.188661 
L 121.446884 292.553723 
L 119.006307 297.587925 
L 116.670925 303.286407 
L 114.439723 309.642506 
L 112.311634 316.64904 
L 110.283752 324.300546 
L 108.349233 332.595965 
L 106.495167 341.540932 
L 104.700573 351.148696 
L 102.049509 366.846884 
L 95.100147 409.727207 
L 92.56129 423.479671 
L 89.593309 437.697284 
L 87.916304 444.9086 
L 86.095588 452.137507 
L 84.122361 459.33844 
L 81.990682 466.460753 
L 81.990682 466.460753 
" style="fill:none;stroke:#a72965;stroke-linecap:square;stroke-width:1.5;"/>
   </g>
   <g id="patch_3">
    <path d="M 65.36 529 
L 65.36 10.8 
" style="fill:none;stroke:#000000;stroke-linecap:square;stroke-linejoin:miter;stroke-width:0.8;"/>
   </g>
   <g id="patch_4">
    <path d="M 431.235 529 
L 431.235 10.8 
" style="fill:none;stroke:#000000;stroke-linecap:square;stroke-linejoin:miter;stroke-width:0.8;"/>
   </g>
   <g id="patch_5">
    <path d="M 65.36 529 
L 431.235 529 
" style="fill:none;stroke:#000000;stroke-linecap:square;stroke-linejoin:miter;stroke-width:0.8;"/>
   </g>
   <g id="patch_6">
    <path d="M 65.36 10.8 
L 431.235 10.8 
" style="fill:none;stroke:#000000;stroke-linecap:square;stroke-linejoin:miter;stroke-width:0.8;"/>
   </g>
   <g id="legend_1">
    <g id="patch_7">
     <path d="M 353.678125 84.18375 
L 423.535 84.18375 
Q 425.735 84.18375 425.735 81.98375 
L 425.735 18.5 
Q 425.735 16.3 423.535 16.3 
L 353.678125 16.3 
Q 351.478125 16.3 351.478125 18.5 
L 351.478125 81.98375 
Q 351.478125 84.18375 353.678125 84.18375 
z
" style="fill:#ffffff;opacity:0.8;stroke:#cccccc;stroke-linejoin:miter;"/>
    </g>
    <g id="line2d_33">
     <path d="M 355.878125 25.208281 
L 377.878125 25.208281 
" style="fill:none;stroke:#303bc1;stroke-linecap:square;stroke-width:1.5;"/>
    </g>
    <g id="line2d_34"/>
    <g id="text_17">
     <!-- Path 0 -->
     <g transform="translate(386.678125 29.058281)scale(0.11 -0.11)">
      <defs>
       <path d="M 19.671875 64.796875 
L 19.671875 37.40625 
L 32.078125 37.40625 
Q 38.96875 37.40625 42.71875 40.96875 
Q 46.484375 44.53125 46.484375 51.125 
Q 46.484375 57.671875 42.71875 61.234375 
Q 38.96875 64.796875 32.078125 64.796875 
z
M 9.8125 72.90625 
L 32.078125 72.90625 
Q 44.34375 72.90625 50.609375 67.359375 
Q 56.890625 61.8125 56.890625 51.125 
Q 56.890625 40.328125 50.609375 34.8125 
Q 44.34375 29.296875 32.078125 29.296875 
L 19.671875 29.296875 
L 19.671875 0 
L 9.8125 0 
z
" id="DejaVuSans-80"/>
       <path d="M 34.28125 27.484375 
Q 23.390625 27.484375 19.1875 25 
Q 14.984375 22.515625 14.984375 16.5 
Q 14.984375 11.71875 18.140625 8.90625 
Q 21.296875 6.109375 26.703125 6.109375 
Q 34.1875 6.109375 38.703125 11.40625 
Q 43.21875 16.703125 43.21875 25.484375 
L 43.21875 27.484375 
z
M 52.203125 31.203125 
L 52.203125 0 
L 43.21875 0 
L 43.21875 8.296875 
Q 40.140625 3.328125 35.546875 0.953125 
Q 30.953125 -1.421875 24.3125 -1.421875 
Q 15.921875 -1.421875 10.953125 3.296875 
Q 6 8.015625 6 15.921875 
Q 6 25.140625 12.171875 29.828125 
Q 18.359375 34.515625 30.609375 34.515625 
L 43.21875 34.515625 
L 43.21875 35.40625 
Q 43.21875 41.609375 39.140625 45 
Q 35.0625 48.390625 27.6875 48.390625 
Q 23 48.390625 18.546875 47.265625 
Q 14.109375 46.140625 10.015625 43.890625 
L 10.015625 52.203125 
Q 14.9375 54.109375 19.578125 55.046875 
Q 24.21875 56 28.609375 56 
Q 40.484375 56 46.34375 49.84375 
Q 52.203125 43.703125 52.203125 31.203125 
z
" id="DejaVuSans-97"/>
       <path d="M 18.3125 70.21875 
L 18.3125 54.6875 
L 36.8125 54.6875 
L 36.8125 47.703125 
L 18.3125 47.703125 
L 18.3125 18.015625 
Q 18.3125 11.328125 20.140625 9.421875 
Q 21.96875 7.515625 27.59375 7.515625 
L 36.8125 7.515625 
L 36.8125 0 
L 27.59375 0 
Q 17.1875 0 13.234375 3.875 
Q 9.28125 7.765625 9.28125 18.015625 
L 9.28125 47.703125 
L 2.6875 47.703125 
L 2.6875 54.6875 
L 9.28125 54.6875 
L 9.28125 70.21875 
z
" id="DejaVuSans-116"/>
       <path d="M 54.890625 33.015625 
L 54.890625 0 
L 45.90625 0 
L 45.90625 32.71875 
Q 45.90625 40.484375 42.875 44.328125 
Q 39.84375 48.1875 33.796875 48.1875 
Q 26.515625 48.1875 22.3125 43.546875 
Q 18.109375 38.921875 18.109375 30.90625 
L 18.109375 0 
L 9.078125 0 
L 9.078125 75.984375 
L 18.109375 75.984375 
L 18.109375 46.1875 
Q 21.34375 51.125 25.703125 53.5625 
Q 30.078125 56 35.796875 56 
Q 45.21875 56 50.046875 50.171875 
Q 54.890625 44.34375 54.890625 33.015625 
z
" id="DejaVuSans-104"/>
       <path id="DejaVuSans-32"/>
      </defs>
      <use xlink:href="#DejaVuSans-80"/>
      <use x="55.802734" xlink:href="#DejaVuSans-97"/>
      <use x="117.082031" xlink:href="#DejaVuSans-116"/>
      <use x="156.291016" xlink:href="#DejaVuSans-104"/>
      <use x="219.669922" xlink:href="#DejaVuSans-32"/>
      <use x="251.457031" xlink:href="#DejaVuSans-48"/>
     </g>
    </g>
    <g id="line2d_35">
     <path d="M 355.878125 41.354219 
L 377.878125 41.354219 
" style="fill:none;stroke:#5835a2;stroke-linecap:square;stroke-width:1.5;"/>
    </g>
    <g id="line2d_36"/>
    <g id="text_18">
     <!-- Path 1 -->
     <g transform="translate(386.678125 45.204219)scale(0.11 -0.11)">
      <use xlink:href="#DejaVuSans-80"/>
      <use x="55.802734" xlink:href="#DejaVuSans-97"/>
      <use x="117.082031" xlink:href="#DejaVuSans-116"/>
      <use x="156.291016" xlink:href="#DejaVuSans-104"/>
      <use x="219.669922" xlink:href="#DejaVuSans-32"/>
      <use x="251.457031" xlink:href="#DejaVuSans-49"/>
     </g>
    </g>
    <g id="line2d_37">
     <path d="M 355.878125 57.500156 
L 377.878125 57.500156 
" style="fill:none;stroke:#802f83;stroke-linecap:square;stroke-width:1.5;"/>
    </g>
    <g id="line2d_38"/>
    <g id="text_19">
     <!-- Path 2 -->
     <g transform="translate(386.678125 61.350156)scale(0.11 -0.11)">
      <use xlink:href="#DejaVuSans-80"/>
      <use x="55.802734" xlink:href="#DejaVuSans-97"/>
      <use x="117.082031" xlink:href="#DejaVuSans-116"/>
      <use x="156.291016" xlink:href="#DejaVuSans-104"/>
      <use x="219.669922" xlink:href="#DejaVuSans-32"/>
      <use x="251.457031" xlink:href="#DejaVuSans-50"/>
     </g>
    </g>
    <g id="line2d_39">
     <path d="M 355.878125 73.646094 
L 377.878125 73.646094 
" style="fill:none;stroke:#a72965;stroke-linecap:square;stroke-width:1.5;"/>
    </g>
    <g id="line2d_40"/>
    <g id="text_20">
     <!-- Path 3 -->
     <g transform="translate(386.678125 77.496094)scale(0.11 -0.11)">
      <use xlink:href="#DejaVuSans-80"/>
      <use x="55.802734" xlink:href="#DejaVuSans-97"/>
      <use x="117.082031" xlink:href="#DejaVuSans-116"/>
      <use x="156.291016" xlink:href="#DejaVuSans-104"/>
      <use x="219.669922" xlink:href="#DejaVuSans-32"/>
      <use x="251.457031" xlink:href="#DejaVuSans-51"/>
     </g>
    </g>
   </g>
  </g>
  <g id="axes_2">
   <g id="patch_8">
    <path d="M 487.325 529 
L 853.2 529 
L 853.2 10.8 
L 487.325 10.8 
z
" style="fill:#ffffff;"/>
   </g>
   <g id="matplotlib.axis_3">
    <g id="xtick_10">
     <g id="line2d_41">
      <path clip-path="url(#p308b8de6d4)" d="M 503.955682 529 
L 503.955682 10.8 
" style="fill:none;stroke:#b0b0b0;stroke-linecap:square;stroke-width:0.8;"/>
     </g>
     <g id="line2d_42">
      <g>
       <use style="stroke:#000000;stroke-width:0.8;" x="503.955682" xlink:href="#m09c38da51d" y="529"/>
      </g>
     </g>
     <g id="text_21">
      <!-- 0 -->
      <g transform="translate(500.138182 545.118125)scale(0.12 -0.12)">
       <use xlink:href="#DejaVuSans-48"/>
      </g>
     </g>
    </g>
    <g id="xtick_11">
     <g id="line2d_43">
      <path clip-path="url(#p308b8de6d4)" d="M 573.821846 529 
L 573.821846 10.8 
" style="fill:none;stroke:#b0b0b0;stroke-linecap:square;stroke-width:0.8;"/>
     </g>
     <g id="line2d_44">
      <g>
       <use style="stroke:#000000;stroke-width:0.8;" x="573.821846" xlink:href="#m09c38da51d" y="529"/>
      </g>
     </g>
     <g id="text_22">
      <!-- 2 -->
      <g transform="translate(570.004346 545.118125)scale(0.12 -0.12)">
       <use xlink:href="#DejaVuSans-50"/>
      </g>
     </g>
    </g>
    <g id="xtick_12">
     <g id="line2d_45">
      <path clip-path="url(#p308b8de6d4)" d="M 643.688009 529 
L 643.688009 10.8 
" style="fill:none;stroke:#b0b0b0;stroke-linecap:square;stroke-width:0.8;"/>
     </g>
     <g id="line2d_46">
      <g>
       <use style="stroke:#000000;stroke-width:0.8;" x="643.688009" xlink:href="#m09c38da51d" y="529"/>
      </g>
     </g>
     <g id="text_23">
      <!-- 4 -->
      <g transform="translate(639.870509 545.118125)scale(0.12 -0.12)">
       <use xlink:href="#DejaVuSans-52"/>
      </g>
     </g>
    </g>
    <g id="xtick_13">
     <g id="line2d_47">
      <path clip-path="url(#p308b8de6d4)" d="M 713.554173 529 
L 713.554173 10.8 
" style="fill:none;stroke:#b0b0b0;stroke-linecap:square;stroke-width:0.8;"/>
     </g>
     <g id="line2d_48">
      <g>
       <use style="stroke:#000000;stroke-width:0.8;" x="713.554173" xlink:href="#m09c38da51d" y="529"/>
      </g>
     </g>
     <g id="text_24">
      <!-- 6 -->
      <g transform="translate(709.736673 545.118125)scale(0.12 -0.12)">
       <defs>
        <path d="M 33.015625 40.375 
Q 26.375 40.375 22.484375 35.828125 
Q 18.609375 31.296875 18.609375 23.390625 
Q 18.609375 15.53125 22.484375 10.953125 
Q 26.375 6.390625 33.015625 6.390625 
Q 39.65625 6.390625 43.53125 10.953125 
Q 47.40625 15.53125 47.40625 23.390625 
Q 47.40625 31.296875 43.53125 35.828125 
Q 39.65625 40.375 33.015625 40.375 
z
M 52.59375 71.296875 
L 52.59375 62.3125 
Q 48.875 64.0625 45.09375 64.984375 
Q 41.3125 65.921875 37.59375 65.921875 
Q 27.828125 65.921875 22.671875 59.328125 
Q 17.53125 52.734375 16.796875 39.40625 
Q 19.671875 43.65625 24.015625 45.921875 
Q 28.375 48.1875 33.59375 48.1875 
Q 44.578125 48.1875 50.953125 41.515625 
Q 57.328125 34.859375 57.328125 23.390625 
Q 57.328125 12.15625 50.6875 5.359375 
Q 44.046875 -1.421875 33.015625 -1.421875 
Q 20.359375 -1.421875 13.671875 8.265625 
Q 6.984375 17.96875 6.984375 36.375 
Q 6.984375 53.65625 15.1875 63.9375 
Q 23.390625 74.21875 37.203125 74.21875 
Q 40.921875 74.21875 44.703125 73.484375 
Q 48.484375 72.75 52.59375 71.296875 
z
" id="DejaVuSans-54"/>
       </defs>
       <use xlink:href="#DejaVuSans-54"/>
      </g>
     </g>
    </g>
    <g id="xtick_14">
     <g id="line2d_49">
      <path clip-path="url(#p308b8de6d4)" d="M 783.420337 529 
L 783.420337 10.8 
" style="fill:none;stroke:#b0b0b0;stroke-linecap:square;stroke-width:0.8;"/>
     </g>
     <g id="line2d_50">
      <g>
       <use style="stroke:#000000;stroke-width:0.8;" x="783.420337" xlink:href="#m09c38da51d" y="529"/>
      </g>
     </g>
     <g id="text_25">
      <!-- 8 -->
      <g transform="translate(779.602837 545.118125)scale(0.12 -0.12)">
       <defs>
        <path d="M 31.78125 34.625 
Q 24.75 34.625 20.71875 30.859375 
Q 16.703125 27.09375 16.703125 20.515625 
Q 16.703125 13.921875 20.71875 10.15625 
Q 24.75 6.390625 31.78125 6.390625 
Q 38.8125 6.390625 42.859375 10.171875 
Q 46.921875 13.96875 46.921875 20.515625 
Q 46.921875 27.09375 42.890625 30.859375 
Q 38.875 34.625 31.78125 34.625 
z
M 21.921875 38.8125 
Q 15.578125 40.375 12.03125 44.71875 
Q 8.5 49.078125 8.5 55.328125 
Q 8.5 64.0625 14.71875 69.140625 
Q 20.953125 74.21875 31.78125 74.21875 
Q 42.671875 74.21875 48.875 69.140625 
Q 55.078125 64.0625 55.078125 55.328125 
Q 55.078125 49.078125 51.53125 44.71875 
Q 48 40.375 41.703125 38.8125 
Q 48.828125 37.15625 52.796875 32.3125 
Q 56.78125 27.484375 56.78125 20.515625 
Q 56.78125 9.90625 50.3125 4.234375 
Q 43.84375 -1.421875 31.78125 -1.421875 
Q 19.734375 -1.421875 13.25 4.234375 
Q 6.78125 9.90625 6.78125 20.515625 
Q 6.78125 27.484375 10.78125 32.3125 
Q 14.796875 37.15625 21.921875 38.8125 
z
M 18.3125 54.390625 
Q 18.3125 48.734375 21.84375 45.5625 
Q 25.390625 42.390625 31.78125 42.390625 
Q 38.140625 42.390625 41.71875 45.5625 
Q 45.3125 48.734375 45.3125 54.390625 
Q 45.3125 60.0625 41.71875 63.234375 
Q 38.140625 66.40625 31.78125 66.40625 
Q 25.390625 66.40625 21.84375 63.234375 
Q 18.3125 60.0625 18.3125 54.390625 
z
" id="DejaVuSans-56"/>
       </defs>
       <use xlink:href="#DejaVuSans-56"/>
      </g>
     </g>
    </g>
    <g id="text_26">
     <!-- Time -->
     <g transform="translate(651.912109 563.011406)scale(0.15 -0.15)">
      <defs>
       <path d="M -0.296875 72.90625 
L 61.375 72.90625 
L 61.375 64.59375 
L 35.5 64.59375 
L 35.5 0 
L 25.59375 0 
L 25.59375 64.59375 
L -0.296875 64.59375 
z
" id="DejaVuSans-84"/>
       <path d="M 9.421875 54.6875 
L 18.40625 54.6875 
L 18.40625 0 
L 9.421875 0 
z
M 9.421875 75.984375 
L 18.40625 75.984375 
L 18.40625 64.59375 
L 9.421875 64.59375 
z
" id="DejaVuSans-105"/>
       <path d="M 52 44.1875 
Q 55.375 50.25 60.0625 53.125 
Q 64.75 56 71.09375 56 
Q 79.640625 56 84.28125 50.015625 
Q 88.921875 44.046875 88.921875 33.015625 
L 88.921875 0 
L 79.890625 0 
L 79.890625 32.71875 
Q 79.890625 40.578125 77.09375 44.375 
Q 74.3125 48.1875 68.609375 48.1875 
Q 61.625 48.1875 57.5625 43.546875 
Q 53.515625 38.921875 53.515625 30.90625 
L 53.515625 0 
L 44.484375 0 
L 44.484375 32.71875 
Q 44.484375 40.625 41.703125 44.40625 
Q 38.921875 48.1875 33.109375 48.1875 
Q 26.21875 48.1875 22.15625 43.53125 
Q 18.109375 38.875 18.109375 30.90625 
L 18.109375 0 
L 9.078125 0 
L 9.078125 54.6875 
L 18.109375 54.6875 
L 18.109375 46.1875 
Q 21.1875 51.21875 25.484375 53.609375 
Q 29.78125 56 35.6875 56 
Q 41.65625 56 45.828125 52.96875 
Q 50 49.953125 52 44.1875 
z
" id="DejaVuSans-109"/>
       <path d="M 56.203125 29.59375 
L 56.203125 25.203125 
L 14.890625 25.203125 
Q 15.484375 15.921875 20.484375 11.0625 
Q 25.484375 6.203125 34.421875 6.203125 
Q 39.59375 6.203125 44.453125 7.46875 
Q 49.3125 8.734375 54.109375 11.28125 
L 54.109375 2.78125 
Q 49.265625 0.734375 44.1875 -0.34375 
Q 39.109375 -1.421875 33.890625 -1.421875 
Q 20.796875 -1.421875 13.15625 6.1875 
Q 5.515625 13.8125 5.515625 26.8125 
Q 5.515625 40.234375 12.765625 48.109375 
Q 20.015625 56 32.328125 56 
Q 43.359375 56 49.78125 48.890625 
Q 56.203125 41.796875 56.203125 29.59375 
z
M 47.21875 32.234375 
Q 47.125 39.59375 43.09375 43.984375 
Q 39.0625 48.390625 32.421875 48.390625 
Q 24.90625 48.390625 20.390625 44.140625 
Q 15.875 39.890625 15.1875 32.171875 
z
" id="DejaVuSans-101"/>
      </defs>
      <use xlink:href="#DejaVuSans-84"/>
      <use x="57.958984" xlink:href="#DejaVuSans-105"/>
      <use x="85.742188" xlink:href="#DejaVuSans-109"/>
      <use x="183.154297" xlink:href="#DejaVuSans-101"/>
     </g>
    </g>
   </g>
   <g id="matplotlib.axis_4">
    <g id="ytick_6">
     <g id="line2d_51">
      <path clip-path="url(#p308b8de6d4)" d="M 487.325 490.742589 
L 853.2 490.742589 
" style="fill:none;stroke:#b0b0b0;stroke-linecap:square;stroke-width:0.8;"/>
     </g>
     <g id="line2d_52">
      <g>
       <use style="stroke:#000000;stroke-width:0.8;" x="487.325" xlink:href="#m0ecc105c5a" y="490.742589"/>
      </g>
     </g>
     <g id="text_27">
      <!-- −3 -->
      <g transform="translate(462.634375 495.301651)scale(0.12 -0.12)">
       <use xlink:href="#DejaVuSans-8722"/>
       <use x="83.789062" xlink:href="#DejaVuSans-51"/>
      </g>
     </g>
    </g>
    <g id="ytick_7">
     <g id="line2d_53">
      <path clip-path="url(#p308b8de6d4)" d="M 487.325 386.903404 
L 853.2 386.903404 
" style="fill:none;stroke:#b0b0b0;stroke-linecap:square;stroke-width:0.8;"/>
     </g>
     <g id="line2d_54">
      <g>
       <use style="stroke:#000000;stroke-width:0.8;" x="487.325" xlink:href="#m0ecc105c5a" y="386.903404"/>
      </g>
     </g>
     <g id="text_28">
      <!-- −2 -->
      <g transform="translate(462.634375 391.462466)scale(0.12 -0.12)">
       <use xlink:href="#DejaVuSans-8722"/>
       <use x="83.789062" xlink:href="#DejaVuSans-50"/>
      </g>
     </g>
    </g>
    <g id="ytick_8">
     <g id="line2d_55">
      <path clip-path="url(#p308b8de6d4)" d="M 487.325 283.064218 
L 853.2 283.064218 
" style="fill:none;stroke:#b0b0b0;stroke-linecap:square;stroke-width:0.8;"/>
     </g>
     <g id="line2d_56">
      <g>
       <use style="stroke:#000000;stroke-width:0.8;" x="487.325" xlink:href="#m0ecc105c5a" y="283.064218"/>
      </g>
     </g>
     <g id="text_29">
      <!-- −1 -->
      <g transform="translate(462.634375 287.623281)scale(0.12 -0.12)">
       <use xlink:href="#DejaVuSans-8722"/>
       <use x="83.789062" xlink:href="#DejaVuSans-49"/>
      </g>
     </g>
    </g>
    <g id="ytick_9">
     <g id="line2d_57">
      <path clip-path="url(#p308b8de6d4)" d="M 487.325 179.225033 
L 853.2 179.225033 
" style="fill:none;stroke:#b0b0b0;stroke-linecap:square;stroke-width:0.8;"/>
     </g>
     <g id="line2d_58">
      <g>
       <use style="stroke:#000000;stroke-width:0.8;" x="487.325" xlink:href="#m0ecc105c5a" y="179.225033"/>
      </g>
     </g>
     <g id="text_30">
      <!-- 0 -->
      <g transform="translate(472.69 183.784096)scale(0.12 -0.12)">
       <use xlink:href="#DejaVuSans-48"/>
      </g>
     </g>
    </g>
    <g id="ytick_10">
     <g id="line2d_59">
      <path clip-path="url(#p308b8de6d4)" d="M 487.325 75.385848 
L 853.2 75.385848 
" style="fill:none;stroke:#b0b0b0;stroke-linecap:square;stroke-width:0.8;"/>
     </g>
     <g id="line2d_60">
      <g>
       <use style="stroke:#000000;stroke-width:0.8;" x="487.325" xlink:href="#m0ecc105c5a" y="75.385848"/>
      </g>
     </g>
     <g id="text_31">
      <!-- 1 -->
      <g transform="translate(472.69 79.94491)scale(0.12 -0.12)">
       <use xlink:href="#DejaVuSans-49"/>
      </g>
     </g>
    </g>
    <g id="text_32">
     <!-- $\theta$ (rad) -->
     <g transform="translate(455.514844 295.175)rotate(-90)scale(0.15 -0.15)">
      <defs>
       <path d="M 45.515625 34.671875 
L 14.453125 34.671875 
Q 12.359375 20.0625 14.5 13.875 
Q 17.1875 6.25 24.46875 6.25 
Q 31.78125 6.25 37.359375 13.921875 
Q 42.234375 20.65625 45.515625 34.671875 
z
M 47.015625 42.96875 
Q 48.34375 56.84375 46.625 61.71875 
Q 43.953125 69.4375 36.765625 69.4375 
Q 29.296875 69.4375 23.828125 61.8125 
Q 19.53125 55.671875 16.15625 42.96875 
z
M 38.1875 76.765625 
Q 49.90625 76.765625 54.59375 66.40625 
Q 59.28125 56.109375 55.71875 37.84375 
Q 52.203125 19.625 43.453125 9.28125 
Q 34.765625 -1.125 23.046875 -1.125 
Q 11.28125 -1.125 6.640625 9.28125 
Q 2 19.625 5.515625 37.84375 
Q 9.078125 56.109375 17.71875 66.40625 
Q 26.421875 76.765625 38.1875 76.765625 
z
" id="DejaVuSans-Oblique-952"/>
       <path d="M 31 75.875 
Q 24.46875 64.65625 21.28125 53.65625 
Q 18.109375 42.671875 18.109375 31.390625 
Q 18.109375 20.125 21.3125 9.0625 
Q 24.515625 -2 31 -13.1875 
L 23.1875 -13.1875 
Q 15.875 -1.703125 12.234375 9.375 
Q 8.59375 20.453125 8.59375 31.390625 
Q 8.59375 42.28125 12.203125 53.3125 
Q 15.828125 64.359375 23.1875 75.875 
z
" id="DejaVuSans-40"/>
       <path d="M 41.109375 46.296875 
Q 39.59375 47.171875 37.8125 47.578125 
Q 36.03125 48 33.890625 48 
Q 26.265625 48 22.1875 43.046875 
Q 18.109375 38.09375 18.109375 28.8125 
L 18.109375 0 
L 9.078125 0 
L 9.078125 54.6875 
L 18.109375 54.6875 
L 18.109375 46.1875 
Q 20.953125 51.171875 25.484375 53.578125 
Q 30.03125 56 36.53125 56 
Q 37.453125 56 38.578125 55.875 
Q 39.703125 55.765625 41.0625 55.515625 
z
" id="DejaVuSans-114"/>
       <path d="M 45.40625 46.390625 
L 45.40625 75.984375 
L 54.390625 75.984375 
L 54.390625 0 
L 45.40625 0 
L 45.40625 8.203125 
Q 42.578125 3.328125 38.25 0.953125 
Q 33.9375 -1.421875 27.875 -1.421875 
Q 17.96875 -1.421875 11.734375 6.484375 
Q 5.515625 14.40625 5.515625 27.296875 
Q 5.515625 40.1875 11.734375 48.09375 
Q 17.96875 56 27.875 56 
Q 33.9375 56 38.25 53.625 
Q 42.578125 51.265625 45.40625 46.390625 
z
M 14.796875 27.296875 
Q 14.796875 17.390625 18.875 11.75 
Q 22.953125 6.109375 30.078125 6.109375 
Q 37.203125 6.109375 41.296875 11.75 
Q 45.40625 17.390625 45.40625 27.296875 
Q 45.40625 37.203125 41.296875 42.84375 
Q 37.203125 48.484375 30.078125 48.484375 
Q 22.953125 48.484375 18.875 42.84375 
Q 14.796875 37.203125 14.796875 27.296875 
z
" id="DejaVuSans-100"/>
       <path d="M 8.015625 75.875 
L 15.828125 75.875 
Q 23.140625 64.359375 26.78125 53.3125 
Q 30.421875 42.28125 30.421875 31.390625 
Q 30.421875 20.453125 26.78125 9.375 
Q 23.140625 -1.703125 15.828125 -13.1875 
L 8.015625 -13.1875 
Q 14.5 -2 17.703125 9.0625 
Q 20.90625 20.125 20.90625 31.390625 
Q 20.90625 42.671875 17.703125 53.65625 
Q 14.5 64.65625 8.015625 75.875 
z
" id="DejaVuSans-41"/>
      </defs>
      <use transform="translate(0 0.234375)" xlink:href="#DejaVuSans-Oblique-952"/>
      <use transform="translate(61.181641 0.234375)" xlink:href="#DejaVuSans-32"/>
      <use transform="translate(92.96875 0.234375)" xlink:href="#DejaVuSans-40"/>
      <use transform="translate(131.982422 0.234375)" xlink:href="#DejaVuSans-114"/>
      <use transform="translate(173.095703 0.234375)" xlink:href="#DejaVuSans-97"/>
      <use transform="translate(234.375 0.234375)" xlink:href="#DejaVuSans-100"/>
      <use transform="translate(297.851562 0.234375)" xlink:href="#DejaVuSans-41"/>
     </g>
    </g>
   </g>
   <g id="line2d_61">
    <path clip-path="url(#p308b8de6d4)" d="M 503.955682 64.259612 
L 582.068428 64.259612 
L 582.068428 212.635348 
L 692.536532 212.635348 
L 692.536532 480.007075 
L 836.569318 480.007075 
L 836.569318 480.007075 
" style="fill:none;stroke:#303bc1;stroke-linecap:square;stroke-width:1.5;"/>
   </g>
   <g id="line2d_62">
    <path clip-path="url(#p308b8de6d4)" d="M 503.955682 97.669928 
L 553.35852 97.669928 
L 553.35852 228.172693 
L 659.985278 228.172693 
L 659.985278 449.906842 
L 744.977023 449.906842 
L 744.977023 449.906842 
" style="fill:none;stroke:#5835a2;stroke-linecap:square;stroke-width:1.5;"/>
   </g>
   <g id="line2d_63">
    <path clip-path="url(#p308b8de6d4)" d="M 503.955682 34.354545 
L 506.647738 35.446493 
L 509.095063 36.686332 
L 511.542387 38.192546 
L 513.989711 39.983086 
L 516.437035 42.058902 
L 519.129092 44.64759 
L 522.310613 48.041848 
L 527.205261 53.651956 
L 532.589375 59.732204 
L 536.015628 63.256565 
L 538.952417 65.968791 
L 540.665544 67.407046 
L 540.665544 196.013005 
L 545.679078 189.179745 
L 549.260174 184.619884 
L 552.841269 180.459944 
L 555.706146 177.4683 
L 558.571022 174.794485 
L 561.435899 172.440366 
L 564.300775 170.396576 
L 567.165651 168.645829 
L 570.030528 167.165847 
L 572.895404 165.931703 
L 575.760281 164.917543 
L 579.341376 163.920293 
L 582.922472 163.179179 
L 586.503567 162.650087 
L 590.800882 162.238721 
L 595.814416 161.989052 
L 602.260388 161.899881 
L 620.165866 161.797061 
L 625.895619 161.461497 
L 630.909152 160.920779 
L 635.206467 160.22354 
L 638.787563 159.446721 
L 642.368658 158.466624 
L 645.949754 157.259694 
L 648.098411 156.417128 
L 648.098411 478.522172 
L 653.568439 475.914707 
L 656.303453 474.82678 
L 658.491464 474.145357 
L 660.679475 473.685036 
L 662.867487 473.490435 
L 664.508495 473.541297 
L 666.149503 473.774079 
L 667.790512 474.196585 
L 669.43152 474.812649 
L 671.072529 475.622204 
L 673.26054 476.99571 
L 675.448551 478.688712 
L 677.636562 480.67562 
L 680.371576 483.524414 
L 683.10659 486.714617 
L 686.388607 490.892738 
L 690.764629 496.860559 
L 696.78166 505.342519 
L 697.875666 505.445333 
L 730.148831 505.445454 
L 730.148831 505.445454 
" style="fill:none;stroke:#802f83;stroke-linecap:square;stroke-width:1.5;"/>
   </g>
   <g id="line2d_64">
    <path clip-path="url(#p308b8de6d4)" d="M 503.955682 77.550757 
L 506.853167 79.322241 
L 509.336726 80.589253 
L 511.406359 81.417125 
L 513.062065 81.868002 
L 514.717771 82.054417 
L 515.95955 81.963775 
L 517.20133 81.622376 
L 518.443109 80.977352 
L 519.684889 79.975416 
L 520.926668 78.569099 
L 522.168448 76.725475 
L 523.410227 74.437155 
L 525.065933 70.753363 
L 527.135566 65.452337 
L 529.619125 59.105675 
L 530.860904 56.43195 
L 532.102684 54.356894 
L 532.930537 53.379375 
L 533.75839 52.759383 
L 534.586242 52.509431 
L 535.414095 52.628171 
L 536.241948 53.101268 
L 537.069801 53.902869 
L 537.897654 54.997552 
L 539.139434 57.094393 
L 540.79514 60.485538 
L 546.590111 73.011319 
L 548.245817 75.912494 
L 549.901523 78.384927 
L 551.557229 80.448618 
L 553.212935 82.144823 
L 554.868641 83.521936 
L 556.524347 84.627345 
L 558.180053 85.50341 
L 560.249685 86.329848 
L 562.319318 86.908445 
L 564.38895 87.279036 
L 566.044656 87.443869 
L 566.044656 118.653305 
L 567.898141 119.482913 
L 569.288255 120.325094 
L 570.678369 121.378021 
L 572.068482 122.66726 
L 573.458596 124.224275 
L 574.84871 126.087053 
L 576.238824 128.300511 
L 577.628937 130.916293 
L 579.019051 133.991408 
L 580.409165 137.584791 
L 581.799279 141.750566 
L 583.189392 146.526703 
L 585.042877 153.845893 
L 586.896362 162.10762 
L 591.993446 185.722081 
L 593.38356 191.02064 
L 594.773673 195.33855 
L 595.700416 197.604604 
L 596.627158 199.361134 
L 597.553901 200.611247 
L 598.480643 201.373216 
L 599.407386 201.677967 
L 600.334128 201.566606 
L 601.260871 201.088057 
L 602.187613 200.296845 
L 603.577727 198.651147 
L 605.431212 195.911161 
L 609.138182 190.182455 
L 610.528296 188.39938 
L 611.91841 186.980646 
L 612.845152 186.273071 
L 613.771895 185.775541 
L 614.698637 185.50137 
L 615.625379 185.461652 
L 616.552122 185.665856 
L 617.478864 186.122311 
L 618.405607 186.838536 
L 619.332349 187.821443 
L 620.259092 189.077368 
L 621.185834 190.611958 
L 622.575948 193.446249 
L 623.966062 196.927325 
L 625.356176 201.053642 
L 626.746289 205.807943 
L 628.599774 213.057044 
L 630.453259 221.209273 
L 632.770116 232.36673 
L 635.550343 246.648956 
L 635.550343 467.657993 
L 639.395432 477.936722 
L 640.677128 480.917456 
L 641.958824 483.462849 
L 643.240521 485.518353 
L 644.522217 487.090095 
L 645.803913 488.234884 
L 647.085609 489.042329 
L 649.008154 489.847771 
L 652.853242 491.169056 
L 654.134939 491.79433 
L 655.416635 492.600646 
L 656.698331 493.627211 
L 657.980027 494.907528 
L 659.261724 496.471331 
L 660.54342 498.345621 
L 661.825116 500.552888 
L 663.106812 503.081123 
L 663.74766 504.705793 
L 664.388508 505.441997 
L 685.536496 505.445453 
L 688.740737 505.338992 
L 689.381585 501.52135 
L 691.944978 489.406932 
L 693.867522 481.557914 
L 695.790066 474.836942 
L 697.712611 469.091433 
L 699.635155 464.115409 
L 701.557699 459.695132 
L 704.76194 453.02013 
L 709.888725 442.487843 
L 715.656358 430.262441 
L 717.578902 426.884725 
L 718.860599 425.051065 
L 720.142295 423.607837 
L 721.423991 422.578942 
L 722.705687 421.971813 
L 723.987384 421.782764 
L 725.26908 422.000147 
L 726.550776 422.603695 
L 727.832472 423.559498 
L 729.114169 424.811198 
L 731.677561 427.809062 
L 731.677561 427.809062 
" style="fill:none;stroke:#a72965;stroke-linecap:square;stroke-width:1.5;"/>
   </g>
   <g id="patch_9">
    <path d="M 487.325 529 
L 487.325 10.8 
" style="fill:none;stroke:#000000;stroke-linecap:square;stroke-linejoin:miter;stroke-width:0.8;"/>
   </g>
   <g id="patch_10">
    <path d="M 853.2 529 
L 853.2 10.8 
" style="fill:none;stroke:#000000;stroke-linecap:square;stroke-linejoin:miter;stroke-width:0.8;"/>
   </g>
   <g id="patch_11">
    <path d="M 487.325 529 
L 853.2 529 
" style="fill:none;stroke:#000000;stroke-linecap:square;stroke-linejoin:miter;stroke-width:0.8;"/>
   </g>
   <g id="patch_12">
    <path d="M 487.325 10.8 
L 853.2 10.8 
" style="fill:none;stroke:#000000;stroke-linecap:square;stroke-linejoin:miter;stroke-width:0.8;"/>
   </g>
  </g>
 </g>
 <defs>
  <clipPath id="p9253e25cfa">
   <rect height="518.2" width="365.875" x="65.36" y="10.8"/>
  </clipPath>
  <clipPath id="p308b8de6d4">
   <rect height="518.2" width="365.875" x="487.325" y="10.8"/>
  </clipPath>
 </defs>
</svg>
