<?xml version="1.0" encoding="UTF-8"?>
<svg xmlns="http://www.w3.org/2000/svg" xmlns:xlink="http://www.w3.org/1999/xlink" viewBox="0 0 498 498">
  <defs>
    <style>
      .cls-1 {
        stroke-width: .15px;
      }

      .cls-1, .cls-2, .cls-3, .cls-4, .cls-5 {
        fill: #fff;
      }

      .cls-1, .cls-3, .cls-4, .cls-6, .cls-5, .cls-7, .cls-8, .cls-9 {
        stroke: #fff;
      }

      .cls-1, .cls-3, .cls-5, .cls-7, .cls-8, .cls-10, .cls-9 {
        stroke-miterlimit: 10;
      }

      .cls-3 {
        stroke-width: .25px;
      }

      .cls-4 {
        stroke-width: .97px;
      }

      .cls-4, .cls-6 {
        stroke-linecap: round;
        stroke-linejoin: round;
      }

      .cls-6, .cls-8 {
        fill: #790c22;
      }

      .cls-5, .cls-9 {
        stroke-width: .03px;
      }

      .cls-7 {
        stroke-width: .1px;
      }

      .cls-7, .cls-9 {
        fill: none;
      }

      .cls-10 {
        fill: #212121;
        stroke: #212121;
        stroke-width: 3px;
      }
    </style>
    <symbol id="Oct_Star" data-name="Oct Star" viewBox="0 0 103.44 90">
      <path class="cls-2" d="m77.22,90c-14.83-26.17-36.47-26.34-51.72-.42,15.25-25.93,4.58-44.76-25.5-45,30.08.24,41.05-18.41,26.22-44.58,14.83,26.17,36.47,26.34,51.72.42-15.25,25.93-4.58,44.76,25.5,45-30.08-.24-41.05,18.41-26.22,44.58Z"/>
    </symbol>
    <symbol id="Square_Star" data-name="Square Star" viewBox="0 0 3.99 3.99">
      <path class="cls-2" d="m3.99,3.99c-1.04-1.04-2.96-1.04-3.99,0C1.04,2.96,1.04,1.04,0,0c1.04,1.04,2.96,1.04,3.99,0-1.04,1.04-1.04,2.96,0,3.99Z"/>
    </symbol>
    <symbol id="Star" viewBox="0 0 16.47 16.74">
      <path class="cls-2" d="m13.46,16.61c-2.71-4.27-5.18-5.61-5.13-2.78-.05-2.83-2.48-1.43-5.05,2.91,2.57-4.34,3-7.25.89-6.05,2.11-1.21.1-3.24-4.17-4.22,4.27.98,7,.52,5.68-.95,1.33,1.48,2.52-1.18,2.47-5.52.04,4.34,1.3,6.97,2.62,5.46-1.31,1.51,1.43,1.9,5.7.81-4.27,1.09-6.23,3.18-4.06,4.33-2.16-1.15-1.66,1.75,1.05,6.02Z"/>
    </symbol>
    <symbol id="Swoop" viewBox="0 0 234.99 175.86">
      <path class="cls-3" d="m234.86,130.55c-1.91,11.42-10.35,20.66-18.78,27.99-7.07,6.15-16.79,9.95-26.21,9.67C104.88,165.68.11.07.11.07.11.07,104.84,175.73,189.87,175.73c10.81,0,21.73-2.98,29.59-10.72,9.36-9.21,13.04-21.95,15.4-34.47Z"/>
    </symbol>
    <symbol id="Twinkling_Star" data-name="Twinkling Star" viewBox="0 0 132.75 132.75">
      <path class="cls-2" d="m132.75,66.38c-57.75,4.76-61.61,8.63-66.37,66.38-4.76-57.75-8.62-61.61-66.37-66.38C57.75,61.61,61.61,57.75,66.37,0c4.76,57.75,8.62,61.61,66.37,66.38Z"/>
    </symbol>
  </defs>
  <g id="Layer_1" data-name="Layer 1">
    <circle class="cls-10" cx="249" cy="249" r="247.5"/>
  </g>
  <g id="Stars">
    <use width="132.75" height="132.75" transform="translate(273.7 24.65) scale(.13)" xlink:href="#Twinkling_Star"/>
    <use width="16.47" height="16.74" transform="translate(341.61 110.11) rotate(14.91)" xlink:href="#Star"/>
    <use width="103.44" height="90" transform="translate(118.86 162.36) scale(.05)" xlink:href="#Oct_Star"/>
    <use width="3.99" height="3.99" transform="translate(210.29 114.87) scale(.73 .94)" xlink:href="#Square_Star"/>
    <use width="3.99" height="3.99" transform="translate(96.05 83.81) rotate(15.34) scale(.73 .94)" xlink:href="#Square_Star"/>
    <use width="103.44" height="90" transform="translate(367.84 60.52) rotate(49.81) scale(.04)" xlink:href="#Oct_Star"/>
    <g>
      <polygon class="cls-2" points="463.87 152.43 462.77 153.02 461.96 153.65 460.98 154.1 460.51 155.02 459.46 155.55 459.3 156.59 458.82 157.51 457.93 156.85 457.48 155.98 456.99 155.1 455.97 154.73 455.44 153.75 454.51 153.27 453.39 153.07 454.15 152.29 455.13 151.89 455.84 151.19 456.84 150.7 457.23 149.76 457.71 148.89 458.23 147.85 459.1 148.68 459.19 149.82 460.09 150.4 461.12 150.75 461.66 151.72 462.63 152.11 463.87 152.43"/>
      <polygon class="cls-7" points="463.87 152.43 462.77 153.02 461.96 153.65 460.98 154.1 460.51 155.02 459.46 155.55 459.3 156.59 458.82 157.51 457.93 156.85 457.48 155.98 456.99 155.1 455.97 154.73 455.44 153.75 454.51 153.27 453.39 153.07 454.15 152.29 455.13 151.89 455.84 151.19 456.84 150.7 457.23 149.76 457.71 148.89 458.23 147.85 459.1 148.68 459.19 149.82 460.09 150.4 461.12 150.75 461.66 151.72 462.63 152.11 463.87 152.43"/>
    </g>
    <use width="3.99" height="3.99" transform="translate(29.1 211.04) scale(.73 .94)" xlink:href="#Square_Star"/>
    <path class="cls-2" d="m196.14,66.1c-4.72-2.82-5.99-3.51-2.32-1.25-3.67-2.25-4.9-3.03-2.23-1.41-2.67-1.62-4.09-1.9-2.58-.5-1.51-1.4-1.66-.17-.27,2.23-1.39-2.4-2.51-3.11-2.04-1.3-.47-1.82-1.33-.65-1.55,2.11.22-2.77-.12-1.36-.62,2.55.5-3.91,0-2.54-.9,2.5.9-5.04,1.15-6.43.44-2.52.71-3.9.92-5.3.39-2.55.53-2.75.32-4.16-.38-2.56.7-1.6-.47-1.69-2.12-.16,1.65-1.53,1.9-2.73.45-2.18,1.45-.55.15-.92-2.37-.68,2.51-.25,1.18-.35-2.42-.19,3.6-.16,2.24-.17-2.48-.02,4.72-.15,5.96-.4,2.27-.45,3.7.05,4.9-.35,2.18-.72,2.72.37,3.83-.16,2.02-.96,1.81.81,1.75-.01-.11-1.49,1.86,1.47,2.92.96,1.92-.93,1,1.89.87.58-.23-2.38,1.1,2.96.95,1.66-.27-2.38,1.22,4.03.74,2.81-.89-2.23,1.62,5.04,2.17,6.23.98,2.18,1.18,4.06,1.77,5.24,1.07,2.15.7,3.09,1.67,3.97,1.75,1.61-.09,2.37.82,2.02,1.65-.62-.83,2.64-.16,3.35,1.22,1.28-1.38,2.07-.15,1.8,2.23-.48-2.38,2.28-1.21,1.77,2.14-.93-3.34,2.7-2.4,1.81,1.71-1.63-4.11,3.43-5.19,4.29-1.96,1.56-3.23,2.73-4.13,3.78-1.64,1.91-2.49,1.87-2.88,3.14-.7,2.31-2.18.83-1.35,1.73,1.5,1.62-2.85.11-3.55.75-1.28,1.16-2.28-.42-1.48.74,1.44,2.1-2.93-1.36-1.82-.48,2.01,1.6-3.83-2.08-2.75-1.17,1.97,1.64Z"/>
    <path class="cls-2" d="m169.31,383.18c-.17-1.38-1.28-1.81-2.32-.89,1.04-.92.89-2.2-.32-2.66,1.21.46,2.17-.4,2.01-1.78.17,1.38,1.28,1.81,2.32.89-1.04.92-.89,2.2.32,2.66-1.21-.46-2.17.4-2.01,1.78Z"/>
    <circle class="cls-5" cx="217.48" cy="462.7" r="1.06"/>
    <g>
      <polygon class="cls-2" points="128.71 356.51 127.22 357.75 126.3 356.51 127.22 355.14 128.71 356.51"/>
      <polygon class="cls-9" points="128.71 356.51 127.22 357.75 126.3 356.51 127.22 355.14 128.71 356.51"/>
    </g>
    <g>
      <path class="cls-2" d="m325,381.96c-1.11-.34-1.95-.1-2.22.64.27-.74-.25-1.35-1.36-1.61,1.11.25,1.87-.05,2-.79-.13.74.47,1.41,1.58,1.75Z"/>
      <path class="cls-9" d="m325,381.96c-1.11-.34-1.95-.1-2.22.64.27-.74-.25-1.35-1.36-1.61,1.11.25,1.87-.05,2-.79-.13.74.47,1.41,1.58,1.75Z"/>
    </g>
    <use width="132.75" height="132.75" transform="translate(426.97 354.45) scale(.1 .12)" xlink:href="#Twinkling_Star"/>
    <use width="103.44" height="90" transform="translate(52.01 310) rotate(49.81) scale(.04)" xlink:href="#Oct_Star"/>
  </g>
  <g id="Lines">
    <use width="234.99" height="175.86" transform="translate(133.78 291.14)" xlink:href="#Swoop"/>
    <path class="cls-1" d="m332.06,483.77c-84.23,5.92-206.83-185.81-206.83-185.81,0,0,105.73,168.52,189,191.43l4.48-1.3,4.58-1.4,3.24-1.03,2.48-.82,3.04-1.07Z"/>
    <path class="cls-4" d="m349.74,189.43c-2.22-4.76-6.12-16.79-27.57-27.08-15.1-7.25-31.87-11.04-48.41-13.16-5.53-.71-11.23-1.44-16.82-1.31,1.16-.4,1.72-1.7,2.1-2.87,1.62-4.97,2.42-10.19,4.42-15.04,1.61-3.91,4.01-7.76,7.73-9.93,3.57-2.08,6.39-.84,10.08,0,2.7.61,5.38,1.27,8.06,1.96,6.93,1.77,13.81,3.73,20.65,5.84,14.06,4.34,28.32,9.12,41.33,16.09,21.45,11.5,28.31,42.96,29.42,45.52h-30.99Z"/>
    <path class="cls-6" d="m205,188.91l36.93.52s14.65-37.02,14.66-37.05c4.25-10.75,9.87-21.28,17.69-29.96.27-.3,2.67-3.39,3.01-3.32-14.63-2.92-31.24-1.06-41.99,10.13-5.12,5.33-7.8,12.67-11,19.25-6.43,13.23-12.38,26.69-18.95,39.84-.07.14-.13.27-.2.41l-.16.18Z"/>
    <path class="cls-4" d="m349.74,290.69c-2.22,4.76-6.12,16.79-27.57,27.08-15.1,7.25-31.87,11.04-48.41,13.16-5.53.71-11.23,1.44-16.82,1.31,1.16.4,1.72,1.7,2.1,2.87,1.62,4.97,2.42,10.19,4.42,15.04,1.61,3.91,4.01,7.76,7.73,9.93,3.57,2.08,6.39.84,10.08,0,2.7-.61,5.38-1.27,8.06-1.96,6.93-1.77,13.81-3.73,20.65-5.84,14.06-4.34,28.32-9.12,41.33-16.09,21.45-11.5,28.31-42.96,29.42-45.52h-30.99Z"/>
    <path class="cls-6" d="m205,291.21l36.93-.52s14.65,37.02,14.66,37.05c4.25,10.75,9.87,21.28,17.69,29.96.27.3,2.67,3.39,3.01,3.32-14.63,2.92-31.24,1.06-41.99-10.13-5.12-5.33-7.8-12.67-11-19.25-6.43-13.23-12.38-26.69-18.95-39.84-.07-.14-.13-.27-.2-.41l-.16-.18Z"/>
  </g>
  <g id="ASSET">
    <g>
      <path class="cls-8" d="m42.28,287.42h-18.2l33.18-84c3.5-8.82,9.94-12.18,19.88-12.18s16.24,3.36,19.6,12.18l31.92,84h-18.34l-28.7-76.02c-.84-2.24-2.38-3.22-4.62-3.22s-3.78.98-4.76,3.22l-29.96,76.02Z"/>
      <path class="cls-8" d="m207.76,192.93v16.52h-48.44c-8.54,0-12.32,4.62-12.32,11.2,0,5.74,2.94,11.2,14,11.2h22.12c25.76,0,31.78,14.28,31.78,27.86,0,15.96-8.54,27.72-30.1,27.72h-52.64v-16.52h53.2c8.96,0,13.02-4.9,13.02-11.76,0-6.16-3.22-11.76-14.84-11.76h-21.98c-25.2,0-31.08-14.14-31.08-27.3,0-15.68,8.4-27.16,29.4-27.16h47.88Z"/>
      <path class="cls-8" d="m298.33,192.93v16.52h-48.44c-8.54,0-12.32,4.62-12.32,11.2,0,5.74,2.94,11.2,14,11.2h22.12c25.76,0,31.78,14.28,31.78,27.86,0,15.96-8.54,27.72-30.1,27.72h-52.64v-16.52h53.2c8.96,0,13.02-4.9,13.02-11.76,0-6.16-3.22-11.76-14.84-11.76h-21.98c-25.2,0-31.08-14.14-31.08-27.3,0-15.68,8.4-27.16,29.4-27.16h47.88Z"/>
      <path class="cls-8" d="m391.43,192.93v16.52h-47.32c-9.94,0-14.28,4.62-14.28,11.9,0,7.7,4.9,11.2,14.42,11.2h46.48v14.98h-46.9c-9.52,0-14.42,3.78-14.42,11.48s4.62,11.9,14.28,11.9h47.88v16.52h-47.88c-22.4,0-31.5-11.06-31.5-25.76,0-10.78,4.9-18.06,13.58-21.7-8.82-3.64-13.3-10.92-13.3-21.28,0-15.12,9.38-25.76,31.64-25.76h47.32Z"/>
      <path class="cls-8" d="m469.55,192.93v16.52h-27.58v77.98h-16.66v-77.98h-27.58v-16.52h71.82Z"/>
    </g>
  </g>
</svg>