<?xml version="1.0" encoding="utf-8" standalone="no"?>
<!DOCTYPE svg PUBLIC "-//W3C//DTD SVG 1.1//EN"
  "http://www.w3.org/Graphics/SVG/1.1/DTD/svg11.dtd">
<!-- Created with matplotlib (https://matplotlib.org/) -->
<svg height="576pt" version="1.1" viewBox="0 0 864 576" width="864pt" xmlns="http://www.w3.org/2000/svg" xmlns:xlink="http://www.w3.org/1999/xlink">
 <metadata>
  <rdf:RDF xmlns:cc="http://creativecommons.org/ns#" xmlns:dc="http://purl.org/dc/elements/1.1/" xmlns:rdf="http://www.w3.org/1999/02/22-rdf-syntax-ns#">
   <cc:Work>
    <dc:type rdf:resource="http://purl.org/dc/dcmitype/StillImage"/>
    <dc:date>2022-12-14T12:35:29.941245</dc:date>
    <dc:format>image/svg+xml</dc:format>
    <dc:creator>
     <cc:Agent>
      <dc:title>Matplotlib v3.3.4, https://matplotlib.org/</dc:title>
     </cc:Agent>
    </dc:creator>
   </cc:Work>
  </rdf:RDF>
 </metadata>
 <defs>
  <style type="text/css">*{stroke-linecap:butt;stroke-linejoin:round;}</style>
 </defs>
 <g id="figure_1">
  <g id="patch_1">
   <path d="M 0 576 
L 864 576 
L 864 0 
L 0 0 
z
" style="fill:#ffffff;"/>
  </g>
  <g id="axes_1">
   <g id="patch_2">
    <path d="M 47.81 258.48 
L 853.2 258.48 
L 853.2 10.8 
L 47.81 10.8 
z
" style="fill:#ffffff;"/>
   </g>
   <g id="matplotlib.axis_1">
    <g id="xtick_1">
     <g id="line2d_1">
      <path clip-path="url(#pd59e03a059)" d="M 84.418636 258.48 
L 84.418636 10.8 
" style="fill:none;stroke:#b0b0b0;stroke-linecap:square;stroke-width:0.8;"/>
     </g>
     <g id="line2d_2">
      <defs>
       <path d="M 0 0 
L 0 3.5 
" id="md22bd605e2" style="stroke:#000000;stroke-width:0.8;"/>
      </defs>
      <g>
       <use style="stroke:#000000;stroke-width:0.8;" x="84.418636" xlink:href="#md22bd605e2" y="258.48"/>
      </g>
     </g>
     <g id="text_1">
      <!-- 0 -->
      <g transform="translate(81.237386 273.078438)scale(0.1 -0.1)">
       <defs>
        <path d="M 31.78125 66.40625 
Q 24.171875 66.40625 20.328125 58.90625 
Q 16.5 51.421875 16.5 36.375 
Q 16.5 21.390625 20.328125 13.890625 
Q 24.171875 6.390625 31.78125 6.390625 
Q 39.453125 6.390625 43.28125 13.890625 
Q 47.125 21.390625 47.125 36.375 
Q 47.125 51.421875 43.28125 58.90625 
Q 39.453125 66.40625 31.78125 66.40625 
z
M 31.78125 74.21875 
Q 44.046875 74.21875 50.515625 64.515625 
Q 56.984375 54.828125 56.984375 36.375 
Q 56.984375 17.96875 50.515625 8.265625 
Q 44.046875 -1.421875 31.78125 -1.421875 
Q 19.53125 -1.421875 13.0625 8.265625 
Q 6.59375 17.96875 6.59375 36.375 
Q 6.59375 54.828125 13.0625 64.515625 
Q 19.53125 74.21875 31.78125 74.21875 
z
" id="DejaVuSans-48"/>
       </defs>
       <use xlink:href="#DejaVuSans-48"/>
      </g>
     </g>
    </g>
    <g id="xtick_2">
     <g id="line2d_3">
      <path clip-path="url(#pd59e03a059)" d="M 262.769704 258.48 
L 262.769704 10.8 
" style="fill:none;stroke:#b0b0b0;stroke-linecap:square;stroke-width:0.8;"/>
     </g>
     <g id="line2d_4">
      <g>
       <use style="stroke:#000000;stroke-width:0.8;" x="262.769704" xlink:href="#md22bd605e2" y="258.48"/>
      </g>
     </g>
     <g id="text_2">
      <!-- 5 -->
      <g transform="translate(259.588454 273.078438)scale(0.1 -0.1)">
       <defs>
        <path d="M 10.796875 72.90625 
L 49.515625 72.90625 
L 49.515625 64.59375 
L 19.828125 64.59375 
L 19.828125 46.734375 
Q 21.96875 47.46875 24.109375 47.828125 
Q 26.265625 48.1875 28.421875 48.1875 
Q 40.625 48.1875 47.75 41.5 
Q 54.890625 34.8125 54.890625 23.390625 
Q 54.890625 11.625 47.5625 5.09375 
Q 40.234375 -1.421875 26.90625 -1.421875 
Q 22.3125 -1.421875 17.546875 -0.640625 
Q 12.796875 0.140625 7.71875 1.703125 
L 7.71875 11.625 
Q 12.109375 9.234375 16.796875 8.0625 
Q 21.484375 6.890625 26.703125 6.890625 
Q 35.15625 6.890625 40.078125 11.328125 
Q 45.015625 15.765625 45.015625 23.390625 
Q 45.015625 31 40.078125 35.4375 
Q 35.15625 39.890625 26.703125 39.890625 
Q 22.75 39.890625 18.8125 39.015625 
Q 14.890625 38.140625 10.796875 36.28125 
z
" id="DejaVuSans-53"/>
       </defs>
       <use xlink:href="#DejaVuSans-53"/>
      </g>
     </g>
    </g>
    <g id="xtick_3">
     <g id="line2d_5">
      <path clip-path="url(#pd59e03a059)" d="M 441.120772 258.48 
L 441.120772 10.8 
" style="fill:none;stroke:#b0b0b0;stroke-linecap:square;stroke-width:0.8;"/>
     </g>
     <g id="line2d_6">
      <g>
       <use style="stroke:#000000;stroke-width:0.8;" x="441.120772" xlink:href="#md22bd605e2" y="258.48"/>
      </g>
     </g>
     <g id="text_3">
      <!-- 10 -->
      <g transform="translate(434.758272 273.078438)scale(0.1 -0.1)">
       <defs>
        <path d="M 12.40625 8.296875 
L 28.515625 8.296875 
L 28.515625 63.921875 
L 10.984375 60.40625 
L 10.984375 69.390625 
L 28.421875 72.90625 
L 38.28125 72.90625 
L 38.28125 8.296875 
L 54.390625 8.296875 
L 54.390625 0 
L 12.40625 0 
z
" id="DejaVuSans-49"/>
       </defs>
       <use xlink:href="#DejaVuSans-49"/>
       <use x="63.623047" xlink:href="#DejaVuSans-48"/>
      </g>
     </g>
    </g>
    <g id="xtick_4">
     <g id="line2d_7">
      <path clip-path="url(#pd59e03a059)" d="M 619.47184 258.48 
L 619.47184 10.8 
" style="fill:none;stroke:#b0b0b0;stroke-linecap:square;stroke-width:0.8;"/>
     </g>
     <g id="line2d_8">
      <g>
       <use style="stroke:#000000;stroke-width:0.8;" x="619.47184" xlink:href="#md22bd605e2" y="258.48"/>
      </g>
     </g>
     <g id="text_4">
      <!-- 15 -->
      <g transform="translate(613.10934 273.078438)scale(0.1 -0.1)">
       <use xlink:href="#DejaVuSans-49"/>
       <use x="63.623047" xlink:href="#DejaVuSans-53"/>
      </g>
     </g>
    </g>
    <g id="xtick_5">
     <g id="line2d_9">
      <path clip-path="url(#pd59e03a059)" d="M 797.822907 258.48 
L 797.822907 10.8 
" style="fill:none;stroke:#b0b0b0;stroke-linecap:square;stroke-width:0.8;"/>
     </g>
     <g id="line2d_10">
      <g>
       <use style="stroke:#000000;stroke-width:0.8;" x="797.822907" xlink:href="#md22bd605e2" y="258.48"/>
      </g>
     </g>
     <g id="text_5">
      <!-- 20 -->
      <g transform="translate(791.460407 273.078438)scale(0.1 -0.1)">
       <defs>
        <path d="M 19.1875 8.296875 
L 53.609375 8.296875 
L 53.609375 0 
L 7.328125 0 
L 7.328125 8.296875 
Q 12.9375 14.109375 22.625 23.890625 
Q 32.328125 33.6875 34.8125 36.53125 
Q 39.546875 41.84375 41.421875 45.53125 
Q 43.3125 49.21875 43.3125 52.78125 
Q 43.3125 58.59375 39.234375 62.25 
Q 35.15625 65.921875 28.609375 65.921875 
Q 23.96875 65.921875 18.8125 64.3125 
Q 13.671875 62.703125 7.8125 59.421875 
L 7.8125 69.390625 
Q 13.765625 71.78125 18.9375 73 
Q 24.125 74.21875 28.421875 74.21875 
Q 39.75 74.21875 46.484375 68.546875 
Q 53.21875 62.890625 53.21875 53.421875 
Q 53.21875 48.921875 51.53125 44.890625 
Q 49.859375 40.875 45.40625 35.40625 
Q 44.1875 33.984375 37.640625 27.21875 
Q 31.109375 20.453125 19.1875 8.296875 
z
" id="DejaVuSans-50"/>
       </defs>
       <use xlink:href="#DejaVuSans-50"/>
       <use x="63.623047" xlink:href="#DejaVuSans-48"/>
      </g>
     </g>
    </g>
   </g>
   <g id="matplotlib.axis_2">
    <g id="ytick_1">
     <g id="line2d_11">
      <path clip-path="url(#pd59e03a059)" d="M 47.81 247.221818 
L 853.2 247.221818 
" style="fill:none;stroke:#b0b0b0;stroke-linecap:square;stroke-width:0.8;"/>
     </g>
     <g id="line2d_12">
      <defs>
       <path d="M 0 0 
L -3.5 0 
" id="m6960aeed70" style="stroke:#000000;stroke-width:0.8;"/>
      </defs>
      <g>
       <use style="stroke:#000000;stroke-width:0.8;" x="47.81" xlink:href="#m6960aeed70" y="247.221818"/>
      </g>
     </g>
     <g id="text_6">
      <!-- 0.0 -->
      <g transform="translate(24.906875 251.021037)scale(0.1 -0.1)">
       <defs>
        <path d="M 10.6875 12.40625 
L 21 12.40625 
L 21 0 
L 10.6875 0 
z
" id="DejaVuSans-46"/>
       </defs>
       <use xlink:href="#DejaVuSans-48"/>
       <use x="63.623047" xlink:href="#DejaVuSans-46"/>
       <use x="95.410156" xlink:href="#DejaVuSans-48"/>
      </g>
     </g>
    </g>
    <g id="ytick_2">
     <g id="line2d_13">
      <path clip-path="url(#pd59e03a059)" d="M 47.81 211.385912 
L 853.2 211.385912 
" style="fill:none;stroke:#b0b0b0;stroke-linecap:square;stroke-width:0.8;"/>
     </g>
     <g id="line2d_14">
      <g>
       <use style="stroke:#000000;stroke-width:0.8;" x="47.81" xlink:href="#m6960aeed70" y="211.385912"/>
      </g>
     </g>
     <g id="text_7">
      <!-- 0.5 -->
      <g transform="translate(24.906875 215.185131)scale(0.1 -0.1)">
       <use xlink:href="#DejaVuSans-48"/>
       <use x="63.623047" xlink:href="#DejaVuSans-46"/>
       <use x="95.410156" xlink:href="#DejaVuSans-53"/>
      </g>
     </g>
    </g>
    <g id="ytick_3">
     <g id="line2d_15">
      <path clip-path="url(#pd59e03a059)" d="M 47.81 175.550007 
L 853.2 175.550007 
" style="fill:none;stroke:#b0b0b0;stroke-linecap:square;stroke-width:0.8;"/>
     </g>
     <g id="line2d_16">
      <g>
       <use style="stroke:#000000;stroke-width:0.8;" x="47.81" xlink:href="#m6960aeed70" y="175.550007"/>
      </g>
     </g>
     <g id="text_8">
      <!-- 1.0 -->
      <g transform="translate(24.906875 179.349225)scale(0.1 -0.1)">
       <use xlink:href="#DejaVuSans-49"/>
       <use x="63.623047" xlink:href="#DejaVuSans-46"/>
       <use x="95.410156" xlink:href="#DejaVuSans-48"/>
      </g>
     </g>
    </g>
    <g id="ytick_4">
     <g id="line2d_17">
      <path clip-path="url(#pd59e03a059)" d="M 47.81 139.714101 
L 853.2 139.714101 
" style="fill:none;stroke:#b0b0b0;stroke-linecap:square;stroke-width:0.8;"/>
     </g>
     <g id="line2d_18">
      <g>
       <use style="stroke:#000000;stroke-width:0.8;" x="47.81" xlink:href="#m6960aeed70" y="139.714101"/>
      </g>
     </g>
     <g id="text_9">
      <!-- 1.5 -->
      <g transform="translate(24.906875 143.51332)scale(0.1 -0.1)">
       <use xlink:href="#DejaVuSans-49"/>
       <use x="63.623047" xlink:href="#DejaVuSans-46"/>
       <use x="95.410156" xlink:href="#DejaVuSans-53"/>
      </g>
     </g>
    </g>
    <g id="ytick_5">
     <g id="line2d_19">
      <path clip-path="url(#pd59e03a059)" d="M 47.81 103.878195 
L 853.2 103.878195 
" style="fill:none;stroke:#b0b0b0;stroke-linecap:square;stroke-width:0.8;"/>
     </g>
     <g id="line2d_20">
      <g>
       <use style="stroke:#000000;stroke-width:0.8;" x="47.81" xlink:href="#m6960aeed70" y="103.878195"/>
      </g>
     </g>
     <g id="text_10">
      <!-- 2.0 -->
      <g transform="translate(24.906875 107.677414)scale(0.1 -0.1)">
       <use xlink:href="#DejaVuSans-50"/>
       <use x="63.623047" xlink:href="#DejaVuSans-46"/>
       <use x="95.410156" xlink:href="#DejaVuSans-48"/>
      </g>
     </g>
    </g>
    <g id="ytick_6">
     <g id="line2d_21">
      <path clip-path="url(#pd59e03a059)" d="M 47.81 68.04229 
L 853.2 68.04229 
" style="fill:none;stroke:#b0b0b0;stroke-linecap:square;stroke-width:0.8;"/>
     </g>
     <g id="line2d_22">
      <g>
       <use style="stroke:#000000;stroke-width:0.8;" x="47.81" xlink:href="#m6960aeed70" y="68.04229"/>
      </g>
     </g>
     <g id="text_11">
      <!-- 2.5 -->
      <g transform="translate(24.906875 71.841508)scale(0.1 -0.1)">
       <use xlink:href="#DejaVuSans-50"/>
       <use x="63.623047" xlink:href="#DejaVuSans-46"/>
       <use x="95.410156" xlink:href="#DejaVuSans-53"/>
      </g>
     </g>
    </g>
    <g id="ytick_7">
     <g id="line2d_23">
      <path clip-path="url(#pd59e03a059)" d="M 47.81 32.206384 
L 853.2 32.206384 
" style="fill:none;stroke:#b0b0b0;stroke-linecap:square;stroke-width:0.8;"/>
     </g>
     <g id="line2d_24">
      <g>
       <use style="stroke:#000000;stroke-width:0.8;" x="47.81" xlink:href="#m6960aeed70" y="32.206384"/>
      </g>
     </g>
     <g id="text_12">
      <!-- 3.0 -->
      <g transform="translate(24.906875 36.005603)scale(0.1 -0.1)">
       <defs>
        <path d="M 40.578125 39.3125 
Q 47.65625 37.796875 51.625 33 
Q 55.609375 28.21875 55.609375 21.1875 
Q 55.609375 10.40625 48.1875 4.484375 
Q 40.765625 -1.421875 27.09375 -1.421875 
Q 22.515625 -1.421875 17.65625 -0.515625 
Q 12.796875 0.390625 7.625 2.203125 
L 7.625 11.71875 
Q 11.71875 9.328125 16.59375 8.109375 
Q 21.484375 6.890625 26.8125 6.890625 
Q 36.078125 6.890625 40.9375 10.546875 
Q 45.796875 14.203125 45.796875 21.1875 
Q 45.796875 27.640625 41.28125 31.265625 
Q 36.765625 34.90625 28.71875 34.90625 
L 20.21875 34.90625 
L 20.21875 43.015625 
L 29.109375 43.015625 
Q 36.375 43.015625 40.234375 45.921875 
Q 44.09375 48.828125 44.09375 54.296875 
Q 44.09375 59.90625 40.109375 62.90625 
Q 36.140625 65.921875 28.71875 65.921875 
Q 24.65625 65.921875 20.015625 65.03125 
Q 15.375 64.15625 9.8125 62.3125 
L 9.8125 71.09375 
Q 15.4375 72.65625 20.34375 73.4375 
Q 25.25 74.21875 29.59375 74.21875 
Q 40.828125 74.21875 47.359375 69.109375 
Q 53.90625 64.015625 53.90625 55.328125 
Q 53.90625 49.265625 50.4375 45.09375 
Q 46.96875 40.921875 40.578125 39.3125 
z
" id="DejaVuSans-51"/>
       </defs>
       <use xlink:href="#DejaVuSans-51"/>
       <use x="63.623047" xlink:href="#DejaVuSans-46"/>
       <use x="95.410156" xlink:href="#DejaVuSans-48"/>
      </g>
     </g>
    </g>
    <g id="text_13">
     <!-- Phase Angle (rad) -->
     <g transform="translate(18.827187 179.17125)rotate(-90)scale(0.1 -0.1)">
      <defs>
       <path d="M 19.671875 64.796875 
L 19.671875 37.40625 
L 32.078125 37.40625 
Q 38.96875 37.40625 42.71875 40.96875 
Q 46.484375 44.53125 46.484375 51.125 
Q 46.484375 57.671875 42.71875 61.234375 
Q 38.96875 64.796875 32.078125 64.796875 
z
M 9.8125 72.90625 
L 32.078125 72.90625 
Q 44.34375 72.90625 50.609375 67.359375 
Q 56.890625 61.8125 56.890625 51.125 
Q 56.890625 40.328125 50.609375 34.8125 
Q 44.34375 29.296875 32.078125 29.296875 
L 19.671875 29.296875 
L 19.671875 0 
L 9.8125 0 
z
" id="DejaVuSans-80"/>
       <path d="M 54.890625 33.015625 
L 54.890625 0 
L 45.90625 0 
L 45.90625 32.71875 
Q 45.90625 40.484375 42.875 44.328125 
Q 39.84375 48.1875 33.796875 48.1875 
Q 26.515625 48.1875 22.3125 43.546875 
Q 18.109375 38.921875 18.109375 30.90625 
L 18.109375 0 
L 9.078125 0 
L 9.078125 75.984375 
L 18.109375 75.984375 
L 18.109375 46.1875 
Q 21.34375 51.125 25.703125 53.5625 
Q 30.078125 56 35.796875 56 
Q 45.21875 56 50.046875 50.171875 
Q 54.890625 44.34375 54.890625 33.015625 
z
" id="DejaVuSans-104"/>
       <path d="M 34.28125 27.484375 
Q 23.390625 27.484375 19.1875 25 
Q 14.984375 22.515625 14.984375 16.5 
Q 14.984375 11.71875 18.140625 8.90625 
Q 21.296875 6.109375 26.703125 6.109375 
Q 34.1875 6.109375 38.703125 11.40625 
Q 43.21875 16.703125 43.21875 25.484375 
L 43.21875 27.484375 
z
M 52.203125 31.203125 
L 52.203125 0 
L 43.21875 0 
L 43.21875 8.296875 
Q 40.140625 3.328125 35.546875 0.953125 
Q 30.953125 -1.421875 24.3125 -1.421875 
Q 15.921875 -1.421875 10.953125 3.296875 
Q 6 8.015625 6 15.921875 
Q 6 25.140625 12.171875 29.828125 
Q 18.359375 34.515625 30.609375 34.515625 
L 43.21875 34.515625 
L 43.21875 35.40625 
Q 43.21875 41.609375 39.140625 45 
Q 35.0625 48.390625 27.6875 48.390625 
Q 23 48.390625 18.546875 47.265625 
Q 14.109375 46.140625 10.015625 43.890625 
L 10.015625 52.203125 
Q 14.9375 54.109375 19.578125 55.046875 
Q 24.21875 56 28.609375 56 
Q 40.484375 56 46.34375 49.84375 
Q 52.203125 43.703125 52.203125 31.203125 
z
" id="DejaVuSans-97"/>
       <path d="M 44.28125 53.078125 
L 44.28125 44.578125 
Q 40.484375 46.53125 36.375 47.5 
Q 32.28125 48.484375 27.875 48.484375 
Q 21.1875 48.484375 17.84375 46.4375 
Q 14.5 44.390625 14.5 40.28125 
Q 14.5 37.15625 16.890625 35.375 
Q 19.28125 33.59375 26.515625 31.984375 
L 29.59375 31.296875 
Q 39.15625 29.25 43.1875 25.515625 
Q 47.21875 21.78125 47.21875 15.09375 
Q 47.21875 7.46875 41.1875 3.015625 
Q 35.15625 -1.421875 24.609375 -1.421875 
Q 20.21875 -1.421875 15.453125 -0.5625 
Q 10.6875 0.296875 5.421875 2 
L 5.421875 11.28125 
Q 10.40625 8.6875 15.234375 7.390625 
Q 20.0625 6.109375 24.8125 6.109375 
Q 31.15625 6.109375 34.5625 8.28125 
Q 37.984375 10.453125 37.984375 14.40625 
Q 37.984375 18.0625 35.515625 20.015625 
Q 33.0625 21.96875 24.703125 23.78125 
L 21.578125 24.515625 
Q 13.234375 26.265625 9.515625 29.90625 
Q 5.8125 33.546875 5.8125 39.890625 
Q 5.8125 47.609375 11.28125 51.796875 
Q 16.75 56 26.8125 56 
Q 31.78125 56 36.171875 55.265625 
Q 40.578125 54.546875 44.28125 53.078125 
z
" id="DejaVuSans-115"/>
       <path d="M 56.203125 29.59375 
L 56.203125 25.203125 
L 14.890625 25.203125 
Q 15.484375 15.921875 20.484375 11.0625 
Q 25.484375 6.203125 34.421875 6.203125 
Q 39.59375 6.203125 44.453125 7.46875 
Q 49.3125 8.734375 54.109375 11.28125 
L 54.109375 2.78125 
Q 49.265625 0.734375 44.1875 -0.34375 
Q 39.109375 -1.421875 33.890625 -1.421875 
Q 20.796875 -1.421875 13.15625 6.1875 
Q 5.515625 13.8125 5.515625 26.8125 
Q 5.515625 40.234375 12.765625 48.109375 
Q 20.015625 56 32.328125 56 
Q 43.359375 56 49.78125 48.890625 
Q 56.203125 41.796875 56.203125 29.59375 
z
M 47.21875 32.234375 
Q 47.125 39.59375 43.09375 43.984375 
Q 39.0625 48.390625 32.421875 48.390625 
Q 24.90625 48.390625 20.390625 44.140625 
Q 15.875 39.890625 15.1875 32.171875 
z
" id="DejaVuSans-101"/>
       <path id="DejaVuSans-32"/>
       <path d="M 34.1875 63.1875 
L 20.796875 26.90625 
L 47.609375 26.90625 
z
M 28.609375 72.90625 
L 39.796875 72.90625 
L 67.578125 0 
L 57.328125 0 
L 50.6875 18.703125 
L 17.828125 18.703125 
L 11.1875 0 
L 0.78125 0 
z
" id="DejaVuSans-65"/>
       <path d="M 54.890625 33.015625 
L 54.890625 0 
L 45.90625 0 
L 45.90625 32.71875 
Q 45.90625 40.484375 42.875 44.328125 
Q 39.84375 48.1875 33.796875 48.1875 
Q 26.515625 48.1875 22.3125 43.546875 
Q 18.109375 38.921875 18.109375 30.90625 
L 18.109375 0 
L 9.078125 0 
L 9.078125 54.6875 
L 18.109375 54.6875 
L 18.109375 46.1875 
Q 21.34375 51.125 25.703125 53.5625 
Q 30.078125 56 35.796875 56 
Q 45.21875 56 50.046875 50.171875 
Q 54.890625 44.34375 54.890625 33.015625 
z
" id="DejaVuSans-110"/>
       <path d="M 45.40625 27.984375 
Q 45.40625 37.75 41.375 43.109375 
Q 37.359375 48.484375 30.078125 48.484375 
Q 22.859375 48.484375 18.828125 43.109375 
Q 14.796875 37.75 14.796875 27.984375 
Q 14.796875 18.265625 18.828125 12.890625 
Q 22.859375 7.515625 30.078125 7.515625 
Q 37.359375 7.515625 41.375 12.890625 
Q 45.40625 18.265625 45.40625 27.984375 
z
M 54.390625 6.78125 
Q 54.390625 -7.171875 48.1875 -13.984375 
Q 42 -20.796875 29.203125 -20.796875 
Q 24.46875 -20.796875 20.265625 -20.09375 
Q 16.0625 -19.390625 12.109375 -17.921875 
L 12.109375 -9.1875 
Q 16.0625 -11.328125 19.921875 -12.34375 
Q 23.78125 -13.375 27.78125 -13.375 
Q 36.625 -13.375 41.015625 -8.765625 
Q 45.40625 -4.15625 45.40625 5.171875 
L 45.40625 9.625 
Q 42.625 4.78125 38.28125 2.390625 
Q 33.9375 0 27.875 0 
Q 17.828125 0 11.671875 7.65625 
Q 5.515625 15.328125 5.515625 27.984375 
Q 5.515625 40.671875 11.671875 48.328125 
Q 17.828125 56 27.875 56 
Q 33.9375 56 38.28125 53.609375 
Q 42.625 51.21875 45.40625 46.390625 
L 45.40625 54.6875 
L 54.390625 54.6875 
z
" id="DejaVuSans-103"/>
       <path d="M 9.421875 75.984375 
L 18.40625 75.984375 
L 18.40625 0 
L 9.421875 0 
z
" id="DejaVuSans-108"/>
       <path d="M 31 75.875 
Q 24.46875 64.65625 21.28125 53.65625 
Q 18.109375 42.671875 18.109375 31.390625 
Q 18.109375 20.125 21.3125 9.0625 
Q 24.515625 -2 31 -13.1875 
L 23.1875 -13.1875 
Q 15.875 -1.703125 12.234375 9.375 
Q 8.59375 20.453125 8.59375 31.390625 
Q 8.59375 42.28125 12.203125 53.3125 
Q 15.828125 64.359375 23.1875 75.875 
z
" id="DejaVuSans-40"/>
       <path d="M 41.109375 46.296875 
Q 39.59375 47.171875 37.8125 47.578125 
Q 36.03125 48 33.890625 48 
Q 26.265625 48 22.1875 43.046875 
Q 18.109375 38.09375 18.109375 28.8125 
L 18.109375 0 
L 9.078125 0 
L 9.078125 54.6875 
L 18.109375 54.6875 
L 18.109375 46.1875 
Q 20.953125 51.171875 25.484375 53.578125 
Q 30.03125 56 36.53125 56 
Q 37.453125 56 38.578125 55.875 
Q 39.703125 55.765625 41.0625 55.515625 
z
" id="DejaVuSans-114"/>
       <path d="M 45.40625 46.390625 
L 45.40625 75.984375 
L 54.390625 75.984375 
L 54.390625 0 
L 45.40625 0 
L 45.40625 8.203125 
Q 42.578125 3.328125 38.25 0.953125 
Q 33.9375 -1.421875 27.875 -1.421875 
Q 17.96875 -1.421875 11.734375 6.484375 
Q 5.515625 14.40625 5.515625 27.296875 
Q 5.515625 40.1875 11.734375 48.09375 
Q 17.96875 56 27.875 56 
Q 33.9375 56 38.25 53.625 
Q 42.578125 51.265625 45.40625 46.390625 
z
M 14.796875 27.296875 
Q 14.796875 17.390625 18.875 11.75 
Q 22.953125 6.109375 30.078125 6.109375 
Q 37.203125 6.109375 41.296875 11.75 
Q 45.40625 17.390625 45.40625 27.296875 
Q 45.40625 37.203125 41.296875 42.84375 
Q 37.203125 48.484375 30.078125 48.484375 
Q 22.953125 48.484375 18.875 42.84375 
Q 14.796875 37.203125 14.796875 27.296875 
z
" id="DejaVuSans-100"/>
       <path d="M 8.015625 75.875 
L 15.828125 75.875 
Q 23.140625 64.359375 26.78125 53.3125 
Q 30.421875 42.28125 30.421875 31.390625 
Q 30.421875 20.453125 26.78125 9.375 
Q 23.140625 -1.703125 15.828125 -13.1875 
L 8.015625 -13.1875 
Q 14.5 -2 17.703125 9.0625 
Q 20.90625 20.125 20.90625 31.390625 
Q 20.90625 42.671875 17.703125 53.65625 
Q 14.5 64.65625 8.015625 75.875 
z
" id="DejaVuSans-41"/>
      </defs>
      <use xlink:href="#DejaVuSans-80"/>
      <use x="60.302734" xlink:href="#DejaVuSans-104"/>
      <use x="123.681641" xlink:href="#DejaVuSans-97"/>
      <use x="184.960938" xlink:href="#DejaVuSans-115"/>
      <use x="237.060547" xlink:href="#DejaVuSans-101"/>
      <use x="298.583984" xlink:href="#DejaVuSans-32"/>
      <use x="330.371094" xlink:href="#DejaVuSans-65"/>
      <use x="398.779297" xlink:href="#DejaVuSans-110"/>
      <use x="462.158203" xlink:href="#DejaVuSans-103"/>
      <use x="525.634766" xlink:href="#DejaVuSans-108"/>
      <use x="553.417969" xlink:href="#DejaVuSans-101"/>
      <use x="614.941406" xlink:href="#DejaVuSans-32"/>
      <use x="646.728516" xlink:href="#DejaVuSans-40"/>
      <use x="685.742188" xlink:href="#DejaVuSans-114"/>
      <use x="726.855469" xlink:href="#DejaVuSans-97"/>
      <use x="788.134766" xlink:href="#DejaVuSans-100"/>
      <use x="851.611328" xlink:href="#DejaVuSans-41"/>
     </g>
    </g>
   </g>
   <g id="line2d_25">
    <path clip-path="url(#pd59e03a059)" d="M 84.418636 247.221818 
L 816.591364 247.221818 
L 816.591364 247.221818 
" style="fill:none;stroke:#303bc1;stroke-linecap:square;stroke-width:1.5;"/>
   </g>
   <g id="line2d_26">
    <path clip-path="url(#pd59e03a059)" d="M 84.418636 222.203636 
L 172.279364 222.281126 
L 201.566273 222.579664 
L 230.853182 223.137807 
L 274.783545 224.285278 
L 323.595061 225.479808 
L 362.644273 226.483721 
L 382.168879 227.194755 
L 401.693485 228.146889 
L 421.218091 229.37145 
L 440.742697 230.856091 
L 460.267303 232.585613 
L 523.722273 238.54379 
L 543.246879 239.964128 
L 562.771485 241.133345 
L 587.177242 242.337519 
L 621.345303 243.77029 
L 665.275667 245.395482 
L 694.562576 246.256568 
L 718.968333 246.75987 
L 743.374091 247.059478 
L 772.661 247.205519 
L 816.591364 247.221817 
L 816.591364 247.221817 
" style="fill:none;stroke:#4039b5;stroke-linecap:square;stroke-width:1.5;"/>
   </g>
   <g id="line2d_27">
    <path clip-path="url(#pd59e03a059)" d="M 84.418636 197.185455 
L 172.279364 197.284295 
L 191.80397 197.571256 
L 211.328576 198.062788 
L 230.853182 198.760302 
L 260.140091 200.073987 
L 304.070455 202.070769 
L 357.763121 204.372834 
L 372.406576 205.231338 
L 387.05003 206.314401 
L 401.693485 207.698715 
L 411.455788 208.815781 
L 421.218091 210.099122 
L 430.980394 211.54896 
L 445.623848 214.012315 
L 460.267303 216.757337 
L 484.673061 221.666595 
L 504.197667 225.515777 
L 518.841121 228.137748 
L 533.484576 230.443735 
L 548.12803 232.419704 
L 562.771485 234.09877 
L 577.414939 235.54412 
L 596.939545 237.238288 
L 655.513364 241.93124 
L 679.919121 243.782058 
L 699.443727 245.055249 
L 714.087182 245.826539 
L 728.730636 246.417316 
L 743.374091 246.828262 
L 762.898697 247.131499 
L 782.423303 247.211714 
L 816.591364 247.221817 
L 816.591364 247.221817 
" style="fill:none;stroke:#5036a8;stroke-linecap:square;stroke-width:1.5;"/>
   </g>
   <g id="line2d_28">
    <path clip-path="url(#pd59e03a059)" d="M 84.418636 172.167273 
L 147.873606 172.223243 
L 167.398212 172.572808 
L 182.041667 173.058662 
L 196.685121 173.765289 
L 211.328576 174.691886 
L 225.97203 175.813345 
L 245.496636 177.548493 
L 269.902394 179.974258 
L 299.189303 183.111645 
L 323.595061 185.945775 
L 343.119667 188.474504 
L 357.763121 190.599495 
L 372.406576 192.97202 
L 387.05003 195.624264 
L 401.693485 198.56584 
L 416.336939 201.774407 
L 435.861545 206.361873 
L 474.910758 215.729251 
L 489.554212 219.00573 
L 504.197667 222.014591 
L 518.841121 224.701839 
L 533.484576 227.067925 
L 548.12803 229.158175 
L 567.652636 231.637877 
L 596.939545 235.034354 
L 640.869909 239.902363 
L 660.394515 241.885586 
L 679.919121 243.617604 
L 694.562576 244.699536 
L 709.20603 245.573096 
L 723.849485 246.235725 
L 738.492939 246.701987 
L 758.017545 247.065052 
L 782.423303 247.219741 
L 816.591364 247.221817 
L 816.591364 247.221817 
" style="fill:none;stroke:#60349c;stroke-linecap:square;stroke-width:1.5;"/>
   </g>
   <g id="line2d_29">
    <path clip-path="url(#pd59e03a059)" d="M 84.418636 147.149091 
L 138.111303 147.207603 
L 152.754758 147.533573 
L 162.517061 147.913811 
L 172.279364 148.45234 
L 182.041667 149.167361 
L 191.80397 150.070006 
L 201.566273 151.163022 
L 211.328576 152.440037 
L 221.090879 153.885541 
L 235.734333 156.315766 
L 255.258939 159.875703 
L 294.308152 167.134211 
L 318.713909 171.379079 
L 352.88197 177.239899 
L 367.525424 179.959115 
L 382.168879 182.936257 
L 391.931182 185.098589 
L 401.693485 187.416072 
L 416.336939 191.180839 
L 430.980394 195.244787 
L 450.505 200.951515 
L 474.910758 208.102585 
L 489.554212 212.160172 
L 499.316515 214.688856 
L 509.078818 217.044368 
L 518.841121 219.215388 
L 528.603424 221.205638 
L 543.246879 223.889775 
L 557.890333 226.290757 
L 577.414939 229.215714 
L 616.464152 234.736798 
L 645.751061 238.722319 
L 665.275667 241.140468 
L 679.919121 242.733851 
L 694.562576 244.088686 
L 709.20603 245.181921 
L 723.849485 246.006931 
L 738.492939 246.582735 
L 753.136394 246.946998 
L 772.661 247.181623 
L 797.066758 247.208684 
L 816.591364 247.221817 
L 816.591364 247.221817 
" style="fill:none;stroke:#70318f;stroke-linecap:square;stroke-width:1.5;"/>
   </g>
   <g id="line2d_30">
    <path clip-path="url(#pd59e03a059)" d="M 84.418636 122.130909 
L 138.111303 122.177579 
L 152.754758 122.522072 
L 162.517061 122.935439 
L 172.279364 123.531041 
L 182.041667 124.333667 
L 191.80397 125.360807 
L 201.566273 126.620655 
L 211.328576 128.110597 
L 221.090879 129.816432 
L 230.853182 131.712606 
L 245.496636 134.834034 
L 269.902394 140.403588 
L 289.427 144.804892 
L 304.070455 147.927162 
L 323.595061 151.837437 
L 357.763121 158.577803 
L 372.406576 161.796372 
L 382.168879 164.160516 
L 391.931182 166.736751 
L 401.693485 169.542987 
L 411.455788 172.581118 
L 421.218091 175.835313 
L 430.980394 179.27668 
L 445.623848 184.706302 
L 494.435364 203.182543 
L 504.197667 206.543362 
L 513.95997 209.666419 
L 523.722273 212.525636 
L 533.484576 215.118074 
L 543.246879 217.457921 
L 553.009182 219.568377 
L 562.771485 221.480732 
L 577.414939 224.062111 
L 596.939545 227.184166 
L 631.107606 232.577689 
L 675.03797 239.686489 
L 689.681424 241.753844 
L 704.324879 243.523745 
L 714.087182 244.511026 
L 723.849485 245.334235 
L 733.611788 245.99349 
L 743.374091 246.493854 
L 758.017545 246.97711 
L 772.661 247.201785 
L 816.591364 247.221817 
L 816.591364 247.221817 
" style="fill:none;stroke:#802f83;stroke-linecap:square;stroke-width:1.5;"/>
   </g>
   <g id="line2d_31">
    <path clip-path="url(#pd59e03a059)" d="M 84.418636 97.112727 
L 113.705545 96.97266 
L 133.230152 96.948525 
L 147.873606 97.197009 
L 157.635909 97.579118 
L 167.398212 98.187082 
L 177.160515 99.058842 
L 186.922818 100.222447 
L 196.685121 101.693434 
L 206.447424 103.47294 
L 216.209727 105.54676 
L 225.97203 107.885558 
L 235.734333 110.446397 
L 250.377788 114.584629 
L 289.427 125.946322 
L 304.070455 129.879482 
L 318.713909 133.542174 
L 338.238515 138.128918 
L 357.763121 142.722993 
L 367.525424 145.179647 
L 377.287727 147.830891 
L 387.05003 150.735616 
L 396.812333 153.940027 
L 406.574636 157.472603 
L 416.336939 161.340214 
L 426.099242 165.526068 
L 435.861545 169.990037 
L 445.623848 174.671583 
L 465.148455 184.375365 
L 479.791909 191.606919 
L 489.554212 196.236683 
L 499.316515 200.612193 
L 509.078818 204.660779 
L 518.841121 208.332483 
L 528.603424 211.604464 
L 538.365727 214.47942 
L 548.12803 216.979612 
L 557.890333 219.142381 
L 567.652636 221.018454 
L 577.414939 222.668901 
L 592.058394 224.869254 
L 626.226455 229.825557 
L 640.869909 232.22002 
L 660.394515 235.710539 
L 684.800273 240.151296 
L 699.443727 242.539743 
L 709.20603 243.908875 
L 718.968333 245.055568 
L 728.730636 245.959674 
L 738.492939 246.619184 
L 748.255242 247.051371 
L 753.136394 247.193151 
L 777.542152 247.027956 
L 816.591364 247.221817 
L 816.591364 247.221817 
" style="fill:none;stroke:#8f2d78;stroke-linecap:square;stroke-width:1.5;"/>
   </g>
   <g id="line2d_32">
    <path clip-path="url(#pd59e03a059)" d="M 84.418636 72.094545 
L 108.824394 71.982015 
L 133.230152 71.924755 
L 142.992455 72.060942 
L 152.754758 72.362209 
L 162.517061 72.876719 
L 172.279364 73.646938 
L 182.041667 74.706477 
L 191.80397 76.077391 
L 201.566273 77.768134 
L 211.328576 79.772368 
L 221.090879 82.068801 
L 230.853182 84.622212 
L 240.615485 87.385779 
L 255.258939 91.804062 
L 299.189303 105.341323 
L 318.713909 110.947699 
L 357.763121 121.944859 
L 367.525424 124.932388 
L 377.287727 128.129271 
L 387.05003 131.585028 
L 396.812333 135.336887 
L 406.574636 139.405463 
L 416.336939 143.791526 
L 426.099242 148.474405 
L 435.861545 153.412513 
L 450.505 161.164241 
L 479.791909 176.956556 
L 489.554212 182.006494 
L 499.316515 186.819344 
L 509.078818 191.335232 
L 518.841121 195.516478 
L 528.603424 199.349747 
L 538.365727 202.844704 
L 548.12803 206.030032 
L 557.890333 208.94773 
L 567.652636 211.647392 
L 582.296091 215.402908 
L 601.820697 220.12011 
L 675.03797 237.453852 
L 684.800273 239.47574 
L 694.562576 241.306851 
L 704.324879 242.912599 
L 714.087182 244.268795 
L 723.849485 245.363825 
L 733.611788 246.199675 
L 743.374091 246.791839 
L 753.136394 247.168127 
L 797.066758 247.139997 
L 816.591364 247.221817 
L 816.591364 247.221817 
" style="fill:none;stroke:#9f2a6b;stroke-linecap:square;stroke-width:1.5;"/>
   </g>
   <g id="line2d_33">
    <path clip-path="url(#pd59e03a059)" d="M 84.418636 47.076364 
L 108.824394 46.954096 
L 128.349 46.866208 
L 142.992455 47.030706 
L 152.754758 47.348224 
L 162.517061 47.891924 
L 172.279364 48.706785 
L 182.041667 49.828444 
L 191.80397 51.280481 
L 201.566273 53.072457 
L 211.328576 55.198835 
L 221.090879 57.638935 
L 230.853182 60.358076 
L 240.615485 63.309974 
L 255.258939 68.054391 
L 279.664697 76.336805 
L 299.189303 82.899933 
L 318.713909 89.250625 
L 348.000818 98.708035 
L 362.644273 103.731247 
L 372.406576 107.314776 
L 382.168879 111.14612 
L 391.931182 115.265828 
L 401.693485 119.699464 
L 411.455788 124.454141 
L 421.218091 129.516222 
L 430.980394 134.850818 
L 440.742697 140.403569 
L 460.267303 151.875457 
L 479.791909 163.294474 
L 489.554212 168.780145 
L 499.316515 174.018337 
L 509.078818 178.954989 
L 518.841121 183.560343 
L 528.603424 187.83063 
L 538.365727 191.785218 
L 548.12803 195.460869 
L 557.890333 198.905438 
L 572.533788 203.755984 
L 592.058394 209.905051 
L 635.988758 223.670605 
L 655.513364 229.728868 
L 670.156818 234.002901 
L 679.919121 236.626101 
L 689.681424 239.009986 
L 699.443727 241.113225 
L 709.20603 242.906543 
L 718.968333 244.375352 
L 728.730636 245.520986 
L 738.492939 246.360526 
L 748.255242 246.925278 
L 753.136394 247.117597 
L 758.017545 247.185571 
L 772.661 247.009483 
L 792.185606 247.096452 
L 816.591364 247.221817 
L 816.591364 247.221817 
" style="fill:none;stroke:#af285f;stroke-linecap:square;stroke-width:1.5;"/>
   </g>
   <g id="line2d_34">
    <path clip-path="url(#pd59e03a059)" d="M 84.418636 22.058182 
L 108.824394 22.195034 
L 128.349 22.309626 
L 142.992455 22.160808 
L 147.873606 22.087481 
L 157.635909 22.517629 
L 167.398212 23.213755 
L 177.160515 24.221742 
L 186.922818 25.576369 
L 196.685121 27.29867 
L 206.447424 29.39416 
L 216.209727 31.852108 
L 225.97203 34.64598 
L 235.734333 37.73518 
L 245.496636 41.068083 
L 260.140091 46.395773 
L 284.545848 55.67012 
L 308.951606 64.8791 
L 352.88197 81.272421 
L 362.644273 85.15939 
L 372.406576 89.259748 
L 382.168879 93.632667 
L 391.931182 98.32942 
L 401.693485 103.386494 
L 411.455788 108.817732 
L 421.218091 114.608168 
L 430.980394 120.712279 
L 440.742697 127.0567 
L 470.029606 146.416589 
L 479.791909 152.626658 
L 489.554212 158.588875 
L 499.316515 164.250256 
L 509.078818 169.577847 
L 518.841121 174.561537 
L 528.603424 179.213104 
L 538.365727 183.562614 
L 548.12803 187.653645 
L 557.890333 191.538114 
L 572.533788 197.097714 
L 606.701848 209.643484 
L 650.632212 225.791503 
L 660.394515 229.195957 
L 670.156818 232.421146 
L 679.919121 235.408774 
L 689.681424 238.105987 
L 699.443727 240.470282 
L 709.20603 242.4734 
L 718.968333 244.103824 
L 728.730636 245.367716 
L 738.492939 246.288278 
L 748.255242 246.903689 
L 753.136394 247.11217 
L 758.017545 247.179793 
L 767.779848 247.017437 
L 782.423303 247.013229 
L 816.591364 247.221817 
L 816.591364 247.221817 
" style="fill:none;stroke:#bf2552;stroke-linecap:square;stroke-width:1.5;"/>
   </g>
   <g id="patch_3">
    <path d="M 47.81 258.48 
L 47.81 10.8 
" style="fill:none;stroke:#000000;stroke-linecap:square;stroke-linejoin:miter;stroke-width:0.8;"/>
   </g>
   <g id="patch_4">
    <path d="M 853.2 258.48 
L 853.2 10.8 
" style="fill:none;stroke:#000000;stroke-linecap:square;stroke-linejoin:miter;stroke-width:0.8;"/>
   </g>
   <g id="patch_5">
    <path d="M 47.81 258.48 
L 853.2 258.48 
" style="fill:none;stroke:#000000;stroke-linecap:square;stroke-linejoin:miter;stroke-width:0.8;"/>
   </g>
   <g id="patch_6">
    <path d="M 47.81 10.8 
L 853.2 10.8 
" style="fill:none;stroke:#000000;stroke-linecap:square;stroke-linejoin:miter;stroke-width:0.8;"/>
   </g>
   <g id="legend_1">
    <g id="patch_7">
     <path d="M 787.959375 165.58125 
L 846.2 165.58125 
Q 848.2 165.58125 848.2 163.58125 
L 848.2 17.8 
Q 848.2 15.8 846.2 15.8 
L 787.959375 15.8 
Q 785.959375 15.8 785.959375 17.8 
L 785.959375 163.58125 
Q 785.959375 165.58125 787.959375 165.58125 
z
" style="fill:#ffffff;opacity:0.8;stroke:#cccccc;stroke-linejoin:miter;"/>
    </g>
    <g id="line2d_35">
     <path d="M 789.959375 23.898438 
L 809.959375 23.898438 
" style="fill:none;stroke:#303bc1;stroke-linecap:square;stroke-width:1.5;"/>
    </g>
    <g id="line2d_36"/>
    <g id="text_14">
     <!-- S/C 0 -->
     <g transform="translate(817.959375 27.398438)scale(0.1 -0.1)">
      <defs>
       <path d="M 53.515625 70.515625 
L 53.515625 60.890625 
Q 47.90625 63.578125 42.921875 64.890625 
Q 37.9375 66.21875 33.296875 66.21875 
Q 25.25 66.21875 20.875 63.09375 
Q 16.5 59.96875 16.5 54.203125 
Q 16.5 49.359375 19.40625 46.890625 
Q 22.3125 44.4375 30.421875 42.921875 
L 36.375 41.703125 
Q 47.40625 39.59375 52.65625 34.296875 
Q 57.90625 29 57.90625 20.125 
Q 57.90625 9.515625 50.796875 4.046875 
Q 43.703125 -1.421875 29.984375 -1.421875 
Q 24.8125 -1.421875 18.96875 -0.25 
Q 13.140625 0.921875 6.890625 3.21875 
L 6.890625 13.375 
Q 12.890625 10.015625 18.65625 8.296875 
Q 24.421875 6.59375 29.984375 6.59375 
Q 38.421875 6.59375 43.015625 9.90625 
Q 47.609375 13.234375 47.609375 19.390625 
Q 47.609375 24.75 44.3125 27.78125 
Q 41.015625 30.8125 33.5 32.328125 
L 27.484375 33.5 
Q 16.453125 35.6875 11.515625 40.375 
Q 6.59375 45.0625 6.59375 53.421875 
Q 6.59375 63.09375 13.40625 68.65625 
Q 20.21875 74.21875 32.171875 74.21875 
Q 37.3125 74.21875 42.625 73.28125 
Q 47.953125 72.359375 53.515625 70.515625 
z
" id="DejaVuSans-83"/>
       <path d="M 25.390625 72.90625 
L 33.6875 72.90625 
L 8.296875 -9.28125 
L 0 -9.28125 
z
" id="DejaVuSans-47"/>
       <path d="M 64.40625 67.28125 
L 64.40625 56.890625 
Q 59.421875 61.53125 53.78125 63.8125 
Q 48.140625 66.109375 41.796875 66.109375 
Q 29.296875 66.109375 22.65625 58.46875 
Q 16.015625 50.828125 16.015625 36.375 
Q 16.015625 21.96875 22.65625 14.328125 
Q 29.296875 6.6875 41.796875 6.6875 
Q 48.140625 6.6875 53.78125 8.984375 
Q 59.421875 11.28125 64.40625 15.921875 
L 64.40625 5.609375 
Q 59.234375 2.09375 53.4375 0.328125 
Q 47.65625 -1.421875 41.21875 -1.421875 
Q 24.65625 -1.421875 15.125 8.703125 
Q 5.609375 18.84375 5.609375 36.375 
Q 5.609375 53.953125 15.125 64.078125 
Q 24.65625 74.21875 41.21875 74.21875 
Q 47.75 74.21875 53.53125 72.484375 
Q 59.328125 70.75 64.40625 67.28125 
z
" id="DejaVuSans-67"/>
      </defs>
      <use xlink:href="#DejaVuSans-83"/>
      <use x="63.476562" xlink:href="#DejaVuSans-47"/>
      <use x="97.167969" xlink:href="#DejaVuSans-67"/>
      <use x="166.992188" xlink:href="#DejaVuSans-32"/>
      <use x="198.779297" xlink:href="#DejaVuSans-48"/>
     </g>
    </g>
    <g id="line2d_37">
     <path d="M 789.959375 38.576563 
L 809.959375 38.576563 
" style="fill:none;stroke:#4039b5;stroke-linecap:square;stroke-width:1.5;"/>
    </g>
    <g id="line2d_38"/>
    <g id="text_15">
     <!-- S/C 1 -->
     <g transform="translate(817.959375 42.076563)scale(0.1 -0.1)">
      <use xlink:href="#DejaVuSans-83"/>
      <use x="63.476562" xlink:href="#DejaVuSans-47"/>
      <use x="97.167969" xlink:href="#DejaVuSans-67"/>
      <use x="166.992188" xlink:href="#DejaVuSans-32"/>
      <use x="198.779297" xlink:href="#DejaVuSans-49"/>
     </g>
    </g>
    <g id="line2d_39">
     <path d="M 789.959375 53.254688 
L 809.959375 53.254688 
" style="fill:none;stroke:#5036a8;stroke-linecap:square;stroke-width:1.5;"/>
    </g>
    <g id="line2d_40"/>
    <g id="text_16">
     <!-- S/C 2 -->
     <g transform="translate(817.959375 56.754688)scale(0.1 -0.1)">
      <use xlink:href="#DejaVuSans-83"/>
      <use x="63.476562" xlink:href="#DejaVuSans-47"/>
      <use x="97.167969" xlink:href="#DejaVuSans-67"/>
      <use x="166.992188" xlink:href="#DejaVuSans-32"/>
      <use x="198.779297" xlink:href="#DejaVuSans-50"/>
     </g>
    </g>
    <g id="line2d_41">
     <path d="M 789.959375 67.932813 
L 809.959375 67.932813 
" style="fill:none;stroke:#60349c;stroke-linecap:square;stroke-width:1.5;"/>
    </g>
    <g id="line2d_42"/>
    <g id="text_17">
     <!-- S/C 3 -->
     <g transform="translate(817.959375 71.432813)scale(0.1 -0.1)">
      <use xlink:href="#DejaVuSans-83"/>
      <use x="63.476562" xlink:href="#DejaVuSans-47"/>
      <use x="97.167969" xlink:href="#DejaVuSans-67"/>
      <use x="166.992188" xlink:href="#DejaVuSans-32"/>
      <use x="198.779297" xlink:href="#DejaVuSans-51"/>
     </g>
    </g>
    <g id="line2d_43">
     <path d="M 789.959375 82.610938 
L 809.959375 82.610938 
" style="fill:none;stroke:#70318f;stroke-linecap:square;stroke-width:1.5;"/>
    </g>
    <g id="line2d_44"/>
    <g id="text_18">
     <!-- S/C 4 -->
     <g transform="translate(817.959375 86.110938)scale(0.1 -0.1)">
      <defs>
       <path d="M 37.796875 64.3125 
L 12.890625 25.390625 
L 37.796875 25.390625 
z
M 35.203125 72.90625 
L 47.609375 72.90625 
L 47.609375 25.390625 
L 58.015625 25.390625 
L 58.015625 17.1875 
L 47.609375 17.1875 
L 47.609375 0 
L 37.796875 0 
L 37.796875 17.1875 
L 4.890625 17.1875 
L 4.890625 26.703125 
z
" id="DejaVuSans-52"/>
      </defs>
      <use xlink:href="#DejaVuSans-83"/>
      <use x="63.476562" xlink:href="#DejaVuSans-47"/>
      <use x="97.167969" xlink:href="#DejaVuSans-67"/>
      <use x="166.992188" xlink:href="#DejaVuSans-32"/>
      <use x="198.779297" xlink:href="#DejaVuSans-52"/>
     </g>
    </g>
    <g id="line2d_45">
     <path d="M 789.959375 97.289063 
L 809.959375 97.289063 
" style="fill:none;stroke:#802f83;stroke-linecap:square;stroke-width:1.5;"/>
    </g>
    <g id="line2d_46"/>
    <g id="text_19">
     <!-- S/C 5 -->
     <g transform="translate(817.959375 100.789063)scale(0.1 -0.1)">
      <use xlink:href="#DejaVuSans-83"/>
      <use x="63.476562" xlink:href="#DejaVuSans-47"/>
      <use x="97.167969" xlink:href="#DejaVuSans-67"/>
      <use x="166.992188" xlink:href="#DejaVuSans-32"/>
      <use x="198.779297" xlink:href="#DejaVuSans-53"/>
     </g>
    </g>
    <g id="line2d_47">
     <path d="M 789.959375 111.967188 
L 809.959375 111.967188 
" style="fill:none;stroke:#8f2d78;stroke-linecap:square;stroke-width:1.5;"/>
    </g>
    <g id="line2d_48"/>
    <g id="text_20">
     <!-- S/C 6 -->
     <g transform="translate(817.959375 115.467188)scale(0.1 -0.1)">
      <defs>
       <path d="M 33.015625 40.375 
Q 26.375 40.375 22.484375 35.828125 
Q 18.609375 31.296875 18.609375 23.390625 
Q 18.609375 15.53125 22.484375 10.953125 
Q 26.375 6.390625 33.015625 6.390625 
Q 39.65625 6.390625 43.53125 10.953125 
Q 47.40625 15.53125 47.40625 23.390625 
Q 47.40625 31.296875 43.53125 35.828125 
Q 39.65625 40.375 33.015625 40.375 
z
M 52.59375 71.296875 
L 52.59375 62.3125 
Q 48.875 64.0625 45.09375 64.984375 
Q 41.3125 65.921875 37.59375 65.921875 
Q 27.828125 65.921875 22.671875 59.328125 
Q 17.53125 52.734375 16.796875 39.40625 
Q 19.671875 43.65625 24.015625 45.921875 
Q 28.375 48.1875 33.59375 48.1875 
Q 44.578125 48.1875 50.953125 41.515625 
Q 57.328125 34.859375 57.328125 23.390625 
Q 57.328125 12.15625 50.6875 5.359375 
Q 44.046875 -1.421875 33.015625 -1.421875 
Q 20.359375 -1.421875 13.671875 8.265625 
Q 6.984375 17.96875 6.984375 36.375 
Q 6.984375 53.65625 15.1875 63.9375 
Q 23.390625 74.21875 37.203125 74.21875 
Q 40.921875 74.21875 44.703125 73.484375 
Q 48.484375 72.75 52.59375 71.296875 
z
" id="DejaVuSans-54"/>
      </defs>
      <use xlink:href="#DejaVuSans-83"/>
      <use x="63.476562" xlink:href="#DejaVuSans-47"/>
      <use x="97.167969" xlink:href="#DejaVuSans-67"/>
      <use x="166.992188" xlink:href="#DejaVuSans-32"/>
      <use x="198.779297" xlink:href="#DejaVuSans-54"/>
     </g>
    </g>
    <g id="line2d_49">
     <path d="M 789.959375 126.645313 
L 809.959375 126.645313 
" style="fill:none;stroke:#9f2a6b;stroke-linecap:square;stroke-width:1.5;"/>
    </g>
    <g id="line2d_50"/>
    <g id="text_21">
     <!-- S/C 7 -->
     <g transform="translate(817.959375 130.145313)scale(0.1 -0.1)">
      <defs>
       <path d="M 8.203125 72.90625 
L 55.078125 72.90625 
L 55.078125 68.703125 
L 28.609375 0 
L 18.3125 0 
L 43.21875 64.59375 
L 8.203125 64.59375 
z
" id="DejaVuSans-55"/>
      </defs>
      <use xlink:href="#DejaVuSans-83"/>
      <use x="63.476562" xlink:href="#DejaVuSans-47"/>
      <use x="97.167969" xlink:href="#DejaVuSans-67"/>
      <use x="166.992188" xlink:href="#DejaVuSans-32"/>
      <use x="198.779297" xlink:href="#DejaVuSans-55"/>
     </g>
    </g>
    <g id="line2d_51">
     <path d="M 789.959375 141.323438 
L 809.959375 141.323438 
" style="fill:none;stroke:#af285f;stroke-linecap:square;stroke-width:1.5;"/>
    </g>
    <g id="line2d_52"/>
    <g id="text_22">
     <!-- S/C 8 -->
     <g transform="translate(817.959375 144.823438)scale(0.1 -0.1)">
      <defs>
       <path d="M 31.78125 34.625 
Q 24.75 34.625 20.71875 30.859375 
Q 16.703125 27.09375 16.703125 20.515625 
Q 16.703125 13.921875 20.71875 10.15625 
Q 24.75 6.390625 31.78125 6.390625 
Q 38.8125 6.390625 42.859375 10.171875 
Q 46.921875 13.96875 46.921875 20.515625 
Q 46.921875 27.09375 42.890625 30.859375 
Q 38.875 34.625 31.78125 34.625 
z
M 21.921875 38.8125 
Q 15.578125 40.375 12.03125 44.71875 
Q 8.5 49.078125 8.5 55.328125 
Q 8.5 64.0625 14.71875 69.140625 
Q 20.953125 74.21875 31.78125 74.21875 
Q 42.671875 74.21875 48.875 69.140625 
Q 55.078125 64.0625 55.078125 55.328125 
Q 55.078125 49.078125 51.53125 44.71875 
Q 48 40.375 41.703125 38.8125 
Q 48.828125 37.15625 52.796875 32.3125 
Q 56.78125 27.484375 56.78125 20.515625 
Q 56.78125 9.90625 50.3125 4.234375 
Q 43.84375 -1.421875 31.78125 -1.421875 
Q 19.734375 -1.421875 13.25 4.234375 
Q 6.78125 9.90625 6.78125 20.515625 
Q 6.78125 27.484375 10.78125 32.3125 
Q 14.796875 37.15625 21.921875 38.8125 
z
M 18.3125 54.390625 
Q 18.3125 48.734375 21.84375 45.5625 
Q 25.390625 42.390625 31.78125 42.390625 
Q 38.140625 42.390625 41.71875 45.5625 
Q 45.3125 48.734375 45.3125 54.390625 
Q 45.3125 60.0625 41.71875 63.234375 
Q 38.140625 66.40625 31.78125 66.40625 
Q 25.390625 66.40625 21.84375 63.234375 
Q 18.3125 60.0625 18.3125 54.390625 
z
" id="DejaVuSans-56"/>
      </defs>
      <use xlink:href="#DejaVuSans-83"/>
      <use x="63.476562" xlink:href="#DejaVuSans-47"/>
      <use x="97.167969" xlink:href="#DejaVuSans-67"/>
      <use x="166.992188" xlink:href="#DejaVuSans-32"/>
      <use x="198.779297" xlink:href="#DejaVuSans-56"/>
     </g>
    </g>
    <g id="line2d_53">
     <path d="M 789.959375 156.001563 
L 809.959375 156.001563 
" style="fill:none;stroke:#bf2552;stroke-linecap:square;stroke-width:1.5;"/>
    </g>
    <g id="line2d_54"/>
    <g id="text_23">
     <!-- S/C 9 -->
     <g transform="translate(817.959375 159.501563)scale(0.1 -0.1)">
      <defs>
       <path d="M 10.984375 1.515625 
L 10.984375 10.5 
Q 14.703125 8.734375 18.5 7.8125 
Q 22.3125 6.890625 25.984375 6.890625 
Q 35.75 6.890625 40.890625 13.453125 
Q 46.046875 20.015625 46.78125 33.40625 
Q 43.953125 29.203125 39.59375 26.953125 
Q 35.25 24.703125 29.984375 24.703125 
Q 19.046875 24.703125 12.671875 31.3125 
Q 6.296875 37.9375 6.296875 49.421875 
Q 6.296875 60.640625 12.9375 67.421875 
Q 19.578125 74.21875 30.609375 74.21875 
Q 43.265625 74.21875 49.921875 64.515625 
Q 56.59375 54.828125 56.59375 36.375 
Q 56.59375 19.140625 48.40625 8.859375 
Q 40.234375 -1.421875 26.421875 -1.421875 
Q 22.703125 -1.421875 18.890625 -0.6875 
Q 15.09375 0.046875 10.984375 1.515625 
z
M 30.609375 32.421875 
Q 37.25 32.421875 41.125 36.953125 
Q 45.015625 41.5 45.015625 49.421875 
Q 45.015625 57.28125 41.125 61.84375 
Q 37.25 66.40625 30.609375 66.40625 
Q 23.96875 66.40625 20.09375 61.84375 
Q 16.21875 57.28125 16.21875 49.421875 
Q 16.21875 41.5 20.09375 36.953125 
Q 23.96875 32.421875 30.609375 32.421875 
z
" id="DejaVuSans-57"/>
      </defs>
      <use xlink:href="#DejaVuSans-83"/>
      <use x="63.476562" xlink:href="#DejaVuSans-47"/>
      <use x="97.167969" xlink:href="#DejaVuSans-67"/>
      <use x="166.992188" xlink:href="#DejaVuSans-32"/>
      <use x="198.779297" xlink:href="#DejaVuSans-57"/>
     </g>
    </g>
   </g>
  </g>
  <g id="axes_2">
   <g id="patch_8">
    <path d="M 47.81 534.04 
L 853.2 534.04 
L 853.2 286.36 
L 47.81 286.36 
z
" style="fill:#ffffff;"/>
   </g>
   <g id="matplotlib.axis_3">
    <g id="xtick_6">
     <g id="line2d_55">
      <path clip-path="url(#p74250c1216)" d="M 84.418636 534.04 
L 84.418636 286.36 
" style="fill:none;stroke:#b0b0b0;stroke-linecap:square;stroke-width:0.8;"/>
     </g>
     <g id="line2d_56">
      <g>
       <use style="stroke:#000000;stroke-width:0.8;" x="84.418636" xlink:href="#md22bd605e2" y="534.04"/>
      </g>
     </g>
     <g id="text_24">
      <!-- 0 -->
      <g transform="translate(81.237386 548.638438)scale(0.1 -0.1)">
       <use xlink:href="#DejaVuSans-48"/>
      </g>
     </g>
    </g>
    <g id="xtick_7">
     <g id="line2d_57">
      <path clip-path="url(#p74250c1216)" d="M 262.769704 534.04 
L 262.769704 286.36 
" style="fill:none;stroke:#b0b0b0;stroke-linecap:square;stroke-width:0.8;"/>
     </g>
     <g id="line2d_58">
      <g>
       <use style="stroke:#000000;stroke-width:0.8;" x="262.769704" xlink:href="#md22bd605e2" y="534.04"/>
      </g>
     </g>
     <g id="text_25">
      <!-- 5 -->
      <g transform="translate(259.588454 548.638438)scale(0.1 -0.1)">
       <use xlink:href="#DejaVuSans-53"/>
      </g>
     </g>
    </g>
    <g id="xtick_8">
     <g id="line2d_59">
      <path clip-path="url(#p74250c1216)" d="M 441.120772 534.04 
L 441.120772 286.36 
" style="fill:none;stroke:#b0b0b0;stroke-linecap:square;stroke-width:0.8;"/>
     </g>
     <g id="line2d_60">
      <g>
       <use style="stroke:#000000;stroke-width:0.8;" x="441.120772" xlink:href="#md22bd605e2" y="534.04"/>
      </g>
     </g>
     <g id="text_26">
      <!-- 10 -->
      <g transform="translate(434.758272 548.638438)scale(0.1 -0.1)">
       <use xlink:href="#DejaVuSans-49"/>
       <use x="63.623047" xlink:href="#DejaVuSans-48"/>
      </g>
     </g>
    </g>
    <g id="xtick_9">
     <g id="line2d_61">
      <path clip-path="url(#p74250c1216)" d="M 619.47184 534.04 
L 619.47184 286.36 
" style="fill:none;stroke:#b0b0b0;stroke-linecap:square;stroke-width:0.8;"/>
     </g>
     <g id="line2d_62">
      <g>
       <use style="stroke:#000000;stroke-width:0.8;" x="619.47184" xlink:href="#md22bd605e2" y="534.04"/>
      </g>
     </g>
     <g id="text_27">
      <!-- 15 -->
      <g transform="translate(613.10934 548.638438)scale(0.1 -0.1)">
       <use xlink:href="#DejaVuSans-49"/>
       <use x="63.623047" xlink:href="#DejaVuSans-53"/>
      </g>
     </g>
    </g>
    <g id="xtick_10">
     <g id="line2d_63">
      <path clip-path="url(#p74250c1216)" d="M 797.822907 534.04 
L 797.822907 286.36 
" style="fill:none;stroke:#b0b0b0;stroke-linecap:square;stroke-width:0.8;"/>
     </g>
     <g id="line2d_64">
      <g>
       <use style="stroke:#000000;stroke-width:0.8;" x="797.822907" xlink:href="#md22bd605e2" y="534.04"/>
      </g>
     </g>
     <g id="text_28">
      <!-- 20 -->
      <g transform="translate(791.460407 548.638438)scale(0.1 -0.1)">
       <use xlink:href="#DejaVuSans-50"/>
       <use x="63.623047" xlink:href="#DejaVuSans-48"/>
      </g>
     </g>
    </g>
    <g id="text_29">
     <!-- Time (ND) -->
     <g transform="translate(425.190156 562.316562)scale(0.1 -0.1)">
      <defs>
       <path d="M -0.296875 72.90625 
L 61.375 72.90625 
L 61.375 64.59375 
L 35.5 64.59375 
L 35.5 0 
L 25.59375 0 
L 25.59375 64.59375 
L -0.296875 64.59375 
z
" id="DejaVuSans-84"/>
       <path d="M 9.421875 54.6875 
L 18.40625 54.6875 
L 18.40625 0 
L 9.421875 0 
z
M 9.421875 75.984375 
L 18.40625 75.984375 
L 18.40625 64.59375 
L 9.421875 64.59375 
z
" id="DejaVuSans-105"/>
       <path d="M 52 44.1875 
Q 55.375 50.25 60.0625 53.125 
Q 64.75 56 71.09375 56 
Q 79.640625 56 84.28125 50.015625 
Q 88.921875 44.046875 88.921875 33.015625 
L 88.921875 0 
L 79.890625 0 
L 79.890625 32.71875 
Q 79.890625 40.578125 77.09375 44.375 
Q 74.3125 48.1875 68.609375 48.1875 
Q 61.625 48.1875 57.5625 43.546875 
Q 53.515625 38.921875 53.515625 30.90625 
L 53.515625 0 
L 44.484375 0 
L 44.484375 32.71875 
Q 44.484375 40.625 41.703125 44.40625 
Q 38.921875 48.1875 33.109375 48.1875 
Q 26.21875 48.1875 22.15625 43.53125 
Q 18.109375 38.875 18.109375 30.90625 
L 18.109375 0 
L 9.078125 0 
L 9.078125 54.6875 
L 18.109375 54.6875 
L 18.109375 46.1875 
Q 21.1875 51.21875 25.484375 53.609375 
Q 29.78125 56 35.6875 56 
Q 41.65625 56 45.828125 52.96875 
Q 50 49.953125 52 44.1875 
z
" id="DejaVuSans-109"/>
       <path d="M 9.8125 72.90625 
L 23.09375 72.90625 
L 55.421875 11.921875 
L 55.421875 72.90625 
L 64.984375 72.90625 
L 64.984375 0 
L 51.703125 0 
L 19.390625 60.984375 
L 19.390625 0 
L 9.8125 0 
z
" id="DejaVuSans-78"/>
       <path d="M 19.671875 64.796875 
L 19.671875 8.109375 
L 31.59375 8.109375 
Q 46.6875 8.109375 53.6875 14.9375 
Q 60.6875 21.78125 60.6875 36.53125 
Q 60.6875 51.171875 53.6875 57.984375 
Q 46.6875 64.796875 31.59375 64.796875 
z
M 9.8125 72.90625 
L 30.078125 72.90625 
Q 51.265625 72.90625 61.171875 64.09375 
Q 71.09375 55.28125 71.09375 36.53125 
Q 71.09375 17.671875 61.125 8.828125 
Q 51.171875 0 30.078125 0 
L 9.8125 0 
z
" id="DejaVuSans-68"/>
      </defs>
      <use xlink:href="#DejaVuSans-84"/>
      <use x="57.958984" xlink:href="#DejaVuSans-105"/>
      <use x="85.742188" xlink:href="#DejaVuSans-109"/>
      <use x="183.154297" xlink:href="#DejaVuSans-101"/>
      <use x="244.677734" xlink:href="#DejaVuSans-32"/>
      <use x="276.464844" xlink:href="#DejaVuSans-40"/>
      <use x="315.478516" xlink:href="#DejaVuSans-78"/>
      <use x="390.283203" xlink:href="#DejaVuSans-68"/>
      <use x="467.285156" xlink:href="#DejaVuSans-41"/>
     </g>
    </g>
   </g>
   <g id="matplotlib.axis_4">
    <g id="ytick_8">
     <g id="line2d_65">
      <path clip-path="url(#p74250c1216)" d="M 47.81 519.922686 
L 853.2 519.922686 
" style="fill:none;stroke:#b0b0b0;stroke-linecap:square;stroke-width:0.8;"/>
     </g>
     <g id="line2d_66">
      <g>
       <use style="stroke:#000000;stroke-width:0.8;" x="47.81" xlink:href="#m6960aeed70" y="519.922686"/>
      </g>
     </g>
     <g id="text_30">
      <!-- 0.2 -->
      <g transform="translate(24.906875 523.721905)scale(0.1 -0.1)">
       <use xlink:href="#DejaVuSans-48"/>
       <use x="63.623047" xlink:href="#DejaVuSans-46"/>
       <use x="95.410156" xlink:href="#DejaVuSans-50"/>
      </g>
     </g>
    </g>
    <g id="ytick_9">
     <g id="line2d_67">
      <path clip-path="url(#p74250c1216)" d="M 47.81 492.134623 
L 853.2 492.134623 
" style="fill:none;stroke:#b0b0b0;stroke-linecap:square;stroke-width:0.8;"/>
     </g>
     <g id="line2d_68">
      <g>
       <use style="stroke:#000000;stroke-width:0.8;" x="47.81" xlink:href="#m6960aeed70" y="492.134623"/>
      </g>
     </g>
     <g id="text_31">
      <!-- 0.3 -->
      <g transform="translate(24.906875 495.933842)scale(0.1 -0.1)">
       <use xlink:href="#DejaVuSans-48"/>
       <use x="63.623047" xlink:href="#DejaVuSans-46"/>
       <use x="95.410156" xlink:href="#DejaVuSans-51"/>
      </g>
     </g>
    </g>
    <g id="ytick_10">
     <g id="line2d_69">
      <path clip-path="url(#p74250c1216)" d="M 47.81 464.34656 
L 853.2 464.34656 
" style="fill:none;stroke:#b0b0b0;stroke-linecap:square;stroke-width:0.8;"/>
     </g>
     <g id="line2d_70">
      <g>
       <use style="stroke:#000000;stroke-width:0.8;" x="47.81" xlink:href="#m6960aeed70" y="464.34656"/>
      </g>
     </g>
     <g id="text_32">
      <!-- 0.4 -->
      <g transform="translate(24.906875 468.145779)scale(0.1 -0.1)">
       <use xlink:href="#DejaVuSans-48"/>
       <use x="63.623047" xlink:href="#DejaVuSans-46"/>
       <use x="95.410156" xlink:href="#DejaVuSans-52"/>
      </g>
     </g>
    </g>
    <g id="ytick_11">
     <g id="line2d_71">
      <path clip-path="url(#p74250c1216)" d="M 47.81 436.558497 
L 853.2 436.558497 
" style="fill:none;stroke:#b0b0b0;stroke-linecap:square;stroke-width:0.8;"/>
     </g>
     <g id="line2d_72">
      <g>
       <use style="stroke:#000000;stroke-width:0.8;" x="47.81" xlink:href="#m6960aeed70" y="436.558497"/>
      </g>
     </g>
     <g id="text_33">
      <!-- 0.5 -->
      <g transform="translate(24.906875 440.357716)scale(0.1 -0.1)">
       <use xlink:href="#DejaVuSans-48"/>
       <use x="63.623047" xlink:href="#DejaVuSans-46"/>
       <use x="95.410156" xlink:href="#DejaVuSans-53"/>
      </g>
     </g>
    </g>
    <g id="ytick_12">
     <g id="line2d_73">
      <path clip-path="url(#p74250c1216)" d="M 47.81 408.770434 
L 853.2 408.770434 
" style="fill:none;stroke:#b0b0b0;stroke-linecap:square;stroke-width:0.8;"/>
     </g>
     <g id="line2d_74">
      <g>
       <use style="stroke:#000000;stroke-width:0.8;" x="47.81" xlink:href="#m6960aeed70" y="408.770434"/>
      </g>
     </g>
     <g id="text_34">
      <!-- 0.6 -->
      <g transform="translate(24.906875 412.569653)scale(0.1 -0.1)">
       <use xlink:href="#DejaVuSans-48"/>
       <use x="63.623047" xlink:href="#DejaVuSans-46"/>
       <use x="95.410156" xlink:href="#DejaVuSans-54"/>
      </g>
     </g>
    </g>
    <g id="ytick_13">
     <g id="line2d_75">
      <path clip-path="url(#p74250c1216)" d="M 47.81 380.982371 
L 853.2 380.982371 
" style="fill:none;stroke:#b0b0b0;stroke-linecap:square;stroke-width:0.8;"/>
     </g>
     <g id="line2d_76">
      <g>
       <use style="stroke:#000000;stroke-width:0.8;" x="47.81" xlink:href="#m6960aeed70" y="380.982371"/>
      </g>
     </g>
     <g id="text_35">
      <!-- 0.7 -->
      <g transform="translate(24.906875 384.78159)scale(0.1 -0.1)">
       <use xlink:href="#DejaVuSans-48"/>
       <use x="63.623047" xlink:href="#DejaVuSans-46"/>
       <use x="95.410156" xlink:href="#DejaVuSans-55"/>
      </g>
     </g>
    </g>
    <g id="ytick_14">
     <g id="line2d_77">
      <path clip-path="url(#p74250c1216)" d="M 47.81 353.194308 
L 853.2 353.194308 
" style="fill:none;stroke:#b0b0b0;stroke-linecap:square;stroke-width:0.8;"/>
     </g>
     <g id="line2d_78">
      <g>
       <use style="stroke:#000000;stroke-width:0.8;" x="47.81" xlink:href="#m6960aeed70" y="353.194308"/>
      </g>
     </g>
     <g id="text_36">
      <!-- 0.8 -->
      <g transform="translate(24.906875 356.993527)scale(0.1 -0.1)">
       <use xlink:href="#DejaVuSans-48"/>
       <use x="63.623047" xlink:href="#DejaVuSans-46"/>
       <use x="95.410156" xlink:href="#DejaVuSans-56"/>
      </g>
     </g>
    </g>
    <g id="ytick_15">
     <g id="line2d_79">
      <path clip-path="url(#p74250c1216)" d="M 47.81 325.406245 
L 853.2 325.406245 
" style="fill:none;stroke:#b0b0b0;stroke-linecap:square;stroke-width:0.8;"/>
     </g>
     <g id="line2d_80">
      <g>
       <use style="stroke:#000000;stroke-width:0.8;" x="47.81" xlink:href="#m6960aeed70" y="325.406245"/>
      </g>
     </g>
     <g id="text_37">
      <!-- 0.9 -->
      <g transform="translate(24.906875 329.205464)scale(0.1 -0.1)">
       <use xlink:href="#DejaVuSans-48"/>
       <use x="63.623047" xlink:href="#DejaVuSans-46"/>
       <use x="95.410156" xlink:href="#DejaVuSans-57"/>
      </g>
     </g>
    </g>
    <g id="ytick_16">
     <g id="line2d_81">
      <path clip-path="url(#p74250c1216)" d="M 47.81 297.618182 
L 853.2 297.618182 
" style="fill:none;stroke:#b0b0b0;stroke-linecap:square;stroke-width:0.8;"/>
     </g>
     <g id="line2d_82">
      <g>
       <use style="stroke:#000000;stroke-width:0.8;" x="47.81" xlink:href="#m6960aeed70" y="297.618182"/>
      </g>
     </g>
     <g id="text_38">
      <!-- 1.0 -->
      <g transform="translate(24.906875 301.417401)scale(0.1 -0.1)">
       <use xlink:href="#DejaVuSans-49"/>
       <use x="63.623047" xlink:href="#DejaVuSans-46"/>
       <use x="95.410156" xlink:href="#DejaVuSans-48"/>
      </g>
     </g>
    </g>
    <g id="text_39">
     <!-- Control Magnitude -->
     <g transform="translate(18.827187 456.35)rotate(-90)scale(0.1 -0.1)">
      <defs>
       <path d="M 30.609375 48.390625 
Q 23.390625 48.390625 19.1875 42.75 
Q 14.984375 37.109375 14.984375 27.296875 
Q 14.984375 17.484375 19.15625 11.84375 
Q 23.34375 6.203125 30.609375 6.203125 
Q 37.796875 6.203125 41.984375 11.859375 
Q 46.1875 17.53125 46.1875 27.296875 
Q 46.1875 37.015625 41.984375 42.703125 
Q 37.796875 48.390625 30.609375 48.390625 
z
M 30.609375 56 
Q 42.328125 56 49.015625 48.375 
Q 55.71875 40.765625 55.71875 27.296875 
Q 55.71875 13.875 49.015625 6.21875 
Q 42.328125 -1.421875 30.609375 -1.421875 
Q 18.84375 -1.421875 12.171875 6.21875 
Q 5.515625 13.875 5.515625 27.296875 
Q 5.515625 40.765625 12.171875 48.375 
Q 18.84375 56 30.609375 56 
z
" id="DejaVuSans-111"/>
       <path d="M 18.3125 70.21875 
L 18.3125 54.6875 
L 36.8125 54.6875 
L 36.8125 47.703125 
L 18.3125 47.703125 
L 18.3125 18.015625 
Q 18.3125 11.328125 20.140625 9.421875 
Q 21.96875 7.515625 27.59375 7.515625 
L 36.8125 7.515625 
L 36.8125 0 
L 27.59375 0 
Q 17.1875 0 13.234375 3.875 
Q 9.28125 7.765625 9.28125 18.015625 
L 9.28125 47.703125 
L 2.6875 47.703125 
L 2.6875 54.6875 
L 9.28125 54.6875 
L 9.28125 70.21875 
z
" id="DejaVuSans-116"/>
       <path d="M 9.8125 72.90625 
L 24.515625 72.90625 
L 43.109375 23.296875 
L 61.8125 72.90625 
L 76.515625 72.90625 
L 76.515625 0 
L 66.890625 0 
L 66.890625 64.015625 
L 48.09375 14.015625 
L 38.1875 14.015625 
L 19.390625 64.015625 
L 19.390625 0 
L 9.8125 0 
z
" id="DejaVuSans-77"/>
       <path d="M 8.5 21.578125 
L 8.5 54.6875 
L 17.484375 54.6875 
L 17.484375 21.921875 
Q 17.484375 14.15625 20.5 10.265625 
Q 23.53125 6.390625 29.59375 6.390625 
Q 36.859375 6.390625 41.078125 11.03125 
Q 45.3125 15.671875 45.3125 23.6875 
L 45.3125 54.6875 
L 54.296875 54.6875 
L 54.296875 0 
L 45.3125 0 
L 45.3125 8.40625 
Q 42.046875 3.421875 37.71875 1 
Q 33.40625 -1.421875 27.6875 -1.421875 
Q 18.265625 -1.421875 13.375 4.4375 
Q 8.5 10.296875 8.5 21.578125 
z
M 31.109375 56 
z
" id="DejaVuSans-117"/>
      </defs>
      <use xlink:href="#DejaVuSans-67"/>
      <use x="69.824219" xlink:href="#DejaVuSans-111"/>
      <use x="131.005859" xlink:href="#DejaVuSans-110"/>
      <use x="194.384766" xlink:href="#DejaVuSans-116"/>
      <use x="233.59375" xlink:href="#DejaVuSans-114"/>
      <use x="272.457031" xlink:href="#DejaVuSans-111"/>
      <use x="333.638672" xlink:href="#DejaVuSans-108"/>
      <use x="361.421875" xlink:href="#DejaVuSans-32"/>
      <use x="393.208984" xlink:href="#DejaVuSans-77"/>
      <use x="479.488281" xlink:href="#DejaVuSans-97"/>
      <use x="540.767578" xlink:href="#DejaVuSans-103"/>
      <use x="604.244141" xlink:href="#DejaVuSans-110"/>
      <use x="667.623047" xlink:href="#DejaVuSans-105"/>
      <use x="695.40625" xlink:href="#DejaVuSans-116"/>
      <use x="734.615234" xlink:href="#DejaVuSans-117"/>
      <use x="797.994141" xlink:href="#DejaVuSans-100"/>
      <use x="861.470703" xlink:href="#DejaVuSans-101"/>
     </g>
    </g>
   </g>
   <g id="line2d_83">
    <path clip-path="url(#p74250c1216)" d="M 84.418636 297.618182 
L 816.591364 297.618182 
L 816.591364 297.618182 
" style="fill:none;stroke:#303bc1;stroke-linecap:square;stroke-width:1.5;"/>
   </g>
   <g id="line2d_84">
    <path clip-path="url(#p74250c1216)" d="M 84.418636 353.080641 
L 89.299788 353.080641 
L 94.180939 354.166971 
L 99.062091 354.166971 
L 103.943242 355.327657 
L 108.824394 355.327657 
L 113.705545 356.405207 
L 118.586697 356.405207 
L 123.467848 357.762673 
L 128.349 357.762673 
L 133.230152 359.68889 
L 138.111303 359.68889 
L 142.992455 361.941126 
L 147.873606 361.941126 
L 152.754758 364.299289 
L 157.635909 364.299289 
L 162.517061 366.649643 
L 167.398212 366.649643 
L 172.279364 368.928407 
L 177.160515 368.928407 
L 182.041667 371.063468 
L 186.922818 371.063468 
L 191.80397 372.985541 
L 196.685121 372.985541 
L 201.566273 374.660042 
L 206.447424 374.660042 
L 211.328576 376.106925 
L 216.209727 376.106925 
L 221.090879 377.368466 
L 225.97203 377.368466 
L 230.853182 378.471777 
L 235.734333 378.471777 
L 240.615485 379.414618 
L 245.496636 379.414618 
L 250.377788 380.170687 
L 255.258939 380.170687 
L 260.140091 381.037876 
L 265.021242 381.037876 
L 269.902394 382.441019 
L 274.783545 382.441019 
L 279.664697 384.465883 
L 284.545848 384.465883 
L 289.427 386.69914 
L 294.308152 386.69914 
L 299.189303 389.306304 
L 304.070455 389.306304 
L 308.951606 392.742 
L 313.832758 392.742 
L 318.713909 397.209298 
L 323.595061 397.209298 
L 328.476212 402.741511 
L 333.357364 402.741511 
L 338.238515 409.270004 
L 343.119667 409.270004 
L 348.000818 416.578472 
L 352.88197 416.578472 
L 357.763121 424.362276 
L 362.644273 424.362276 
L 367.525424 432.306226 
L 372.406576 432.306226 
L 377.287727 440.134565 
L 382.168879 440.134565 
L 387.05003 447.55327 
L 391.931182 447.55327 
L 396.812333 454.398602 
L 401.693485 454.398602 
L 406.574636 459.413417 
L 411.455788 459.413417 
L 416.336939 470.942149 
L 421.218091 470.942149 
L 426.099242 472.483902 
L 430.980394 472.483902 
L 435.861545 484.019963 
L 440.742697 484.019963 
L 445.623848 482.043645 
L 450.505 482.043645 
L 455.386152 491.697566 
L 460.267303 491.697566 
L 465.148455 517.94295 
L 470.029606 517.94295 
L 474.910758 508.898595 
L 479.791909 508.898595 
L 484.673061 495.378246 
L 489.554212 495.378246 
L 494.435364 483.614622 
L 499.316515 483.614622 
L 504.197667 477.063586 
L 509.078818 477.063586 
L 513.95997 470.610781 
L 518.841121 470.610781 
L 523.722273 463.790807 
L 528.603424 463.790807 
L 533.484576 456.876833 
L 538.365727 456.876833 
L 543.246879 449.772255 
L 548.12803 449.772255 
L 553.009182 442.609447 
L 557.890333 442.609447 
L 562.771485 435.665851 
L 567.652636 435.665851 
L 572.533788 429.051406 
L 577.414939 429.051406 
L 582.296091 423.016505 
L 587.177242 423.016505 
L 592.058394 417.864894 
L 596.939545 417.864894 
L 601.820697 413.727898 
L 606.701848 413.727898 
L 611.583 410.591454 
L 616.464152 410.591454 
L 621.345303 408.358927 
L 626.226455 408.358927 
L 631.107606 406.807468 
L 635.988758 406.807468 
L 640.869909 405.797328 
L 645.751061 405.797328 
L 650.632212 405.473528 
L 655.513364 405.473528 
L 660.394515 405.882086 
L 665.275667 405.882086 
L 670.156818 406.421914 
L 684.800273 406.400129 
L 689.681424 405.480039 
L 694.562576 405.480039 
L 699.443727 403.525659 
L 704.324879 403.525659 
L 709.20603 400.648216 
L 714.087182 400.648216 
L 718.968333 397.05527 
L 723.849485 397.05527 
L 728.730636 392.92348 
L 733.611788 392.92348 
L 738.492939 388.432591 
L 743.374091 388.432591 
L 748.255242 383.784507 
L 753.136394 383.784507 
L 758.017545 379.188201 
L 762.898697 379.188201 
L 767.779848 374.855479 
L 772.661 374.855479 
L 777.542152 371.022486 
L 782.423303 371.022486 
L 787.304455 367.937475 
L 792.185606 367.937475 
L 797.066758 365.613586 
L 801.947909 365.613586 
L 806.829061 363.751006 
L 816.591364 363.751006 
L 816.591364 363.751006 
" style="fill:none;stroke:#4039b5;stroke-linecap:square;stroke-width:1.5;"/>
   </g>
   <g id="line2d_85">
    <path clip-path="url(#p74250c1216)" d="M 84.418636 395.433711 
L 89.299788 395.433711 
L 94.180939 397.354791 
L 99.062091 397.354791 
L 103.943242 399.054613 
L 108.824394 399.054613 
L 113.705545 400.512156 
L 118.586697 400.512156 
L 123.467848 401.802123 
L 128.349 401.802123 
L 133.230152 402.990298 
L 138.111303 402.990298 
L 142.992455 404.358524 
L 147.873606 404.358524 
L 152.754758 406.181265 
L 157.635909 406.181265 
L 162.517061 408.324264 
L 167.398212 408.324264 
L 172.279364 410.507322 
L 177.160515 410.507322 
L 182.041667 412.550915 
L 186.922818 412.550915 
L 191.80397 414.39301 
L 196.685121 414.39301 
L 201.566273 416.03501 
L 206.447424 416.03501 
L 211.328576 417.492073 
L 216.209727 417.492073 
L 221.090879 418.833027 
L 225.97203 418.833027 
L 230.853182 420.365439 
L 235.734333 420.365439 
L 240.615485 422.546397 
L 245.496636 422.546397 
L 250.377788 425.70681 
L 255.258939 425.70681 
L 260.140091 430.143767 
L 265.021242 430.143767 
L 269.902394 435.849836 
L 274.783545 435.849836 
L 279.664697 442.309469 
L 284.545848 442.309469 
L 289.427 449.038844 
L 294.308152 449.038844 
L 299.189303 454.976678 
L 304.070455 454.976678 
L 308.951606 461.468896 
L 313.832758 461.468896 
L 318.713909 466.587991 
L 323.595061 466.587991 
L 328.476212 470.935473 
L 333.357364 470.935473 
L 338.238515 474.289002 
L 343.119667 474.289002 
L 348.000818 475.839278 
L 352.88197 475.839278 
L 357.763121 475.106404 
L 362.644273 475.106404 
L 367.525424 478.207123 
L 372.406576 478.207123 
L 377.287727 480.758921 
L 382.168879 480.758921 
L 387.05003 482.434496 
L 391.931182 482.434496 
L 396.812333 492.034092 
L 401.693485 492.034092 
L 406.574636 493.343163 
L 411.455788 493.343163 
L 416.336939 494.41296 
L 421.218091 494.41296 
L 426.099242 495.900042 
L 430.980394 495.900042 
L 435.861545 497.474517 
L 440.742697 497.474517 
L 445.623848 498.734406 
L 450.505 498.734406 
L 455.386152 499.295317 
L 460.267303 499.295317 
L 465.148455 498.933931 
L 470.029606 498.933931 
L 474.910758 497.660961 
L 479.791909 497.660961 
L 484.673061 495.679112 
L 489.554212 495.679112 
L 494.435364 493.274059 
L 499.316515 493.274059 
L 504.197667 490.747913 
L 509.078818 490.747913 
L 513.95997 488.383702 
L 518.841121 488.383702 
L 523.722273 486.416521 
L 528.603424 486.416521 
L 533.484576 484.992742 
L 538.365727 484.992742 
L 543.246879 484.113324 
L 548.12803 484.113324 
L 553.009182 483.761762 
L 557.890333 483.761762 
L 562.771485 483.292698 
L 567.652636 483.292698 
L 572.533788 481.860439 
L 577.414939 481.860439 
L 582.296091 478.930712 
L 587.177242 478.930712 
L 592.058394 474.536277 
L 596.939545 474.536277 
L 601.820697 470.159813 
L 606.701848 470.159813 
L 611.583 466.927885 
L 616.464152 466.927885 
L 621.345303 465.110946 
L 626.226455 465.110946 
L 631.107606 464.68815 
L 635.988758 464.68815 
L 640.869909 465.39615 
L 645.751061 465.39615 
L 650.632212 466.876782 
L 655.513364 466.876782 
L 660.394515 468.770579 
L 665.275667 468.770579 
L 670.156818 470.740341 
L 675.03797 470.740341 
L 679.919121 472.481931 
L 684.800273 472.481931 
L 689.681424 473.678497 
L 694.562576 473.678497 
L 699.443727 474.028268 
L 704.324879 474.028268 
L 709.20603 473.448315 
L 714.087182 473.448315 
L 718.968333 472.03828 
L 723.849485 472.03828 
L 728.730636 470.045862 
L 733.611788 470.045862 
L 738.492939 467.809658 
L 743.374091 467.809658 
L 748.255242 465.627012 
L 753.136394 465.627012 
L 758.017545 463.732484 
L 762.898697 463.732484 
L 767.779848 462.309164 
L 772.661 462.309164 
L 777.542152 461.495825 
L 792.185606 461.415476 
L 797.066758 462.081135 
L 801.947909 462.081135 
L 806.829061 463.338956 
L 816.591364 463.338956 
L 816.591364 463.338956 
" style="fill:none;stroke:#5036a8;stroke-linecap:square;stroke-width:1.5;"/>
   </g>
   <g id="line2d_86">
    <path clip-path="url(#p74250c1216)" d="M 84.418636 511.591733 
L 89.299788 511.591733 
L 94.180939 512.576361 
L 99.062091 512.576361 
L 103.943242 509.781669 
L 108.824394 509.781669 
L 113.705545 505.833317 
L 118.586697 505.833317 
L 123.467848 502.035975 
L 128.349 502.035975 
L 133.230152 499.011004 
L 138.111303 499.011004 
L 142.992455 497.147014 
L 147.873606 497.147014 
L 152.754758 496.239289 
L 157.635909 496.239289 
L 162.517061 496.075878 
L 167.398212 496.075878 
L 172.279364 495.711991 
L 177.160515 495.711991 
L 182.041667 500.210095 
L 186.922818 500.210095 
L 191.80397 496.272283 
L 196.685121 496.272283 
L 201.566273 498.712546 
L 206.447424 498.712546 
L 211.328576 483.908291 
L 216.209727 483.908291 
L 221.090879 481.324919 
L 235.734333 481.224481 
L 240.615485 482.08759 
L 245.496636 482.08759 
L 250.377788 481.723157 
L 255.258939 481.723157 
L 260.140091 481.009395 
L 265.021242 481.009395 
L 269.902394 480.084776 
L 274.783545 480.084776 
L 279.664697 478.825141 
L 284.545848 478.825141 
L 289.427 477.331268 
L 294.308152 477.331268 
L 299.189303 476.155065 
L 313.832758 476.258166 
L 318.713909 477.896063 
L 323.595061 477.896063 
L 328.476212 480.419342 
L 333.357364 480.419342 
L 338.238515 483.030507 
L 343.119667 483.030507 
L 348.000818 485.35838 
L 352.88197 485.35838 
L 357.763121 487.174348 
L 362.644273 487.174348 
L 367.525424 488.534333 
L 372.406576 488.534333 
L 377.287727 488.828547 
L 382.168879 488.828547 
L 387.05003 488.37354 
L 391.931182 488.37354 
L 396.812333 487.716958 
L 401.693485 487.716958 
L 406.574636 487.277078 
L 411.455788 487.277078 
L 416.336939 486.850178 
L 421.218091 486.850178 
L 426.099242 486.342631 
L 430.980394 486.342631 
L 435.861545 485.984303 
L 440.742697 485.984303 
L 445.623848 487.208074 
L 450.505 487.208074 
L 455.386152 490.170971 
L 460.267303 490.170971 
L 465.148455 493.681507 
L 470.029606 493.681507 
L 474.910758 496.884368 
L 479.791909 496.884368 
L 484.673061 499.317328 
L 489.554212 499.317328 
L 494.435364 500.66583 
L 509.078818 500.677973 
L 513.95997 499.229561 
L 518.841121 499.229561 
L 523.722273 496.506365 
L 528.603424 496.506365 
L 533.484576 493.037423 
L 538.365727 493.037423 
L 543.246879 489.431098 
L 548.12803 489.431098 
L 553.009182 486.023901 
L 557.890333 486.023901 
L 562.771485 483.18985 
L 567.652636 483.18985 
L 572.533788 478.451972 
L 577.414939 478.451972 
L 582.296091 469.534526 
L 587.177242 469.534526 
L 592.058394 461.046027 
L 596.939545 461.046027 
L 601.820697 455.528601 
L 606.701848 455.528601 
L 611.583 452.994406 
L 616.464152 452.994406 
L 621.345303 451.57343 
L 626.226455 451.57343 
L 631.107606 452.411808 
L 635.988758 452.411808 
L 640.869909 455.13524 
L 645.751061 455.13524 
L 650.632212 459.794483 
L 655.513364 459.794483 
L 660.394515 465.074534 
L 665.275667 465.074534 
L 670.156818 470.232063 
L 675.03797 470.232063 
L 679.919121 475.149288 
L 684.800273 475.149288 
L 689.681424 479.827167 
L 694.562576 479.827167 
L 699.443727 484.155855 
L 704.324879 484.155855 
L 709.20603 487.172269 
L 714.087182 487.172269 
L 718.968333 488.400366 
L 723.849485 488.400366 
L 728.730636 487.238778 
L 733.611788 487.238778 
L 738.492939 483.51288 
L 743.374091 483.51288 
L 748.255242 477.655023 
L 753.136394 477.655023 
L 758.017545 470.268331 
L 762.898697 470.268331 
L 767.779848 462.015588 
L 772.661 462.015588 
L 777.542152 453.527872 
L 782.423303 453.527872 
L 787.304455 445.9198 
L 792.185606 445.9198 
L 797.066758 443.405813 
L 801.947909 443.405813 
L 806.829061 444.910314 
L 816.591364 444.910314 
L 816.591364 444.910314 
" style="fill:none;stroke:#60349c;stroke-linecap:square;stroke-width:1.5;"/>
   </g>
   <g id="line2d_87">
    <path clip-path="url(#p74250c1216)" d="M 84.418636 487.643285 
L 89.299788 487.643285 
L 94.180939 497.376918 
L 99.062091 497.376918 
L 103.943242 507.517742 
L 108.824394 507.517742 
L 113.705545 517.849547 
L 118.586697 517.849547 
L 123.467848 492.214379 
L 128.349 492.214379 
L 133.230152 492.429852 
L 138.111303 492.429852 
L 142.992455 494.044935 
L 147.873606 494.044935 
L 152.754758 496.429767 
L 157.635909 496.429767 
L 162.517061 498.810312 
L 167.398212 498.810312 
L 172.279364 500.731543 
L 177.160515 500.731543 
L 182.041667 501.911975 
L 186.922818 501.911975 
L 191.80397 502.168615 
L 196.685121 502.168615 
L 201.566273 501.493224 
L 206.447424 501.493224 
L 211.328576 500.007041 
L 216.209727 500.007041 
L 221.090879 497.917383 
L 225.97203 497.917383 
L 230.853182 495.419302 
L 235.734333 495.419302 
L 240.615485 492.605631 
L 245.496636 492.605631 
L 250.377788 489.430498 
L 255.258939 489.430498 
L 260.140091 485.732178 
L 265.021242 485.732178 
L 269.902394 481.407119 
L 274.783545 481.407119 
L 279.664697 476.652122 
L 284.545848 476.652122 
L 289.427 472.479486 
L 294.308152 472.479486 
L 299.189303 471.087349 
L 304.070455 471.087349 
L 308.951606 472.542643 
L 313.832758 472.542643 
L 318.713909 475.028967 
L 323.595061 475.028967 
L 328.476212 477.852144 
L 333.357364 477.852144 
L 338.238515 480.763545 
L 343.119667 480.763545 
L 348.000818 483.777734 
L 352.88197 483.777734 
L 357.763121 486.968965 
L 362.644273 486.968965 
L 367.525424 489.651262 
L 372.406576 489.651262 
L 377.287727 492.056287 
L 382.168879 492.056287 
L 387.05003 494.295358 
L 391.931182 494.295358 
L 396.812333 495.17848 
L 401.693485 495.17848 
L 406.574636 497.32208 
L 411.455788 497.32208 
L 416.336939 494.156215 
L 421.218091 494.156215 
L 426.099242 492.41514 
L 430.980394 492.41514 
L 435.861545 491.593785 
L 440.742697 491.593785 
L 445.623848 490.869795 
L 450.505 490.869795 
L 455.386152 490.448575 
L 460.267303 490.448575 
L 465.148455 492.273399 
L 470.029606 492.273399 
L 474.910758 493.963015 
L 479.791909 493.963015 
L 484.673061 494.207237 
L 489.554212 494.207237 
L 494.435364 493.249683 
L 499.316515 493.249683 
L 504.197667 491.650847 
L 509.078818 491.650847 
L 513.95997 489.847689 
L 518.841121 489.847689 
L 523.722273 488.313203 
L 528.603424 488.313203 
L 533.484576 488.506986 
L 538.365727 488.506986 
L 543.246879 491.277776 
L 548.12803 491.277776 
L 553.009182 494.305555 
L 557.890333 494.305555 
L 562.771485 493.793548 
L 567.652636 493.793548 
L 572.533788 495.526492 
L 577.414939 495.526492 
L 582.296091 492.733302 
L 587.177242 492.733302 
L 592.058394 483.004177 
L 596.939545 483.004177 
L 601.820697 473.637483 
L 606.701848 473.637483 
L 611.583 464.963228 
L 616.464152 464.963228 
L 621.345303 462.921446 
L 626.226455 462.921446 
L 631.107606 463.545758 
L 635.988758 463.545758 
L 640.869909 465.265634 
L 645.751061 465.265634 
L 650.632212 467.15704 
L 655.513364 467.15704 
L 660.394515 468.746326 
L 665.275667 468.746326 
L 670.156818 469.933825 
L 675.03797 469.933825 
L 679.919121 470.965614 
L 684.800273 470.965614 
L 689.681424 472.293111 
L 694.562576 472.293111 
L 699.443727 474.396294 
L 714.087182 474.34624 
L 718.968333 478.877628 
L 723.849485 478.877628 
L 728.730636 481.927324 
L 733.611788 481.927324 
L 738.492939 483.243819 
L 743.374091 483.243819 
L 748.255242 482.10107 
L 753.136394 482.10107 
L 758.017545 478.457329 
L 762.898697 478.457329 
L 767.779848 472.537176 
L 772.661 472.537176 
L 777.542152 465.058427 
L 782.423303 465.058427 
L 787.304455 457.887801 
L 792.185606 457.887801 
L 797.066758 454.66785 
L 801.947909 454.66785 
L 806.829061 453.339057 
L 816.591364 453.339057 
L 816.591364 453.339057 
" style="fill:none;stroke:#70318f;stroke-linecap:square;stroke-width:1.5;"/>
   </g>
   <g id="line2d_88">
    <path clip-path="url(#p74250c1216)" d="M 84.418636 513.124715 
L 89.299788 513.124715 
L 94.180939 511.540362 
L 99.062091 511.540362 
L 103.943242 509.819934 
L 108.824394 509.819934 
L 113.705545 507.849307 
L 118.586697 507.849307 
L 123.467848 505.626782 
L 128.349 505.626782 
L 133.230152 503.26345 
L 138.111303 503.26345 
L 142.992455 500.959043 
L 147.873606 500.959043 
L 152.754758 498.887488 
L 157.635909 498.887488 
L 162.517061 497.157598 
L 167.398212 497.157598 
L 172.279364 495.822615 
L 177.160515 495.822615 
L 182.041667 494.889112 
L 186.922818 494.889112 
L 191.80397 494.32986 
L 196.685121 494.32986 
L 201.566273 494.099789 
L 216.209727 494.15104 
L 221.090879 494.446051 
L 225.97203 494.446051 
L 230.853182 494.962571 
L 235.734333 494.962571 
L 240.615485 495.687018 
L 245.496636 495.687018 
L 250.377788 496.591496 
L 255.258939 496.591496 
L 260.140091 497.600883 
L 265.021242 497.600883 
L 269.902394 498.574224 
L 274.783545 498.574224 
L 279.664697 499.349039 
L 284.545848 499.349039 
L 289.427 499.879244 
L 294.308152 499.879244 
L 299.189303 500.431398 
L 304.070455 500.431398 
L 308.951606 501.464609 
L 313.832758 501.464609 
L 318.713909 503.381408 
L 323.595061 503.381408 
L 328.476212 506.185335 
L 333.357364 506.185335 
L 338.238515 509.48209 
L 343.119667 509.48209 
L 348.000818 512.732207 
L 352.88197 512.732207 
L 357.763121 515.509753 
L 362.644273 515.509753 
L 367.525424 517.578321 
L 372.406576 517.578321 
L 377.287727 518.840136 
L 382.168879 518.840136 
L 387.05003 518.95266 
L 391.931182 518.95266 
L 396.812333 515.983796 
L 401.693485 515.983796 
L 406.574636 501.186677 
L 411.455788 501.186677 
L 416.336939 490.288231 
L 421.218091 490.288231 
L 426.099242 488.768641 
L 440.742697 488.799154 
L 445.623848 489.172196 
L 450.505 489.172196 
L 455.386152 490.883569 
L 460.267303 490.883569 
L 465.148455 497.127119 
L 470.029606 497.127119 
L 474.910758 505.740846 
L 479.791909 505.740846 
L 484.673061 513.157893 
L 489.554212 513.157893 
L 494.435364 515.165625 
L 499.316515 515.165625 
L 504.197667 512.618384 
L 518.841121 512.675897 
L 523.722273 513.559057 
L 528.603424 513.559057 
L 533.484576 512.8693 
L 538.365727 512.8693 
L 543.246879 512.735677 
L 548.12803 512.735677 
L 553.009182 513.359103 
L 557.890333 513.359103 
L 562.771485 513.014613 
L 567.652636 513.014613 
L 572.533788 512.730912 
L 577.414939 512.730912 
L 582.296091 514.404813 
L 587.177242 514.404813 
L 592.058394 514.73659 
L 596.939545 514.73659 
L 601.820697 513.721467 
L 606.701848 513.721467 
L 611.583 512.407346 
L 616.464152 512.407346 
L 621.345303 511.351392 
L 626.226455 511.351392 
L 631.107606 511.756987 
L 635.988758 511.756987 
L 640.869909 512.50413 
L 645.751061 512.50413 
L 650.632212 511.509462 
L 655.513364 511.509462 
L 660.394515 491.683702 
L 665.275667 491.683702 
L 670.156818 494.115379 
L 675.03797 494.115379 
L 679.919121 494.743974 
L 684.800273 494.743974 
L 689.681424 495.183348 
L 694.562576 495.183348 
L 699.443727 495.913346 
L 704.324879 495.913346 
L 709.20603 497.367136 
L 723.849485 497.470126 
L 728.730636 498.813988 
L 733.611788 498.813988 
L 738.492939 497.924215 
L 743.374091 497.924215 
L 748.255242 495.882015 
L 753.136394 495.882015 
L 758.017545 493.493564 
L 762.898697 493.493564 
L 767.779848 488.346876 
L 772.661 488.346876 
L 777.542152 485.814266 
L 782.423303 485.814266 
L 787.304455 478.039502 
L 792.185606 478.039502 
L 797.066758 464.114432 
L 801.947909 464.114432 
L 806.829061 462.333111 
L 816.591364 462.333111 
L 816.591364 462.333111 
" style="fill:none;stroke:#802f83;stroke-linecap:square;stroke-width:1.5;"/>
   </g>
   <g id="line2d_89">
    <path clip-path="url(#p74250c1216)" d="M 84.418636 479.945409 
L 89.299788 479.945409 
L 94.180939 479.163842 
L 99.062091 479.163842 
L 103.943242 476.851298 
L 108.824394 476.851298 
L 113.705545 474.647524 
L 118.586697 474.647524 
L 123.467848 472.998437 
L 128.349 472.998437 
L 133.230152 471.990451 
L 138.111303 471.990451 
L 142.992455 471.568633 
L 157.635909 471.656466 
L 162.517061 472.162015 
L 167.398212 472.162015 
L 172.279364 472.99896 
L 177.160515 472.99896 
L 182.041667 474.099793 
L 186.922818 474.099793 
L 191.80397 475.414186 
L 196.685121 475.414186 
L 201.566273 476.902992 
L 206.447424 476.902992 
L 211.328576 478.528263 
L 216.209727 478.528263 
L 221.090879 480.244734 
L 225.97203 480.244734 
L 230.853182 481.999858 
L 235.734333 481.999858 
L 240.615485 483.744427 
L 245.496636 483.744427 
L 250.377788 485.436267 
L 255.258939 485.436267 
L 260.140091 487.041989 
L 265.021242 487.041989 
L 269.902394 488.526686 
L 274.783545 488.526686 
L 279.664697 489.837747 
L 284.545848 489.837747 
L 289.427 490.885756 
L 294.308152 490.885756 
L 299.189303 491.53034 
L 313.832758 491.588132 
L 318.713909 490.899917 
L 323.595061 490.899917 
L 328.476212 489.512558 
L 333.357364 489.512558 
L 338.238515 487.858747 
L 343.119667 487.858747 
L 348.000818 486.58566 
L 352.88197 486.58566 
L 357.763121 486.04569 
L 382.168879 485.992377 
L 387.05003 485.543819 
L 391.931182 485.543819 
L 396.812333 484.515984 
L 401.693485 484.515984 
L 406.574636 482.908416 
L 411.455788 482.908416 
L 416.336939 480.818754 
L 421.218091 480.818754 
L 426.099242 478.409483 
L 430.980394 478.409483 
L 435.861545 475.871478 
L 440.742697 475.871478 
L 445.623848 473.319035 
L 450.505 473.319035 
L 455.386152 470.675415 
L 460.267303 470.675415 
L 465.148455 468.931954 
L 470.029606 468.931954 
L 474.910758 464.196339 
L 479.791909 464.196339 
L 484.673061 461.510839 
L 489.554212 461.510839 
L 494.435364 461.397657 
L 499.316515 461.397657 
L 504.197667 465.485486 
L 509.078818 465.485486 
L 513.95997 467.31999 
L 518.841121 467.31999 
L 523.722273 464.506686 
L 528.603424 464.506686 
L 533.484576 463.492059 
L 538.365727 463.492059 
L 543.246879 469.938395 
L 548.12803 469.938395 
L 553.009182 473.245003 
L 557.890333 473.245003 
L 562.771485 475.940771 
L 567.652636 475.940771 
L 572.533788 477.899176 
L 577.414939 477.899176 
L 582.296091 479.358018 
L 587.177242 479.358018 
L 592.058394 480.515697 
L 596.939545 480.515697 
L 601.820697 481.554905 
L 606.701848 481.554905 
L 611.583 482.69055 
L 616.464152 482.69055 
L 621.345303 484.153818 
L 626.226455 484.153818 
L 631.107606 486.151799 
L 635.988758 486.151799 
L 640.869909 488.831465 
L 645.751061 488.831465 
L 650.632212 492.235699 
L 655.513364 492.235699 
L 660.394515 496.267647 
L 665.275667 496.267647 
L 670.156818 500.714882 
L 675.03797 500.714882 
L 679.919121 505.318884 
L 684.800273 505.318884 
L 689.681424 509.919345 
L 694.562576 509.919345 
L 699.443727 514.514544 
L 704.324879 514.514544 
L 709.20603 518.692916 
L 714.087182 518.692916 
L 718.968333 521.514099 
L 723.849485 521.514099 
L 728.730636 522.37489 
L 733.611788 522.37489 
L 738.492939 517.832534 
L 743.374091 517.832534 
L 748.255242 482.354355 
L 753.136394 482.354355 
L 758.017545 492.458822 
L 762.898697 492.458822 
L 767.779848 522.781818 
L 772.661 522.781818 
L 777.542152 513.743778 
L 782.423303 513.743778 
L 787.304455 508.831029 
L 792.185606 508.831029 
L 797.066758 480.961764 
L 801.947909 480.961764 
L 806.829061 461.448427 
L 816.591364 461.448427 
L 816.591364 461.448427 
" style="fill:none;stroke:#8f2d78;stroke-linecap:square;stroke-width:1.5;"/>
   </g>
   <g id="line2d_90">
    <path clip-path="url(#p74250c1216)" d="M 84.418636 441.335287 
L 89.299788 441.335287 
L 94.180939 443.051476 
L 99.062091 443.051476 
L 103.943242 445.47362 
L 108.824394 445.47362 
L 113.705545 448.131029 
L 118.586697 448.131029 
L 123.467848 450.366723 
L 128.349 450.366723 
L 133.230152 452.64453 
L 138.111303 452.64453 
L 142.992455 454.897908 
L 147.873606 454.897908 
L 152.754758 456.719562 
L 157.635909 456.719562 
L 162.517061 458.222469 
L 167.398212 458.222469 
L 172.279364 459.323657 
L 177.160515 459.323657 
L 182.041667 459.973421 
L 186.922818 459.973421 
L 191.80397 460.204122 
L 196.685121 460.204122 
L 201.566273 460.063702 
L 206.447424 460.063702 
L 211.328576 459.628668 
L 216.209727 459.628668 
L 221.090879 459.042255 
L 225.97203 459.042255 
L 230.853182 458.51893 
L 235.734333 458.51893 
L 240.615485 458.314134 
L 245.496636 458.314134 
L 250.377788 458.674677 
L 255.258939 458.674677 
L 260.140091 459.734257 
L 265.021242 459.734257 
L 269.902394 461.368446 
L 274.783545 461.368446 
L 279.664697 463.282222 
L 284.545848 463.282222 
L 289.427 465.222558 
L 294.308152 465.222558 
L 299.189303 467.0512 
L 304.070455 467.0512 
L 308.951606 468.724043 
L 313.832758 468.724043 
L 318.713909 470.248458 
L 323.595061 470.248458 
L 328.476212 471.654782 
L 333.357364 471.654782 
L 338.238515 473.037901 
L 343.119667 473.037901 
L 348.000818 474.578057 
L 352.88197 474.578057 
L 357.763121 476.362653 
L 362.644273 476.362653 
L 367.525424 478.241761 
L 372.406576 478.241761 
L 377.287727 479.963062 
L 382.168879 479.963062 
L 387.05003 481.36749 
L 391.931182 481.36749 
L 396.812333 482.435051 
L 401.693485 482.435051 
L 406.574636 483.220561 
L 411.455788 483.220561 
L 416.336939 483.810366 
L 421.218091 483.810366 
L 426.099242 484.281266 
L 430.980394 484.281266 
L 435.861545 484.573837 
L 450.505 484.575272 
L 465.148455 484.84795 
L 470.029606 484.84795 
L 474.910758 484.97775 
L 489.554212 484.870834 
L 494.435364 484.390899 
L 499.316515 484.390899 
L 504.197667 482.823962 
L 509.078818 482.823962 
L 513.95997 478.950787 
L 518.841121 478.950787 
L 523.722273 473.257885 
L 528.603424 473.257885 
L 533.484576 467.724289 
L 538.365727 467.724289 
L 543.246879 464.246134 
L 548.12803 464.246134 
L 553.009182 462.055673 
L 557.890333 462.055673 
L 562.771485 459.996285 
L 567.652636 459.996285 
L 572.533788 457.484026 
L 577.414939 457.484026 
L 582.296091 454.577992 
L 587.177242 454.577992 
L 592.058394 451.657729 
L 596.939545 451.657729 
L 601.820697 449.181016 
L 606.701848 449.181016 
L 611.583 447.559505 
L 616.464152 447.559505 
L 621.345303 447.056426 
L 626.226455 447.056426 
L 631.107606 447.810389 
L 635.988758 447.810389 
L 640.869909 449.867931 
L 645.751061 449.867931 
L 650.632212 453.204176 
L 655.513364 453.204176 
L 660.394515 457.706478 
L 665.275667 457.706478 
L 670.156818 463.166788 
L 675.03797 463.166788 
L 679.919121 469.301214 
L 684.800273 469.301214 
L 689.681424 475.800797 
L 694.562576 475.800797 
L 699.443727 482.392538 
L 704.324879 482.392538 
L 709.20603 488.864257 
L 714.087182 488.864257 
L 718.968333 495.013042 
L 723.849485 495.013042 
L 728.730636 500.510919 
L 733.611788 500.510919 
L 738.492939 504.673388 
L 743.374091 504.673388 
L 748.255242 506.403233 
L 753.136394 506.403233 
L 758.017545 504.511948 
L 762.898697 504.511948 
L 767.779848 497.885464 
L 772.661 497.885464 
L 777.542152 497.697025 
L 782.423303 497.697025 
L 787.304455 465.940835 
L 792.185606 465.940835 
L 797.066758 447.262073 
L 801.947909 447.262073 
L 806.829061 430.506182 
L 816.591364 430.506182 
L 816.591364 430.506182 
" style="fill:none;stroke:#9f2a6b;stroke-linecap:square;stroke-width:1.5;"/>
   </g>
   <g id="line2d_91">
    <path clip-path="url(#p74250c1216)" d="M 84.418636 378.044263 
L 89.299788 378.044263 
L 94.180939 382.180582 
L 99.062091 382.180582 
L 103.943242 386.795239 
L 108.824394 386.795239 
L 113.705545 391.780804 
L 118.586697 391.780804 
L 123.467848 396.57928 
L 128.349 396.57928 
L 133.230152 401.063464 
L 138.111303 401.063464 
L 142.992455 404.941082 
L 147.873606 404.941082 
L 152.754758 407.74106 
L 157.635909 407.74106 
L 162.517061 409.492327 
L 167.398212 409.492327 
L 172.279364 410.035589 
L 177.160515 410.035589 
L 182.041667 409.444984 
L 186.922818 409.444984 
L 191.80397 408.055121 
L 196.685121 408.055121 
L 201.566273 406.223319 
L 206.447424 406.223319 
L 211.328576 404.319084 
L 216.209727 404.319084 
L 221.090879 402.754789 
L 225.97203 402.754789 
L 230.853182 401.944418 
L 235.734333 401.944418 
L 240.615485 402.09421 
L 245.496636 402.09421 
L 250.377788 403.177829 
L 255.258939 403.177829 
L 260.140091 405.164561 
L 265.021242 405.164561 
L 269.902394 408.029497 
L 274.783545 408.029497 
L 279.664697 411.731473 
L 284.545848 411.731473 
L 289.427 416.196827 
L 294.308152 416.196827 
L 299.189303 421.264694 
L 304.070455 421.264694 
L 308.951606 426.656328 
L 313.832758 426.656328 
L 318.713909 432.262048 
L 323.595061 432.262048 
L 328.476212 438.018201 
L 333.357364 438.018201 
L 338.238515 443.759978 
L 343.119667 443.759978 
L 348.000818 449.376679 
L 352.88197 449.376679 
L 357.763121 454.806174 
L 362.644273 454.806174 
L 367.525424 461.517726 
L 372.406576 461.517726 
L 377.287727 467.79537 
L 382.168879 467.79537 
L 387.05003 471.907459 
L 391.931182 471.907459 
L 396.812333 476.14678 
L 401.693485 476.14678 
L 406.574636 479.929617 
L 411.455788 479.929617 
L 416.336939 483.068385 
L 421.218091 483.068385 
L 426.099242 485.632983 
L 430.980394 485.632983 
L 435.861545 487.925292 
L 440.742697 487.925292 
L 445.623848 489.938896 
L 450.505 489.938896 
L 455.386152 491.280491 
L 460.267303 491.280491 
L 465.148455 491.474621 
L 470.029606 491.474621 
L 474.910758 490.142353 
L 479.791909 490.142353 
L 484.673061 487.258437 
L 489.554212 487.258437 
L 494.435364 482.800706 
L 499.316515 482.800706 
L 504.197667 476.492614 
L 509.078818 476.492614 
L 513.95997 468.51625 
L 518.841121 468.51625 
L 523.722273 460.494736 
L 528.603424 460.494736 
L 533.484576 453.220653 
L 538.365727 453.220653 
L 543.246879 445.652409 
L 548.12803 445.652409 
L 553.009182 437.265542 
L 557.890333 437.265542 
L 562.771485 428.400699 
L 567.652636 428.400699 
L 572.533788 419.728745 
L 577.414939 419.728745 
L 582.296091 411.8164 
L 587.177242 411.8164 
L 592.058394 405.062365 
L 596.939545 405.062365 
L 601.820697 399.708606 
L 606.701848 399.708606 
L 611.583 395.827552 
L 616.464152 395.827552 
L 621.345303 393.356723 
L 626.226455 393.356723 
L 631.107606 392.170213 
L 645.751061 392.118118 
L 650.632212 393.053395 
L 655.513364 393.053395 
L 660.394515 394.867923 
L 665.275667 394.867923 
L 670.156818 397.497378 
L 675.03797 397.497378 
L 679.919121 400.882174 
L 684.800273 400.882174 
L 689.681424 404.92791 
L 694.562576 404.92791 
L 699.443727 409.452062 
L 704.324879 409.452062 
L 709.20603 414.055291 
L 714.087182 414.055291 
L 718.968333 417.965466 
L 723.849485 417.965466 
L 728.730636 420.005752 
L 733.611788 420.005752 
L 738.492939 418.94145 
L 743.374091 418.94145 
L 748.255242 414.239327 
L 753.136394 414.239327 
L 758.017545 406.240044 
L 762.898697 406.240044 
L 767.779848 396.5811 
L 772.661 396.5811 
L 777.542152 387.846797 
L 782.423303 387.846797 
L 787.304455 379.369059 
L 792.185606 379.369059 
L 797.066758 372.230908 
L 801.947909 372.230908 
L 806.829061 368.403794 
L 816.591364 368.403794 
L 816.591364 368.403794 
" style="fill:none;stroke:#af285f;stroke-linecap:square;stroke-width:1.5;"/>
   </g>
   <g id="line2d_92">
    <path clip-path="url(#p74250c1216)" d="M 84.418636 297.618182 
L 816.591364 297.618182 
L 816.591364 297.618182 
" style="fill:none;stroke:#bf2552;stroke-linecap:square;stroke-width:1.5;"/>
   </g>
   <g id="patch_9">
    <path d="M 47.81 534.04 
L 47.81 286.36 
" style="fill:none;stroke:#000000;stroke-linecap:square;stroke-linejoin:miter;stroke-width:0.8;"/>
   </g>
   <g id="patch_10">
    <path d="M 853.2 534.04 
L 853.2 286.36 
" style="fill:none;stroke:#000000;stroke-linecap:square;stroke-linejoin:miter;stroke-width:0.8;"/>
   </g>
   <g id="patch_11">
    <path d="M 47.81 534.04 
L 853.2 534.04 
" style="fill:none;stroke:#000000;stroke-linecap:square;stroke-linejoin:miter;stroke-width:0.8;"/>
   </g>
   <g id="patch_12">
    <path d="M 47.81 286.36 
L 853.2 286.36 
" style="fill:none;stroke:#000000;stroke-linecap:square;stroke-linejoin:miter;stroke-width:0.8;"/>
   </g>
  </g>
 </g>
 <defs>
  <clipPath id="pd59e03a059">
   <rect height="247.68" width="805.39" x="47.81" y="10.8"/>
  </clipPath>
  <clipPath id="p74250c1216">
   <rect height="247.68" width="805.39" x="47.81" y="286.36"/>
  </clipPath>
 </defs>
</svg>
