<?xml version="1.0" encoding="utf-8" standalone="no"?>
<!DOCTYPE svg PUBLIC "-//W3C//DTD SVG 1.1//EN"
  "http://www.w3.org/Graphics/SVG/1.1/DTD/svg11.dtd">
<!-- Created with matplotlib (https://matplotlib.org/) -->
<svg height="576pt" version="1.1" viewBox="0 0 864 576" width="864pt" xmlns="http://www.w3.org/2000/svg" xmlns:xlink="http://www.w3.org/1999/xlink">
 <defs>
  <style type="text/css">
*{stroke-linecap:butt;stroke-linejoin:round;}
  </style>
 </defs>
 <g id="figure_1">
  <g id="patch_1">
   <path d="M 0 576 
L 864 576 
L 864 0 
L 0 0 
z
" style="fill:#ffffff;"/>
  </g>
  <g id="axes_1">
   <g id="patch_2">
    <path d="M 47.81 258.48 
L 853.2 258.48 
L 853.2 10.8 
L 47.81 10.8 
z
" style="fill:#ffffff;"/>
   </g>
   <g id="matplotlib.axis_1">
    <g id="xtick_1">
     <g id="line2d_1">
      <path clip-path="url(#pc0d6ab1bfd)" d="M 84.418636 258.48 
L 84.418636 10.8 
" style="fill:none;stroke:#b0b0b0;stroke-linecap:square;stroke-width:0.8;"/>
     </g>
     <g id="line2d_2">
      <defs>
       <path d="M 0 0 
L 0 3.5 
" id="m8b7c432791" style="stroke:#000000;stroke-width:0.8;"/>
      </defs>
      <g>
       <use style="stroke:#000000;stroke-width:0.8;" x="84.418636" xlink:href="#m8b7c432791" y="258.48"/>
      </g>
     </g>
     <g id="text_1">
      <!-- 0 -->
      <defs>
       <path d="M 31.78125 66.40625 
Q 24.171875 66.40625 20.328125 58.90625 
Q 16.5 51.421875 16.5 36.375 
Q 16.5 21.390625 20.328125 13.890625 
Q 24.171875 6.390625 31.78125 6.390625 
Q 39.453125 6.390625 43.28125 13.890625 
Q 47.125 21.390625 47.125 36.375 
Q 47.125 51.421875 43.28125 58.90625 
Q 39.453125 66.40625 31.78125 66.40625 
z
M 31.78125 74.21875 
Q 44.046875 74.21875 50.515625 64.515625 
Q 56.984375 54.828125 56.984375 36.375 
Q 56.984375 17.96875 50.515625 8.265625 
Q 44.046875 -1.421875 31.78125 -1.421875 
Q 19.53125 -1.421875 13.0625 8.265625 
Q 6.59375 17.96875 6.59375 36.375 
Q 6.59375 54.828125 13.0625 64.515625 
Q 19.53125 74.21875 31.78125 74.21875 
z
" id="DejaVuSans-48"/>
      </defs>
      <g transform="translate(81.237386 273.078438)scale(0.1 -0.1)">
       <use xlink:href="#DejaVuSans-48"/>
      </g>
     </g>
    </g>
    <g id="xtick_2">
     <g id="line2d_3">
      <path clip-path="url(#pc0d6ab1bfd)" d="M 262.769704 258.48 
L 262.769704 10.8 
" style="fill:none;stroke:#b0b0b0;stroke-linecap:square;stroke-width:0.8;"/>
     </g>
     <g id="line2d_4">
      <g>
       <use style="stroke:#000000;stroke-width:0.8;" x="262.769704" xlink:href="#m8b7c432791" y="258.48"/>
      </g>
     </g>
     <g id="text_2">
      <!-- 5 -->
      <defs>
       <path d="M 10.796875 72.90625 
L 49.515625 72.90625 
L 49.515625 64.59375 
L 19.828125 64.59375 
L 19.828125 46.734375 
Q 21.96875 47.46875 24.109375 47.828125 
Q 26.265625 48.1875 28.421875 48.1875 
Q 40.625 48.1875 47.75 41.5 
Q 54.890625 34.8125 54.890625 23.390625 
Q 54.890625 11.625 47.5625 5.09375 
Q 40.234375 -1.421875 26.90625 -1.421875 
Q 22.3125 -1.421875 17.546875 -0.640625 
Q 12.796875 0.140625 7.71875 1.703125 
L 7.71875 11.625 
Q 12.109375 9.234375 16.796875 8.0625 
Q 21.484375 6.890625 26.703125 6.890625 
Q 35.15625 6.890625 40.078125 11.328125 
Q 45.015625 15.765625 45.015625 23.390625 
Q 45.015625 31 40.078125 35.4375 
Q 35.15625 39.890625 26.703125 39.890625 
Q 22.75 39.890625 18.8125 39.015625 
Q 14.890625 38.140625 10.796875 36.28125 
z
" id="DejaVuSans-53"/>
      </defs>
      <g transform="translate(259.588454 273.078438)scale(0.1 -0.1)">
       <use xlink:href="#DejaVuSans-53"/>
      </g>
     </g>
    </g>
    <g id="xtick_3">
     <g id="line2d_5">
      <path clip-path="url(#pc0d6ab1bfd)" d="M 441.120772 258.48 
L 441.120772 10.8 
" style="fill:none;stroke:#b0b0b0;stroke-linecap:square;stroke-width:0.8;"/>
     </g>
     <g id="line2d_6">
      <g>
       <use style="stroke:#000000;stroke-width:0.8;" x="441.120772" xlink:href="#m8b7c432791" y="258.48"/>
      </g>
     </g>
     <g id="text_3">
      <!-- 10 -->
      <defs>
       <path d="M 12.40625 8.296875 
L 28.515625 8.296875 
L 28.515625 63.921875 
L 10.984375 60.40625 
L 10.984375 69.390625 
L 28.421875 72.90625 
L 38.28125 72.90625 
L 38.28125 8.296875 
L 54.390625 8.296875 
L 54.390625 0 
L 12.40625 0 
z
" id="DejaVuSans-49"/>
      </defs>
      <g transform="translate(434.758272 273.078438)scale(0.1 -0.1)">
       <use xlink:href="#DejaVuSans-49"/>
       <use x="63.623047" xlink:href="#DejaVuSans-48"/>
      </g>
     </g>
    </g>
    <g id="xtick_4">
     <g id="line2d_7">
      <path clip-path="url(#pc0d6ab1bfd)" d="M 619.47184 258.48 
L 619.47184 10.8 
" style="fill:none;stroke:#b0b0b0;stroke-linecap:square;stroke-width:0.8;"/>
     </g>
     <g id="line2d_8">
      <g>
       <use style="stroke:#000000;stroke-width:0.8;" x="619.47184" xlink:href="#m8b7c432791" y="258.48"/>
      </g>
     </g>
     <g id="text_4">
      <!-- 15 -->
      <g transform="translate(613.10934 273.078438)scale(0.1 -0.1)">
       <use xlink:href="#DejaVuSans-49"/>
       <use x="63.623047" xlink:href="#DejaVuSans-53"/>
      </g>
     </g>
    </g>
    <g id="xtick_5">
     <g id="line2d_9">
      <path clip-path="url(#pc0d6ab1bfd)" d="M 797.822907 258.48 
L 797.822907 10.8 
" style="fill:none;stroke:#b0b0b0;stroke-linecap:square;stroke-width:0.8;"/>
     </g>
     <g id="line2d_10">
      <g>
       <use style="stroke:#000000;stroke-width:0.8;" x="797.822907" xlink:href="#m8b7c432791" y="258.48"/>
      </g>
     </g>
     <g id="text_5">
      <!-- 20 -->
      <defs>
       <path d="M 19.1875 8.296875 
L 53.609375 8.296875 
L 53.609375 0 
L 7.328125 0 
L 7.328125 8.296875 
Q 12.9375 14.109375 22.625 23.890625 
Q 32.328125 33.6875 34.8125 36.53125 
Q 39.546875 41.84375 41.421875 45.53125 
Q 43.3125 49.21875 43.3125 52.78125 
Q 43.3125 58.59375 39.234375 62.25 
Q 35.15625 65.921875 28.609375 65.921875 
Q 23.96875 65.921875 18.8125 64.3125 
Q 13.671875 62.703125 7.8125 59.421875 
L 7.8125 69.390625 
Q 13.765625 71.78125 18.9375 73 
Q 24.125 74.21875 28.421875 74.21875 
Q 39.75 74.21875 46.484375 68.546875 
Q 53.21875 62.890625 53.21875 53.421875 
Q 53.21875 48.921875 51.53125 44.890625 
Q 49.859375 40.875 45.40625 35.40625 
Q 44.1875 33.984375 37.640625 27.21875 
Q 31.109375 20.453125 19.1875 8.296875 
z
" id="DejaVuSans-50"/>
      </defs>
      <g transform="translate(791.460407 273.078438)scale(0.1 -0.1)">
       <use xlink:href="#DejaVuSans-50"/>
       <use x="63.623047" xlink:href="#DejaVuSans-48"/>
      </g>
     </g>
    </g>
   </g>
   <g id="matplotlib.axis_2">
    <g id="ytick_1">
     <g id="line2d_11">
      <path clip-path="url(#pc0d6ab1bfd)" d="M 47.81 247.221818 
L 853.2 247.221818 
" style="fill:none;stroke:#b0b0b0;stroke-linecap:square;stroke-width:0.8;"/>
     </g>
     <g id="line2d_12">
      <defs>
       <path d="M 0 0 
L -3.5 0 
" id="mfee3208d10" style="stroke:#000000;stroke-width:0.8;"/>
      </defs>
      <g>
       <use style="stroke:#000000;stroke-width:0.8;" x="47.81" xlink:href="#mfee3208d10" y="247.221818"/>
      </g>
     </g>
     <g id="text_6">
      <!-- 0.0 -->
      <defs>
       <path d="M 10.6875 12.40625 
L 21 12.40625 
L 21 0 
L 10.6875 0 
z
" id="DejaVuSans-46"/>
      </defs>
      <g transform="translate(24.906875 251.021037)scale(0.1 -0.1)">
       <use xlink:href="#DejaVuSans-48"/>
       <use x="63.623047" xlink:href="#DejaVuSans-46"/>
       <use x="95.410156" xlink:href="#DejaVuSans-48"/>
      </g>
     </g>
    </g>
    <g id="ytick_2">
     <g id="line2d_13">
      <path clip-path="url(#pc0d6ab1bfd)" d="M 47.81 211.385912 
L 853.2 211.385912 
" style="fill:none;stroke:#b0b0b0;stroke-linecap:square;stroke-width:0.8;"/>
     </g>
     <g id="line2d_14">
      <g>
       <use style="stroke:#000000;stroke-width:0.8;" x="47.81" xlink:href="#mfee3208d10" y="211.385912"/>
      </g>
     </g>
     <g id="text_7">
      <!-- 0.5 -->
      <g transform="translate(24.906875 215.185131)scale(0.1 -0.1)">
       <use xlink:href="#DejaVuSans-48"/>
       <use x="63.623047" xlink:href="#DejaVuSans-46"/>
       <use x="95.410156" xlink:href="#DejaVuSans-53"/>
      </g>
     </g>
    </g>
    <g id="ytick_3">
     <g id="line2d_15">
      <path clip-path="url(#pc0d6ab1bfd)" d="M 47.81 175.550007 
L 853.2 175.550007 
" style="fill:none;stroke:#b0b0b0;stroke-linecap:square;stroke-width:0.8;"/>
     </g>
     <g id="line2d_16">
      <g>
       <use style="stroke:#000000;stroke-width:0.8;" x="47.81" xlink:href="#mfee3208d10" y="175.550007"/>
      </g>
     </g>
     <g id="text_8">
      <!-- 1.0 -->
      <g transform="translate(24.906875 179.349225)scale(0.1 -0.1)">
       <use xlink:href="#DejaVuSans-49"/>
       <use x="63.623047" xlink:href="#DejaVuSans-46"/>
       <use x="95.410156" xlink:href="#DejaVuSans-48"/>
      </g>
     </g>
    </g>
    <g id="ytick_4">
     <g id="line2d_17">
      <path clip-path="url(#pc0d6ab1bfd)" d="M 47.81 139.714101 
L 853.2 139.714101 
" style="fill:none;stroke:#b0b0b0;stroke-linecap:square;stroke-width:0.8;"/>
     </g>
     <g id="line2d_18">
      <g>
       <use style="stroke:#000000;stroke-width:0.8;" x="47.81" xlink:href="#mfee3208d10" y="139.714101"/>
      </g>
     </g>
     <g id="text_9">
      <!-- 1.5 -->
      <g transform="translate(24.906875 143.51332)scale(0.1 -0.1)">
       <use xlink:href="#DejaVuSans-49"/>
       <use x="63.623047" xlink:href="#DejaVuSans-46"/>
       <use x="95.410156" xlink:href="#DejaVuSans-53"/>
      </g>
     </g>
    </g>
    <g id="ytick_5">
     <g id="line2d_19">
      <path clip-path="url(#pc0d6ab1bfd)" d="M 47.81 103.878195 
L 853.2 103.878195 
" style="fill:none;stroke:#b0b0b0;stroke-linecap:square;stroke-width:0.8;"/>
     </g>
     <g id="line2d_20">
      <g>
       <use style="stroke:#000000;stroke-width:0.8;" x="47.81" xlink:href="#mfee3208d10" y="103.878195"/>
      </g>
     </g>
     <g id="text_10">
      <!-- 2.0 -->
      <g transform="translate(24.906875 107.677414)scale(0.1 -0.1)">
       <use xlink:href="#DejaVuSans-50"/>
       <use x="63.623047" xlink:href="#DejaVuSans-46"/>
       <use x="95.410156" xlink:href="#DejaVuSans-48"/>
      </g>
     </g>
    </g>
    <g id="ytick_6">
     <g id="line2d_21">
      <path clip-path="url(#pc0d6ab1bfd)" d="M 47.81 68.04229 
L 853.2 68.04229 
" style="fill:none;stroke:#b0b0b0;stroke-linecap:square;stroke-width:0.8;"/>
     </g>
     <g id="line2d_22">
      <g>
       <use style="stroke:#000000;stroke-width:0.8;" x="47.81" xlink:href="#mfee3208d10" y="68.04229"/>
      </g>
     </g>
     <g id="text_11">
      <!-- 2.5 -->
      <g transform="translate(24.906875 71.841508)scale(0.1 -0.1)">
       <use xlink:href="#DejaVuSans-50"/>
       <use x="63.623047" xlink:href="#DejaVuSans-46"/>
       <use x="95.410156" xlink:href="#DejaVuSans-53"/>
      </g>
     </g>
    </g>
    <g id="ytick_7">
     <g id="line2d_23">
      <path clip-path="url(#pc0d6ab1bfd)" d="M 47.81 32.206384 
L 853.2 32.206384 
" style="fill:none;stroke:#b0b0b0;stroke-linecap:square;stroke-width:0.8;"/>
     </g>
     <g id="line2d_24">
      <g>
       <use style="stroke:#000000;stroke-width:0.8;" x="47.81" xlink:href="#mfee3208d10" y="32.206384"/>
      </g>
     </g>
     <g id="text_12">
      <!-- 3.0 -->
      <defs>
       <path d="M 40.578125 39.3125 
Q 47.65625 37.796875 51.625 33 
Q 55.609375 28.21875 55.609375 21.1875 
Q 55.609375 10.40625 48.1875 4.484375 
Q 40.765625 -1.421875 27.09375 -1.421875 
Q 22.515625 -1.421875 17.65625 -0.515625 
Q 12.796875 0.390625 7.625 2.203125 
L 7.625 11.71875 
Q 11.71875 9.328125 16.59375 8.109375 
Q 21.484375 6.890625 26.8125 6.890625 
Q 36.078125 6.890625 40.9375 10.546875 
Q 45.796875 14.203125 45.796875 21.1875 
Q 45.796875 27.640625 41.28125 31.265625 
Q 36.765625 34.90625 28.71875 34.90625 
L 20.21875 34.90625 
L 20.21875 43.015625 
L 29.109375 43.015625 
Q 36.375 43.015625 40.234375 45.921875 
Q 44.09375 48.828125 44.09375 54.296875 
Q 44.09375 59.90625 40.109375 62.90625 
Q 36.140625 65.921875 28.71875 65.921875 
Q 24.65625 65.921875 20.015625 65.03125 
Q 15.375 64.15625 9.8125 62.3125 
L 9.8125 71.09375 
Q 15.4375 72.65625 20.34375 73.4375 
Q 25.25 74.21875 29.59375 74.21875 
Q 40.828125 74.21875 47.359375 69.109375 
Q 53.90625 64.015625 53.90625 55.328125 
Q 53.90625 49.265625 50.4375 45.09375 
Q 46.96875 40.921875 40.578125 39.3125 
z
" id="DejaVuSans-51"/>
      </defs>
      <g transform="translate(24.906875 36.005603)scale(0.1 -0.1)">
       <use xlink:href="#DejaVuSans-51"/>
       <use x="63.623047" xlink:href="#DejaVuSans-46"/>
       <use x="95.410156" xlink:href="#DejaVuSans-48"/>
      </g>
     </g>
    </g>
    <g id="text_13">
     <!-- Phase Angle (rad) -->
     <defs>
      <path d="M 19.671875 64.796875 
L 19.671875 37.40625 
L 32.078125 37.40625 
Q 38.96875 37.40625 42.71875 40.96875 
Q 46.484375 44.53125 46.484375 51.125 
Q 46.484375 57.671875 42.71875 61.234375 
Q 38.96875 64.796875 32.078125 64.796875 
z
M 9.8125 72.90625 
L 32.078125 72.90625 
Q 44.34375 72.90625 50.609375 67.359375 
Q 56.890625 61.8125 56.890625 51.125 
Q 56.890625 40.328125 50.609375 34.8125 
Q 44.34375 29.296875 32.078125 29.296875 
L 19.671875 29.296875 
L 19.671875 0 
L 9.8125 0 
z
" id="DejaVuSans-80"/>
      <path d="M 54.890625 33.015625 
L 54.890625 0 
L 45.90625 0 
L 45.90625 32.71875 
Q 45.90625 40.484375 42.875 44.328125 
Q 39.84375 48.1875 33.796875 48.1875 
Q 26.515625 48.1875 22.3125 43.546875 
Q 18.109375 38.921875 18.109375 30.90625 
L 18.109375 0 
L 9.078125 0 
L 9.078125 75.984375 
L 18.109375 75.984375 
L 18.109375 46.1875 
Q 21.34375 51.125 25.703125 53.5625 
Q 30.078125 56 35.796875 56 
Q 45.21875 56 50.046875 50.171875 
Q 54.890625 44.34375 54.890625 33.015625 
z
" id="DejaVuSans-104"/>
      <path d="M 34.28125 27.484375 
Q 23.390625 27.484375 19.1875 25 
Q 14.984375 22.515625 14.984375 16.5 
Q 14.984375 11.71875 18.140625 8.90625 
Q 21.296875 6.109375 26.703125 6.109375 
Q 34.1875 6.109375 38.703125 11.40625 
Q 43.21875 16.703125 43.21875 25.484375 
L 43.21875 27.484375 
z
M 52.203125 31.203125 
L 52.203125 0 
L 43.21875 0 
L 43.21875 8.296875 
Q 40.140625 3.328125 35.546875 0.953125 
Q 30.953125 -1.421875 24.3125 -1.421875 
Q 15.921875 -1.421875 10.953125 3.296875 
Q 6 8.015625 6 15.921875 
Q 6 25.140625 12.171875 29.828125 
Q 18.359375 34.515625 30.609375 34.515625 
L 43.21875 34.515625 
L 43.21875 35.40625 
Q 43.21875 41.609375 39.140625 45 
Q 35.0625 48.390625 27.6875 48.390625 
Q 23 48.390625 18.546875 47.265625 
Q 14.109375 46.140625 10.015625 43.890625 
L 10.015625 52.203125 
Q 14.9375 54.109375 19.578125 55.046875 
Q 24.21875 56 28.609375 56 
Q 40.484375 56 46.34375 49.84375 
Q 52.203125 43.703125 52.203125 31.203125 
z
" id="DejaVuSans-97"/>
      <path d="M 44.28125 53.078125 
L 44.28125 44.578125 
Q 40.484375 46.53125 36.375 47.5 
Q 32.28125 48.484375 27.875 48.484375 
Q 21.1875 48.484375 17.84375 46.4375 
Q 14.5 44.390625 14.5 40.28125 
Q 14.5 37.15625 16.890625 35.375 
Q 19.28125 33.59375 26.515625 31.984375 
L 29.59375 31.296875 
Q 39.15625 29.25 43.1875 25.515625 
Q 47.21875 21.78125 47.21875 15.09375 
Q 47.21875 7.46875 41.1875 3.015625 
Q 35.15625 -1.421875 24.609375 -1.421875 
Q 20.21875 -1.421875 15.453125 -0.5625 
Q 10.6875 0.296875 5.421875 2 
L 5.421875 11.28125 
Q 10.40625 8.6875 15.234375 7.390625 
Q 20.0625 6.109375 24.8125 6.109375 
Q 31.15625 6.109375 34.5625 8.28125 
Q 37.984375 10.453125 37.984375 14.40625 
Q 37.984375 18.0625 35.515625 20.015625 
Q 33.0625 21.96875 24.703125 23.78125 
L 21.578125 24.515625 
Q 13.234375 26.265625 9.515625 29.90625 
Q 5.8125 33.546875 5.8125 39.890625 
Q 5.8125 47.609375 11.28125 51.796875 
Q 16.75 56 26.8125 56 
Q 31.78125 56 36.171875 55.265625 
Q 40.578125 54.546875 44.28125 53.078125 
z
" id="DejaVuSans-115"/>
      <path d="M 56.203125 29.59375 
L 56.203125 25.203125 
L 14.890625 25.203125 
Q 15.484375 15.921875 20.484375 11.0625 
Q 25.484375 6.203125 34.421875 6.203125 
Q 39.59375 6.203125 44.453125 7.46875 
Q 49.3125 8.734375 54.109375 11.28125 
L 54.109375 2.78125 
Q 49.265625 0.734375 44.1875 -0.34375 
Q 39.109375 -1.421875 33.890625 -1.421875 
Q 20.796875 -1.421875 13.15625 6.1875 
Q 5.515625 13.8125 5.515625 26.8125 
Q 5.515625 40.234375 12.765625 48.109375 
Q 20.015625 56 32.328125 56 
Q 43.359375 56 49.78125 48.890625 
Q 56.203125 41.796875 56.203125 29.59375 
z
M 47.21875 32.234375 
Q 47.125 39.59375 43.09375 43.984375 
Q 39.0625 48.390625 32.421875 48.390625 
Q 24.90625 48.390625 20.390625 44.140625 
Q 15.875 39.890625 15.1875 32.171875 
z
" id="DejaVuSans-101"/>
      <path id="DejaVuSans-32"/>
      <path d="M 34.1875 63.1875 
L 20.796875 26.90625 
L 47.609375 26.90625 
z
M 28.609375 72.90625 
L 39.796875 72.90625 
L 67.578125 0 
L 57.328125 0 
L 50.6875 18.703125 
L 17.828125 18.703125 
L 11.1875 0 
L 0.78125 0 
z
" id="DejaVuSans-65"/>
      <path d="M 54.890625 33.015625 
L 54.890625 0 
L 45.90625 0 
L 45.90625 32.71875 
Q 45.90625 40.484375 42.875 44.328125 
Q 39.84375 48.1875 33.796875 48.1875 
Q 26.515625 48.1875 22.3125 43.546875 
Q 18.109375 38.921875 18.109375 30.90625 
L 18.109375 0 
L 9.078125 0 
L 9.078125 54.6875 
L 18.109375 54.6875 
L 18.109375 46.1875 
Q 21.34375 51.125 25.703125 53.5625 
Q 30.078125 56 35.796875 56 
Q 45.21875 56 50.046875 50.171875 
Q 54.890625 44.34375 54.890625 33.015625 
z
" id="DejaVuSans-110"/>
      <path d="M 45.40625 27.984375 
Q 45.40625 37.75 41.375 43.109375 
Q 37.359375 48.484375 30.078125 48.484375 
Q 22.859375 48.484375 18.828125 43.109375 
Q 14.796875 37.75 14.796875 27.984375 
Q 14.796875 18.265625 18.828125 12.890625 
Q 22.859375 7.515625 30.078125 7.515625 
Q 37.359375 7.515625 41.375 12.890625 
Q 45.40625 18.265625 45.40625 27.984375 
z
M 54.390625 6.78125 
Q 54.390625 -7.171875 48.1875 -13.984375 
Q 42 -20.796875 29.203125 -20.796875 
Q 24.46875 -20.796875 20.265625 -20.09375 
Q 16.0625 -19.390625 12.109375 -17.921875 
L 12.109375 -9.1875 
Q 16.0625 -11.328125 19.921875 -12.34375 
Q 23.78125 -13.375 27.78125 -13.375 
Q 36.625 -13.375 41.015625 -8.765625 
Q 45.40625 -4.15625 45.40625 5.171875 
L 45.40625 9.625 
Q 42.625 4.78125 38.28125 2.390625 
Q 33.9375 0 27.875 0 
Q 17.828125 0 11.671875 7.65625 
Q 5.515625 15.328125 5.515625 27.984375 
Q 5.515625 40.671875 11.671875 48.328125 
Q 17.828125 56 27.875 56 
Q 33.9375 56 38.28125 53.609375 
Q 42.625 51.21875 45.40625 46.390625 
L 45.40625 54.6875 
L 54.390625 54.6875 
z
" id="DejaVuSans-103"/>
      <path d="M 9.421875 75.984375 
L 18.40625 75.984375 
L 18.40625 0 
L 9.421875 0 
z
" id="DejaVuSans-108"/>
      <path d="M 31 75.875 
Q 24.46875 64.65625 21.28125 53.65625 
Q 18.109375 42.671875 18.109375 31.390625 
Q 18.109375 20.125 21.3125 9.0625 
Q 24.515625 -2 31 -13.1875 
L 23.1875 -13.1875 
Q 15.875 -1.703125 12.234375 9.375 
Q 8.59375 20.453125 8.59375 31.390625 
Q 8.59375 42.28125 12.203125 53.3125 
Q 15.828125 64.359375 23.1875 75.875 
z
" id="DejaVuSans-40"/>
      <path d="M 41.109375 46.296875 
Q 39.59375 47.171875 37.8125 47.578125 
Q 36.03125 48 33.890625 48 
Q 26.265625 48 22.1875 43.046875 
Q 18.109375 38.09375 18.109375 28.8125 
L 18.109375 0 
L 9.078125 0 
L 9.078125 54.6875 
L 18.109375 54.6875 
L 18.109375 46.1875 
Q 20.953125 51.171875 25.484375 53.578125 
Q 30.03125 56 36.53125 56 
Q 37.453125 56 38.578125 55.875 
Q 39.703125 55.765625 41.0625 55.515625 
z
" id="DejaVuSans-114"/>
      <path d="M 45.40625 46.390625 
L 45.40625 75.984375 
L 54.390625 75.984375 
L 54.390625 0 
L 45.40625 0 
L 45.40625 8.203125 
Q 42.578125 3.328125 38.25 0.953125 
Q 33.9375 -1.421875 27.875 -1.421875 
Q 17.96875 -1.421875 11.734375 6.484375 
Q 5.515625 14.40625 5.515625 27.296875 
Q 5.515625 40.1875 11.734375 48.09375 
Q 17.96875 56 27.875 56 
Q 33.9375 56 38.25 53.625 
Q 42.578125 51.265625 45.40625 46.390625 
z
M 14.796875 27.296875 
Q 14.796875 17.390625 18.875 11.75 
Q 22.953125 6.109375 30.078125 6.109375 
Q 37.203125 6.109375 41.296875 11.75 
Q 45.40625 17.390625 45.40625 27.296875 
Q 45.40625 37.203125 41.296875 42.84375 
Q 37.203125 48.484375 30.078125 48.484375 
Q 22.953125 48.484375 18.875 42.84375 
Q 14.796875 37.203125 14.796875 27.296875 
z
" id="DejaVuSans-100"/>
      <path d="M 8.015625 75.875 
L 15.828125 75.875 
Q 23.140625 64.359375 26.78125 53.3125 
Q 30.421875 42.28125 30.421875 31.390625 
Q 30.421875 20.453125 26.78125 9.375 
Q 23.140625 -1.703125 15.828125 -13.1875 
L 8.015625 -13.1875 
Q 14.5 -2 17.703125 9.0625 
Q 20.90625 20.125 20.90625 31.390625 
Q 20.90625 42.671875 17.703125 53.65625 
Q 14.5 64.65625 8.015625 75.875 
z
" id="DejaVuSans-41"/>
     </defs>
     <g transform="translate(18.827187 179.17125)rotate(-90)scale(0.1 -0.1)">
      <use xlink:href="#DejaVuSans-80"/>
      <use x="60.302734" xlink:href="#DejaVuSans-104"/>
      <use x="123.681641" xlink:href="#DejaVuSans-97"/>
      <use x="184.960938" xlink:href="#DejaVuSans-115"/>
      <use x="237.060547" xlink:href="#DejaVuSans-101"/>
      <use x="298.583984" xlink:href="#DejaVuSans-32"/>
      <use x="330.371094" xlink:href="#DejaVuSans-65"/>
      <use x="398.779297" xlink:href="#DejaVuSans-110"/>
      <use x="462.158203" xlink:href="#DejaVuSans-103"/>
      <use x="525.634766" xlink:href="#DejaVuSans-108"/>
      <use x="553.417969" xlink:href="#DejaVuSans-101"/>
      <use x="614.941406" xlink:href="#DejaVuSans-32"/>
      <use x="646.728516" xlink:href="#DejaVuSans-40"/>
      <use x="685.742188" xlink:href="#DejaVuSans-114"/>
      <use x="726.855469" xlink:href="#DejaVuSans-97"/>
      <use x="788.134766" xlink:href="#DejaVuSans-100"/>
      <use x="851.611328" xlink:href="#DejaVuSans-41"/>
     </g>
    </g>
   </g>
   <g id="line2d_25">
    <path clip-path="url(#pc0d6ab1bfd)" d="M 84.418636 247.221818 
L 816.591364 247.221818 
L 816.591364 247.221818 
" style="fill:none;stroke:#303bc1;stroke-linecap:square;stroke-width:1.5;"/>
   </g>
   <g id="line2d_26">
    <path clip-path="url(#pc0d6ab1bfd)" d="M 84.418636 222.203636 
L 182.041667 222.29501 
L 206.447424 222.571632 
L 230.853182 223.048859 
L 265.021242 223.964944 
L 313.832758 225.261757 
L 367.525424 226.602245 
L 387.05003 227.338856 
L 401.693485 228.070854 
L 416.336939 228.980203 
L 435.861545 230.441756 
L 460.267303 232.529315 
L 484.673061 234.898721 
L 513.95997 237.772158 
L 533.484576 239.446894 
L 553.009182 240.837248 
L 572.533788 241.948027 
L 592.058394 242.829964 
L 621.345303 243.883497 
L 679.919121 245.693963 
L 709.20603 246.450051 
L 733.611788 246.889378 
L 758.017545 247.130981 
L 792.185606 247.219612 
L 811.710212 247.221348 
L 811.710212 247.221348 
" style="fill:none;stroke:#4039b5;stroke-linecap:square;stroke-width:1.5;"/>
   </g>
   <g id="line2d_27">
    <path clip-path="url(#pc0d6ab1bfd)" d="M 84.418636 197.185455 
L 167.398212 197.240752 
L 186.922818 197.507291 
L 206.447424 198.00227 
L 225.97203 198.751058 
L 245.496636 199.724163 
L 279.664697 201.71699 
L 357.763121 206.456005 
L 377.287727 207.959587 
L 391.931182 209.294573 
L 406.574636 210.811986 
L 421.218091 212.526157 
L 435.861545 214.464028 
L 450.505 216.634241 
L 465.148455 219.029463 
L 489.554212 223.302058 
L 509.078818 226.684396 
L 523.722273 229.031236 
L 538.365727 231.147017 
L 553.009182 233.016809 
L 567.652636 234.658207 
L 587.177242 236.560251 
L 611.583 238.642395 
L 655.513364 242.084621 
L 684.800273 244.178771 
L 704.324879 245.34051 
L 718.968333 246.031542 
L 733.611788 246.550997 
L 753.136394 246.987566 
L 772.661 247.185311 
L 801.947909 247.214663 
L 811.710212 247.220624 
L 811.710212 247.220624 
" style="fill:none;stroke:#5036a8;stroke-linecap:square;stroke-width:1.5;"/>
   </g>
   <g id="line2d_28">
    <path clip-path="url(#pc0d6ab1bfd)" d="M 84.418636 172.167273 
L 162.517061 172.224869 
L 182.041667 172.564429 
L 196.685121 173.008072 
L 211.328576 173.620564 
L 225.97203 174.413388 
L 240.615485 175.403078 
L 255.258939 176.580166 
L 279.664697 178.822303 
L 304.070455 181.285623 
L 328.476212 183.960943 
L 348.000818 186.302946 
L 367.525424 188.896748 
L 387.05003 191.770669 
L 401.693485 194.16066 
L 416.336939 196.803315 
L 430.980394 199.726493 
L 445.623848 202.909921 
L 465.148455 207.425372 
L 499.316515 215.391408 
L 513.95997 218.530733 
L 528.603424 221.390025 
L 543.246879 223.961773 
L 557.890333 226.282181 
L 577.414939 229.092915 
L 606.701848 233.019225 
L 660.394515 239.995315 
L 679.919121 242.252933 
L 694.562576 243.711269 
L 709.20603 244.916097 
L 723.849485 245.845958 
L 738.492939 246.505682 
L 753.136394 246.923539 
L 772.661 247.186541 
L 792.185606 247.203128 
L 811.710212 247.220038 
L 811.710212 247.220038 
" style="fill:none;stroke:#60349c;stroke-linecap:square;stroke-width:1.5;"/>
   </g>
   <g id="line2d_29">
    <path clip-path="url(#pc0d6ab1bfd)" d="M 84.418636 147.149091 
L 138.111303 147.13942 
L 147.873606 147.373895 
L 157.635909 147.77349 
L 167.398212 148.363224 
L 177.160515 149.160264 
L 186.922818 150.172549 
L 196.685121 151.397665 
L 206.447424 152.821852 
L 216.209727 154.419883 
L 230.853182 157.060994 
L 269.902394 164.354797 
L 284.545848 166.72562 
L 294.308152 168.116565 
L 308.951606 169.923589 
L 323.595061 171.470603 
L 352.88197 174.416043 
L 362.644273 175.56447 
L 372.406576 176.888685 
L 382.168879 178.431354 
L 391.931182 180.21981 
L 401.693485 182.261892 
L 411.455788 184.543585 
L 421.218091 187.034468 
L 435.861545 191.073026 
L 455.386152 196.787059 
L 489.554212 206.884948 
L 504.197667 210.981259 
L 518.841121 214.793723 
L 533.484576 218.285841 
L 548.12803 221.443747 
L 562.771485 224.280715 
L 577.414939 226.852449 
L 596.939545 230.032764 
L 631.107606 235.327701 
L 655.513364 238.891203 
L 670.156818 240.836642 
L 684.800273 242.564078 
L 699.443727 244.025587 
L 714.087182 245.194373 
L 728.730636 246.065469 
L 743.374091 246.658761 
L 758.017545 247.015067 
L 777.542152 247.216069 
L 811.710212 247.219948 
L 811.710212 247.219948 
" style="fill:none;stroke:#70318f;stroke-linecap:square;stroke-width:1.5;"/>
   </g>
   <g id="line2d_30">
    <path clip-path="url(#pc0d6ab1bfd)" d="M 84.418636 122.130909 
L 142.992455 122.181855 
L 152.754758 122.477607 
L 162.517061 122.964536 
L 172.279364 123.679471 
L 182.041667 124.651524 
L 191.80397 125.899466 
L 201.566273 127.429556 
L 211.328576 129.234035 
L 221.090879 131.290512 
L 230.853182 133.562522 
L 245.496636 137.26554 
L 284.545848 147.434991 
L 294.308152 149.745542 
L 304.070455 151.89376 
L 313.832758 153.874041 
L 328.476212 156.56188 
L 348.000818 159.810874 
L 367.525424 163.082397 
L 377.287727 164.885722 
L 387.05003 166.880591 
L 396.812333 169.113709 
L 406.574636 171.613954 
L 416.336939 174.386186 
L 426.099242 177.407565 
L 435.861545 180.6328 
L 450.505 185.734334 
L 489.554212 199.646796 
L 504.197667 204.526018 
L 513.95997 207.567053 
L 523.722273 210.414349 
L 533.484576 213.062477 
L 543.246879 215.516097 
L 553.009182 217.788755 
L 567.652636 220.904782 
L 582.296091 223.755203 
L 606.701848 228.180784 
L 640.869909 234.432711 
L 660.394515 237.899994 
L 675.03797 240.282526 
L 684.800273 241.710986 
L 694.562576 242.973743 
L 704.324879 244.054291 
L 714.087182 244.948852 
L 723.849485 245.663414 
L 733.611788 246.21334 
L 748.255242 246.777248 
L 762.898697 247.091622 
L 777.542152 247.21913 
L 806.829061 247.214232 
L 811.710212 247.219616 
L 811.710212 247.219616 
" style="fill:none;stroke:#802f83;stroke-linecap:square;stroke-width:1.5;"/>
   </g>
   <g id="line2d_31">
    <path clip-path="url(#pc0d6ab1bfd)" d="M 84.418636 97.112727 
L 142.992455 97.160433 
L 152.754758 97.449523 
L 162.517061 97.926222 
L 172.279364 98.627959 
L 182.041667 99.585461 
L 191.80397 100.820246 
L 201.566273 102.342491 
L 211.328576 104.149534 
L 221.090879 106.225267 
L 230.853182 108.540677 
L 240.615485 111.055638 
L 255.258939 115.09552 
L 304.070455 128.927347 
L 323.595061 134.060196 
L 362.644273 144.129487 
L 377.287727 148.255836 
L 387.05003 151.229553 
L 396.812333 154.418244 
L 406.574636 157.839612 
L 416.336939 161.496725 
L 426.099242 165.377198 
L 435.861545 169.453062 
L 450.505 175.837715 
L 484.673061 190.957481 
L 494.435364 195.032596 
L 504.197667 198.874844 
L 513.95997 202.435083 
L 523.722273 205.685115 
L 533.484576 208.619236 
L 543.246879 211.253243 
L 553.009182 213.621808 
L 562.771485 215.773722 
L 577.414939 218.721529 
L 621.345303 227.254217 
L 640.869909 231.418323 
L 670.156818 237.771769 
L 679.919121 239.722385 
L 689.681424 241.495121 
L 699.443727 243.042122 
L 709.20603 244.336929 
L 718.968333 245.37151 
L 728.730636 246.144371 
L 738.492939 246.678188 
L 748.255242 247.010445 
L 758.017545 247.153987 
L 806.829061 247.213435 
L 811.710212 247.219561 
L 811.710212 247.219561 
" style="fill:none;stroke:#8f2d78;stroke-linecap:square;stroke-width:1.5;"/>
   </g>
   <g id="line2d_32">
    <path clip-path="url(#pc0d6ab1bfd)" d="M 84.418636 72.094545 
L 113.705545 71.951874 
L 133.230152 71.93377 
L 147.873606 72.198887 
L 157.635909 72.59984 
L 167.398212 73.233524 
L 177.160515 74.138182 
L 186.922818 75.342049 
L 196.685121 76.860853 
L 206.447424 78.696064 
L 216.209727 80.834092 
L 225.97203 83.246661 
L 235.734333 85.892472 
L 250.377788 90.184408 
L 279.664697 99.227357 
L 299.189303 105.089053 
L 313.832758 109.274254 
L 362.644273 122.945618 
L 372.406576 125.987508 
L 382.168879 129.257544 
L 391.931182 132.797259 
L 401.693485 136.633663 
L 411.455788 140.775765 
L 421.218091 145.212368 
L 430.980394 149.911435 
L 440.742697 154.821687 
L 460.267303 165.002125 
L 479.791909 175.150409 
L 489.554212 180.0212 
L 499.316515 184.667146 
L 509.078818 189.042796 
L 518.841121 193.125912 
L 528.603424 196.917039 
L 538.365727 200.436366 
L 548.12803 203.71657 
L 557.890333 206.797153 
L 572.533788 211.131615 
L 592.058394 216.585323 
L 635.988758 228.486936 
L 655.513364 233.578315 
L 670.156818 237.111727 
L 679.919121 239.251954 
L 689.681424 241.173866 
L 699.443727 242.846444 
L 709.20603 244.249544 
L 718.968333 245.37566 
L 728.730636 246.230458 
L 738.492939 246.832257 
L 748.255242 247.211453 
L 762.898697 246.988913 
L 782.423303 247.027767 
L 811.710212 247.216612 
L 811.710212 247.216612 
" style="fill:none;stroke:#9f2a6b;stroke-linecap:square;stroke-width:1.5;"/>
   </g>
   <g id="line2d_33">
    <path clip-path="url(#pc0d6ab1bfd)" d="M 84.418636 47.076364 
L 108.824394 46.95499 
L 128.349 46.871943 
L 142.992455 47.044123 
L 152.754758 47.368715 
L 162.517061 47.920608 
L 172.279364 48.743882 
L 182.041667 49.872663 
L 191.80397 51.328419 
L 201.566273 53.118124 
L 211.328576 55.233422 
L 221.090879 57.650864 
L 230.853182 60.333318 
L 240.615485 63.232578 
L 255.258939 67.865721 
L 304.070455 83.703728 
L 333.357364 92.715277 
L 348.000818 97.310131 
L 357.763121 100.526939 
L 367.525424 103.934686 
L 377.287727 107.58747 
L 387.05003 111.529988 
L 396.812333 115.792819 
L 406.574636 120.388858 
L 416.336939 125.310764 
L 426.099242 130.529325 
L 435.861545 135.994143 
L 450.505 144.500846 
L 474.910758 158.814567 
L 484.673061 164.344172 
L 494.435364 169.649783 
L 504.197667 174.677518 
L 513.95997 179.398557 
L 523.722273 183.810159 
L 533.484576 187.930549 
L 543.246879 191.792275 
L 553.009182 195.437563 
L 567.652636 200.604643 
L 587.177242 207.18172 
L 655.513364 229.828469 
L 665.275667 232.818193 
L 675.03797 235.613148 
L 684.800273 238.16218 
L 694.562576 240.421918 
L 704.324879 242.360899 
L 714.087182 243.962449 
L 723.849485 245.226084 
L 733.611788 246.167392 
L 743.374091 246.816517 
L 753.136394 247.215476 
L 767.779848 246.987412 
L 787.304455 247.049335 
L 811.710212 247.21555 
L 811.710212 247.21555 
" style="fill:none;stroke:#af285f;stroke-linecap:square;stroke-width:1.5;"/>
   </g>
   <g id="line2d_34">
    <path clip-path="url(#pc0d6ab1bfd)" d="M 84.418636 22.058182 
L 108.824394 22.195034 
L 128.349 22.309626 
L 142.992455 22.160808 
L 147.873606 22.087481 
L 157.635909 22.517629 
L 167.398212 23.213755 
L 177.160515 24.221742 
L 186.922818 25.576369 
L 196.685121 27.29867 
L 206.447424 29.39416 
L 216.209727 31.852108 
L 225.97203 34.64598 
L 235.734333 37.73518 
L 245.496636 41.068083 
L 260.140091 46.395773 
L 284.545848 55.67012 
L 308.951606 64.8791 
L 352.88197 81.272421 
L 362.644273 85.15939 
L 372.406576 89.259748 
L 382.168879 93.632667 
L 391.931182 98.32942 
L 401.693485 103.386494 
L 411.455788 108.817732 
L 421.218091 114.608168 
L 430.980394 120.712279 
L 440.742697 127.0567 
L 470.029606 146.416589 
L 479.791909 152.626658 
L 489.554212 158.588875 
L 499.316515 164.250256 
L 509.078818 169.577847 
L 518.841121 174.561537 
L 528.603424 179.213104 
L 538.365727 183.562614 
L 548.12803 187.653645 
L 557.890333 191.538114 
L 572.533788 197.097714 
L 606.701848 209.643484 
L 650.632212 225.791503 
L 660.394515 229.195957 
L 670.156818 232.421146 
L 679.919121 235.408774 
L 689.681424 238.105987 
L 699.443727 240.470282 
L 709.20603 242.4734 
L 718.968333 244.103824 
L 728.730636 245.367716 
L 738.492939 246.288278 
L 748.255242 246.903689 
L 753.136394 247.11217 
L 758.017545 247.179793 
L 767.779848 247.017437 
L 782.423303 247.013229 
L 811.710212 247.215091 
L 811.710212 247.215091 
" style="fill:none;stroke:#bf2552;stroke-linecap:square;stroke-width:1.5;"/>
   </g>
   <g id="patch_3">
    <path d="M 47.81 258.48 
L 47.81 10.8 
" style="fill:none;stroke:#000000;stroke-linecap:square;stroke-linejoin:miter;stroke-width:0.8;"/>
   </g>
   <g id="patch_4">
    <path d="M 853.2 258.48 
L 853.2 10.8 
" style="fill:none;stroke:#000000;stroke-linecap:square;stroke-linejoin:miter;stroke-width:0.8;"/>
   </g>
   <g id="patch_5">
    <path d="M 47.81 258.48 
L 853.2 258.48 
" style="fill:none;stroke:#000000;stroke-linecap:square;stroke-linejoin:miter;stroke-width:0.8;"/>
   </g>
   <g id="patch_6">
    <path d="M 47.81 10.8 
L 853.2 10.8 
" style="fill:none;stroke:#000000;stroke-linecap:square;stroke-linejoin:miter;stroke-width:0.8;"/>
   </g>
   <g id="legend_1">
    <g id="patch_7">
     <path d="M 787.959375 165.58125 
L 846.2 165.58125 
Q 848.2 165.58125 848.2 163.58125 
L 848.2 17.8 
Q 848.2 15.8 846.2 15.8 
L 787.959375 15.8 
Q 785.959375 15.8 785.959375 17.8 
L 785.959375 163.58125 
Q 785.959375 165.58125 787.959375 165.58125 
z
" style="fill:#ffffff;opacity:0.8;stroke:#cccccc;stroke-linejoin:miter;"/>
    </g>
    <g id="line2d_35">
     <path d="M 789.959375 23.898438 
L 809.959375 23.898438 
" style="fill:none;stroke:#303bc1;stroke-linecap:square;stroke-width:1.5;"/>
    </g>
    <g id="line2d_36"/>
    <g id="text_14">
     <!-- S/C 0 -->
     <defs>
      <path d="M 53.515625 70.515625 
L 53.515625 60.890625 
Q 47.90625 63.578125 42.921875 64.890625 
Q 37.9375 66.21875 33.296875 66.21875 
Q 25.25 66.21875 20.875 63.09375 
Q 16.5 59.96875 16.5 54.203125 
Q 16.5 49.359375 19.40625 46.890625 
Q 22.3125 44.4375 30.421875 42.921875 
L 36.375 41.703125 
Q 47.40625 39.59375 52.65625 34.296875 
Q 57.90625 29 57.90625 20.125 
Q 57.90625 9.515625 50.796875 4.046875 
Q 43.703125 -1.421875 29.984375 -1.421875 
Q 24.8125 -1.421875 18.96875 -0.25 
Q 13.140625 0.921875 6.890625 3.21875 
L 6.890625 13.375 
Q 12.890625 10.015625 18.65625 8.296875 
Q 24.421875 6.59375 29.984375 6.59375 
Q 38.421875 6.59375 43.015625 9.90625 
Q 47.609375 13.234375 47.609375 19.390625 
Q 47.609375 24.75 44.3125 27.78125 
Q 41.015625 30.8125 33.5 32.328125 
L 27.484375 33.5 
Q 16.453125 35.6875 11.515625 40.375 
Q 6.59375 45.0625 6.59375 53.421875 
Q 6.59375 63.09375 13.40625 68.65625 
Q 20.21875 74.21875 32.171875 74.21875 
Q 37.3125 74.21875 42.625 73.28125 
Q 47.953125 72.359375 53.515625 70.515625 
z
" id="DejaVuSans-83"/>
      <path d="M 25.390625 72.90625 
L 33.6875 72.90625 
L 8.296875 -9.28125 
L 0 -9.28125 
z
" id="DejaVuSans-47"/>
      <path d="M 64.40625 67.28125 
L 64.40625 56.890625 
Q 59.421875 61.53125 53.78125 63.8125 
Q 48.140625 66.109375 41.796875 66.109375 
Q 29.296875 66.109375 22.65625 58.46875 
Q 16.015625 50.828125 16.015625 36.375 
Q 16.015625 21.96875 22.65625 14.328125 
Q 29.296875 6.6875 41.796875 6.6875 
Q 48.140625 6.6875 53.78125 8.984375 
Q 59.421875 11.28125 64.40625 15.921875 
L 64.40625 5.609375 
Q 59.234375 2.09375 53.4375 0.328125 
Q 47.65625 -1.421875 41.21875 -1.421875 
Q 24.65625 -1.421875 15.125 8.703125 
Q 5.609375 18.84375 5.609375 36.375 
Q 5.609375 53.953125 15.125 64.078125 
Q 24.65625 74.21875 41.21875 74.21875 
Q 47.75 74.21875 53.53125 72.484375 
Q 59.328125 70.75 64.40625 67.28125 
z
" id="DejaVuSans-67"/>
     </defs>
     <g transform="translate(817.959375 27.398438)scale(0.1 -0.1)">
      <use xlink:href="#DejaVuSans-83"/>
      <use x="63.476562" xlink:href="#DejaVuSans-47"/>
      <use x="97.167969" xlink:href="#DejaVuSans-67"/>
      <use x="166.992188" xlink:href="#DejaVuSans-32"/>
      <use x="198.779297" xlink:href="#DejaVuSans-48"/>
     </g>
    </g>
    <g id="line2d_37">
     <path d="M 789.959375 38.576563 
L 809.959375 38.576563 
" style="fill:none;stroke:#4039b5;stroke-linecap:square;stroke-width:1.5;"/>
    </g>
    <g id="line2d_38"/>
    <g id="text_15">
     <!-- S/C 1 -->
     <g transform="translate(817.959375 42.076563)scale(0.1 -0.1)">
      <use xlink:href="#DejaVuSans-83"/>
      <use x="63.476562" xlink:href="#DejaVuSans-47"/>
      <use x="97.167969" xlink:href="#DejaVuSans-67"/>
      <use x="166.992188" xlink:href="#DejaVuSans-32"/>
      <use x="198.779297" xlink:href="#DejaVuSans-49"/>
     </g>
    </g>
    <g id="line2d_39">
     <path d="M 789.959375 53.254688 
L 809.959375 53.254688 
" style="fill:none;stroke:#5036a8;stroke-linecap:square;stroke-width:1.5;"/>
    </g>
    <g id="line2d_40"/>
    <g id="text_16">
     <!-- S/C 2 -->
     <g transform="translate(817.959375 56.754688)scale(0.1 -0.1)">
      <use xlink:href="#DejaVuSans-83"/>
      <use x="63.476562" xlink:href="#DejaVuSans-47"/>
      <use x="97.167969" xlink:href="#DejaVuSans-67"/>
      <use x="166.992188" xlink:href="#DejaVuSans-32"/>
      <use x="198.779297" xlink:href="#DejaVuSans-50"/>
     </g>
    </g>
    <g id="line2d_41">
     <path d="M 789.959375 67.932813 
L 809.959375 67.932813 
" style="fill:none;stroke:#60349c;stroke-linecap:square;stroke-width:1.5;"/>
    </g>
    <g id="line2d_42"/>
    <g id="text_17">
     <!-- S/C 3 -->
     <g transform="translate(817.959375 71.432813)scale(0.1 -0.1)">
      <use xlink:href="#DejaVuSans-83"/>
      <use x="63.476562" xlink:href="#DejaVuSans-47"/>
      <use x="97.167969" xlink:href="#DejaVuSans-67"/>
      <use x="166.992188" xlink:href="#DejaVuSans-32"/>
      <use x="198.779297" xlink:href="#DejaVuSans-51"/>
     </g>
    </g>
    <g id="line2d_43">
     <path d="M 789.959375 82.610938 
L 809.959375 82.610938 
" style="fill:none;stroke:#70318f;stroke-linecap:square;stroke-width:1.5;"/>
    </g>
    <g id="line2d_44"/>
    <g id="text_18">
     <!-- S/C 4 -->
     <defs>
      <path d="M 37.796875 64.3125 
L 12.890625 25.390625 
L 37.796875 25.390625 
z
M 35.203125 72.90625 
L 47.609375 72.90625 
L 47.609375 25.390625 
L 58.015625 25.390625 
L 58.015625 17.1875 
L 47.609375 17.1875 
L 47.609375 0 
L 37.796875 0 
L 37.796875 17.1875 
L 4.890625 17.1875 
L 4.890625 26.703125 
z
" id="DejaVuSans-52"/>
     </defs>
     <g transform="translate(817.959375 86.110938)scale(0.1 -0.1)">
      <use xlink:href="#DejaVuSans-83"/>
      <use x="63.476562" xlink:href="#DejaVuSans-47"/>
      <use x="97.167969" xlink:href="#DejaVuSans-67"/>
      <use x="166.992188" xlink:href="#DejaVuSans-32"/>
      <use x="198.779297" xlink:href="#DejaVuSans-52"/>
     </g>
    </g>
    <g id="line2d_45">
     <path d="M 789.959375 97.289063 
L 809.959375 97.289063 
" style="fill:none;stroke:#802f83;stroke-linecap:square;stroke-width:1.5;"/>
    </g>
    <g id="line2d_46"/>
    <g id="text_19">
     <!-- S/C 5 -->
     <g transform="translate(817.959375 100.789063)scale(0.1 -0.1)">
      <use xlink:href="#DejaVuSans-83"/>
      <use x="63.476562" xlink:href="#DejaVuSans-47"/>
      <use x="97.167969" xlink:href="#DejaVuSans-67"/>
      <use x="166.992188" xlink:href="#DejaVuSans-32"/>
      <use x="198.779297" xlink:href="#DejaVuSans-53"/>
     </g>
    </g>
    <g id="line2d_47">
     <path d="M 789.959375 111.967188 
L 809.959375 111.967188 
" style="fill:none;stroke:#8f2d78;stroke-linecap:square;stroke-width:1.5;"/>
    </g>
    <g id="line2d_48"/>
    <g id="text_20">
     <!-- S/C 6 -->
     <defs>
      <path d="M 33.015625 40.375 
Q 26.375 40.375 22.484375 35.828125 
Q 18.609375 31.296875 18.609375 23.390625 
Q 18.609375 15.53125 22.484375 10.953125 
Q 26.375 6.390625 33.015625 6.390625 
Q 39.65625 6.390625 43.53125 10.953125 
Q 47.40625 15.53125 47.40625 23.390625 
Q 47.40625 31.296875 43.53125 35.828125 
Q 39.65625 40.375 33.015625 40.375 
z
M 52.59375 71.296875 
L 52.59375 62.3125 
Q 48.875 64.0625 45.09375 64.984375 
Q 41.3125 65.921875 37.59375 65.921875 
Q 27.828125 65.921875 22.671875 59.328125 
Q 17.53125 52.734375 16.796875 39.40625 
Q 19.671875 43.65625 24.015625 45.921875 
Q 28.375 48.1875 33.59375 48.1875 
Q 44.578125 48.1875 50.953125 41.515625 
Q 57.328125 34.859375 57.328125 23.390625 
Q 57.328125 12.15625 50.6875 5.359375 
Q 44.046875 -1.421875 33.015625 -1.421875 
Q 20.359375 -1.421875 13.671875 8.265625 
Q 6.984375 17.96875 6.984375 36.375 
Q 6.984375 53.65625 15.1875 63.9375 
Q 23.390625 74.21875 37.203125 74.21875 
Q 40.921875 74.21875 44.703125 73.484375 
Q 48.484375 72.75 52.59375 71.296875 
z
" id="DejaVuSans-54"/>
     </defs>
     <g transform="translate(817.959375 115.467188)scale(0.1 -0.1)">
      <use xlink:href="#DejaVuSans-83"/>
      <use x="63.476562" xlink:href="#DejaVuSans-47"/>
      <use x="97.167969" xlink:href="#DejaVuSans-67"/>
      <use x="166.992188" xlink:href="#DejaVuSans-32"/>
      <use x="198.779297" xlink:href="#DejaVuSans-54"/>
     </g>
    </g>
    <g id="line2d_49">
     <path d="M 789.959375 126.645313 
L 809.959375 126.645313 
" style="fill:none;stroke:#9f2a6b;stroke-linecap:square;stroke-width:1.5;"/>
    </g>
    <g id="line2d_50"/>
    <g id="text_21">
     <!-- S/C 7 -->
     <defs>
      <path d="M 8.203125 72.90625 
L 55.078125 72.90625 
L 55.078125 68.703125 
L 28.609375 0 
L 18.3125 0 
L 43.21875 64.59375 
L 8.203125 64.59375 
z
" id="DejaVuSans-55"/>
     </defs>
     <g transform="translate(817.959375 130.145313)scale(0.1 -0.1)">
      <use xlink:href="#DejaVuSans-83"/>
      <use x="63.476562" xlink:href="#DejaVuSans-47"/>
      <use x="97.167969" xlink:href="#DejaVuSans-67"/>
      <use x="166.992188" xlink:href="#DejaVuSans-32"/>
      <use x="198.779297" xlink:href="#DejaVuSans-55"/>
     </g>
    </g>
    <g id="line2d_51">
     <path d="M 789.959375 141.323438 
L 809.959375 141.323438 
" style="fill:none;stroke:#af285f;stroke-linecap:square;stroke-width:1.5;"/>
    </g>
    <g id="line2d_52"/>
    <g id="text_22">
     <!-- S/C 8 -->
     <defs>
      <path d="M 31.78125 34.625 
Q 24.75 34.625 20.71875 30.859375 
Q 16.703125 27.09375 16.703125 20.515625 
Q 16.703125 13.921875 20.71875 10.15625 
Q 24.75 6.390625 31.78125 6.390625 
Q 38.8125 6.390625 42.859375 10.171875 
Q 46.921875 13.96875 46.921875 20.515625 
Q 46.921875 27.09375 42.890625 30.859375 
Q 38.875 34.625 31.78125 34.625 
z
M 21.921875 38.8125 
Q 15.578125 40.375 12.03125 44.71875 
Q 8.5 49.078125 8.5 55.328125 
Q 8.5 64.0625 14.71875 69.140625 
Q 20.953125 74.21875 31.78125 74.21875 
Q 42.671875 74.21875 48.875 69.140625 
Q 55.078125 64.0625 55.078125 55.328125 
Q 55.078125 49.078125 51.53125 44.71875 
Q 48 40.375 41.703125 38.8125 
Q 48.828125 37.15625 52.796875 32.3125 
Q 56.78125 27.484375 56.78125 20.515625 
Q 56.78125 9.90625 50.3125 4.234375 
Q 43.84375 -1.421875 31.78125 -1.421875 
Q 19.734375 -1.421875 13.25 4.234375 
Q 6.78125 9.90625 6.78125 20.515625 
Q 6.78125 27.484375 10.78125 32.3125 
Q 14.796875 37.15625 21.921875 38.8125 
z
M 18.3125 54.390625 
Q 18.3125 48.734375 21.84375 45.5625 
Q 25.390625 42.390625 31.78125 42.390625 
Q 38.140625 42.390625 41.71875 45.5625 
Q 45.3125 48.734375 45.3125 54.390625 
Q 45.3125 60.0625 41.71875 63.234375 
Q 38.140625 66.40625 31.78125 66.40625 
Q 25.390625 66.40625 21.84375 63.234375 
Q 18.3125 60.0625 18.3125 54.390625 
z
" id="DejaVuSans-56"/>
     </defs>
     <g transform="translate(817.959375 144.823438)scale(0.1 -0.1)">
      <use xlink:href="#DejaVuSans-83"/>
      <use x="63.476562" xlink:href="#DejaVuSans-47"/>
      <use x="97.167969" xlink:href="#DejaVuSans-67"/>
      <use x="166.992188" xlink:href="#DejaVuSans-32"/>
      <use x="198.779297" xlink:href="#DejaVuSans-56"/>
     </g>
    </g>
    <g id="line2d_53">
     <path d="M 789.959375 156.001563 
L 809.959375 156.001563 
" style="fill:none;stroke:#bf2552;stroke-linecap:square;stroke-width:1.5;"/>
    </g>
    <g id="line2d_54"/>
    <g id="text_23">
     <!-- S/C 9 -->
     <defs>
      <path d="M 10.984375 1.515625 
L 10.984375 10.5 
Q 14.703125 8.734375 18.5 7.8125 
Q 22.3125 6.890625 25.984375 6.890625 
Q 35.75 6.890625 40.890625 13.453125 
Q 46.046875 20.015625 46.78125 33.40625 
Q 43.953125 29.203125 39.59375 26.953125 
Q 35.25 24.703125 29.984375 24.703125 
Q 19.046875 24.703125 12.671875 31.3125 
Q 6.296875 37.9375 6.296875 49.421875 
Q 6.296875 60.640625 12.9375 67.421875 
Q 19.578125 74.21875 30.609375 74.21875 
Q 43.265625 74.21875 49.921875 64.515625 
Q 56.59375 54.828125 56.59375 36.375 
Q 56.59375 19.140625 48.40625 8.859375 
Q 40.234375 -1.421875 26.421875 -1.421875 
Q 22.703125 -1.421875 18.890625 -0.6875 
Q 15.09375 0.046875 10.984375 1.515625 
z
M 30.609375 32.421875 
Q 37.25 32.421875 41.125 36.953125 
Q 45.015625 41.5 45.015625 49.421875 
Q 45.015625 57.28125 41.125 61.84375 
Q 37.25 66.40625 30.609375 66.40625 
Q 23.96875 66.40625 20.09375 61.84375 
Q 16.21875 57.28125 16.21875 49.421875 
Q 16.21875 41.5 20.09375 36.953125 
Q 23.96875 32.421875 30.609375 32.421875 
z
" id="DejaVuSans-57"/>
     </defs>
     <g transform="translate(817.959375 159.501563)scale(0.1 -0.1)">
      <use xlink:href="#DejaVuSans-83"/>
      <use x="63.476562" xlink:href="#DejaVuSans-47"/>
      <use x="97.167969" xlink:href="#DejaVuSans-67"/>
      <use x="166.992188" xlink:href="#DejaVuSans-32"/>
      <use x="198.779297" xlink:href="#DejaVuSans-57"/>
     </g>
    </g>
   </g>
  </g>
  <g id="axes_2">
   <g id="patch_8">
    <path d="M 47.81 534.04 
L 853.2 534.04 
L 853.2 286.36 
L 47.81 286.36 
z
" style="fill:#ffffff;"/>
   </g>
   <g id="matplotlib.axis_3">
    <g id="xtick_6">
     <g id="line2d_55">
      <path clip-path="url(#pd6d89af1d8)" d="M 84.418636 534.04 
L 84.418636 286.36 
" style="fill:none;stroke:#b0b0b0;stroke-linecap:square;stroke-width:0.8;"/>
     </g>
     <g id="line2d_56">
      <g>
       <use style="stroke:#000000;stroke-width:0.8;" x="84.418636" xlink:href="#m8b7c432791" y="534.04"/>
      </g>
     </g>
     <g id="text_24">
      <!-- 0 -->
      <g transform="translate(81.237386 548.638438)scale(0.1 -0.1)">
       <use xlink:href="#DejaVuSans-48"/>
      </g>
     </g>
    </g>
    <g id="xtick_7">
     <g id="line2d_57">
      <path clip-path="url(#pd6d89af1d8)" d="M 262.769704 534.04 
L 262.769704 286.36 
" style="fill:none;stroke:#b0b0b0;stroke-linecap:square;stroke-width:0.8;"/>
     </g>
     <g id="line2d_58">
      <g>
       <use style="stroke:#000000;stroke-width:0.8;" x="262.769704" xlink:href="#m8b7c432791" y="534.04"/>
      </g>
     </g>
     <g id="text_25">
      <!-- 5 -->
      <g transform="translate(259.588454 548.638438)scale(0.1 -0.1)">
       <use xlink:href="#DejaVuSans-53"/>
      </g>
     </g>
    </g>
    <g id="xtick_8">
     <g id="line2d_59">
      <path clip-path="url(#pd6d89af1d8)" d="M 441.120772 534.04 
L 441.120772 286.36 
" style="fill:none;stroke:#b0b0b0;stroke-linecap:square;stroke-width:0.8;"/>
     </g>
     <g id="line2d_60">
      <g>
       <use style="stroke:#000000;stroke-width:0.8;" x="441.120772" xlink:href="#m8b7c432791" y="534.04"/>
      </g>
     </g>
     <g id="text_26">
      <!-- 10 -->
      <g transform="translate(434.758272 548.638438)scale(0.1 -0.1)">
       <use xlink:href="#DejaVuSans-49"/>
       <use x="63.623047" xlink:href="#DejaVuSans-48"/>
      </g>
     </g>
    </g>
    <g id="xtick_9">
     <g id="line2d_61">
      <path clip-path="url(#pd6d89af1d8)" d="M 619.47184 534.04 
L 619.47184 286.36 
" style="fill:none;stroke:#b0b0b0;stroke-linecap:square;stroke-width:0.8;"/>
     </g>
     <g id="line2d_62">
      <g>
       <use style="stroke:#000000;stroke-width:0.8;" x="619.47184" xlink:href="#m8b7c432791" y="534.04"/>
      </g>
     </g>
     <g id="text_27">
      <!-- 15 -->
      <g transform="translate(613.10934 548.638438)scale(0.1 -0.1)">
       <use xlink:href="#DejaVuSans-49"/>
       <use x="63.623047" xlink:href="#DejaVuSans-53"/>
      </g>
     </g>
    </g>
    <g id="xtick_10">
     <g id="line2d_63">
      <path clip-path="url(#pd6d89af1d8)" d="M 797.822907 534.04 
L 797.822907 286.36 
" style="fill:none;stroke:#b0b0b0;stroke-linecap:square;stroke-width:0.8;"/>
     </g>
     <g id="line2d_64">
      <g>
       <use style="stroke:#000000;stroke-width:0.8;" x="797.822907" xlink:href="#m8b7c432791" y="534.04"/>
      </g>
     </g>
     <g id="text_28">
      <!-- 20 -->
      <g transform="translate(791.460407 548.638438)scale(0.1 -0.1)">
       <use xlink:href="#DejaVuSans-50"/>
       <use x="63.623047" xlink:href="#DejaVuSans-48"/>
      </g>
     </g>
    </g>
    <g id="text_29">
     <!-- Time (ND) -->
     <defs>
      <path d="M -0.296875 72.90625 
L 61.375 72.90625 
L 61.375 64.59375 
L 35.5 64.59375 
L 35.5 0 
L 25.59375 0 
L 25.59375 64.59375 
L -0.296875 64.59375 
z
" id="DejaVuSans-84"/>
      <path d="M 9.421875 54.6875 
L 18.40625 54.6875 
L 18.40625 0 
L 9.421875 0 
z
M 9.421875 75.984375 
L 18.40625 75.984375 
L 18.40625 64.59375 
L 9.421875 64.59375 
z
" id="DejaVuSans-105"/>
      <path d="M 52 44.1875 
Q 55.375 50.25 60.0625 53.125 
Q 64.75 56 71.09375 56 
Q 79.640625 56 84.28125 50.015625 
Q 88.921875 44.046875 88.921875 33.015625 
L 88.921875 0 
L 79.890625 0 
L 79.890625 32.71875 
Q 79.890625 40.578125 77.09375 44.375 
Q 74.3125 48.1875 68.609375 48.1875 
Q 61.625 48.1875 57.5625 43.546875 
Q 53.515625 38.921875 53.515625 30.90625 
L 53.515625 0 
L 44.484375 0 
L 44.484375 32.71875 
Q 44.484375 40.625 41.703125 44.40625 
Q 38.921875 48.1875 33.109375 48.1875 
Q 26.21875 48.1875 22.15625 43.53125 
Q 18.109375 38.875 18.109375 30.90625 
L 18.109375 0 
L 9.078125 0 
L 9.078125 54.6875 
L 18.109375 54.6875 
L 18.109375 46.1875 
Q 21.1875 51.21875 25.484375 53.609375 
Q 29.78125 56 35.6875 56 
Q 41.65625 56 45.828125 52.96875 
Q 50 49.953125 52 44.1875 
z
" id="DejaVuSans-109"/>
      <path d="M 9.8125 72.90625 
L 23.09375 72.90625 
L 55.421875 11.921875 
L 55.421875 72.90625 
L 64.984375 72.90625 
L 64.984375 0 
L 51.703125 0 
L 19.390625 60.984375 
L 19.390625 0 
L 9.8125 0 
z
" id="DejaVuSans-78"/>
      <path d="M 19.671875 64.796875 
L 19.671875 8.109375 
L 31.59375 8.109375 
Q 46.6875 8.109375 53.6875 14.9375 
Q 60.6875 21.78125 60.6875 36.53125 
Q 60.6875 51.171875 53.6875 57.984375 
Q 46.6875 64.796875 31.59375 64.796875 
z
M 9.8125 72.90625 
L 30.078125 72.90625 
Q 51.265625 72.90625 61.171875 64.09375 
Q 71.09375 55.28125 71.09375 36.53125 
Q 71.09375 17.671875 61.125 8.828125 
Q 51.171875 0 30.078125 0 
L 9.8125 0 
z
" id="DejaVuSans-68"/>
     </defs>
     <g transform="translate(425.03625 562.316562)scale(0.1 -0.1)">
      <use xlink:href="#DejaVuSans-84"/>
      <use x="61.037109" xlink:href="#DejaVuSans-105"/>
      <use x="88.820312" xlink:href="#DejaVuSans-109"/>
      <use x="186.232422" xlink:href="#DejaVuSans-101"/>
      <use x="247.755859" xlink:href="#DejaVuSans-32"/>
      <use x="279.542969" xlink:href="#DejaVuSans-40"/>
      <use x="318.556641" xlink:href="#DejaVuSans-78"/>
      <use x="393.361328" xlink:href="#DejaVuSans-68"/>
      <use x="470.363281" xlink:href="#DejaVuSans-41"/>
     </g>
    </g>
   </g>
   <g id="matplotlib.axis_4">
    <g id="ytick_8">
     <g id="line2d_65">
      <path clip-path="url(#pd6d89af1d8)" d="M 47.81 515.217072 
L 853.2 515.217072 
" style="fill:none;stroke:#b0b0b0;stroke-linecap:square;stroke-width:0.8;"/>
     </g>
     <g id="line2d_66">
      <g>
       <use style="stroke:#000000;stroke-width:0.8;" x="47.81" xlink:href="#mfee3208d10" y="515.217072"/>
      </g>
     </g>
     <g id="text_30">
      <!-- 0.2 -->
      <g transform="translate(24.906875 519.016291)scale(0.1 -0.1)">
       <use xlink:href="#DejaVuSans-48"/>
       <use x="63.623047" xlink:href="#DejaVuSans-46"/>
       <use x="95.410156" xlink:href="#DejaVuSans-50"/>
      </g>
     </g>
    </g>
    <g id="ytick_9">
     <g id="line2d_67">
      <path clip-path="url(#pd6d89af1d8)" d="M 47.81 460.817349 
L 853.2 460.817349 
" style="fill:none;stroke:#b0b0b0;stroke-linecap:square;stroke-width:0.8;"/>
     </g>
     <g id="line2d_68">
      <g>
       <use style="stroke:#000000;stroke-width:0.8;" x="47.81" xlink:href="#mfee3208d10" y="460.817349"/>
      </g>
     </g>
     <g id="text_31">
      <!-- 0.4 -->
      <g transform="translate(24.906875 464.616568)scale(0.1 -0.1)">
       <use xlink:href="#DejaVuSans-48"/>
       <use x="63.623047" xlink:href="#DejaVuSans-46"/>
       <use x="95.410156" xlink:href="#DejaVuSans-52"/>
      </g>
     </g>
    </g>
    <g id="ytick_10">
     <g id="line2d_69">
      <path clip-path="url(#pd6d89af1d8)" d="M 47.81 406.417627 
L 853.2 406.417627 
" style="fill:none;stroke:#b0b0b0;stroke-linecap:square;stroke-width:0.8;"/>
     </g>
     <g id="line2d_70">
      <g>
       <use style="stroke:#000000;stroke-width:0.8;" x="47.81" xlink:href="#mfee3208d10" y="406.417627"/>
      </g>
     </g>
     <g id="text_32">
      <!-- 0.6 -->
      <g transform="translate(24.906875 410.216846)scale(0.1 -0.1)">
       <use xlink:href="#DejaVuSans-48"/>
       <use x="63.623047" xlink:href="#DejaVuSans-46"/>
       <use x="95.410156" xlink:href="#DejaVuSans-54"/>
      </g>
     </g>
    </g>
    <g id="ytick_11">
     <g id="line2d_71">
      <path clip-path="url(#pd6d89af1d8)" d="M 47.81 352.017904 
L 853.2 352.017904 
" style="fill:none;stroke:#b0b0b0;stroke-linecap:square;stroke-width:0.8;"/>
     </g>
     <g id="line2d_72">
      <g>
       <use style="stroke:#000000;stroke-width:0.8;" x="47.81" xlink:href="#mfee3208d10" y="352.017904"/>
      </g>
     </g>
     <g id="text_33">
      <!-- 0.8 -->
      <g transform="translate(24.906875 355.817123)scale(0.1 -0.1)">
       <use xlink:href="#DejaVuSans-48"/>
       <use x="63.623047" xlink:href="#DejaVuSans-46"/>
       <use x="95.410156" xlink:href="#DejaVuSans-56"/>
      </g>
     </g>
    </g>
    <g id="ytick_12">
     <g id="line2d_73">
      <path clip-path="url(#pd6d89af1d8)" d="M 47.81 297.618182 
L 853.2 297.618182 
" style="fill:none;stroke:#b0b0b0;stroke-linecap:square;stroke-width:0.8;"/>
     </g>
     <g id="line2d_74">
      <g>
       <use style="stroke:#000000;stroke-width:0.8;" x="47.81" xlink:href="#mfee3208d10" y="297.618182"/>
      </g>
     </g>
     <g id="text_34">
      <!-- 1.0 -->
      <g transform="translate(24.906875 301.417401)scale(0.1 -0.1)">
       <use xlink:href="#DejaVuSans-49"/>
       <use x="63.623047" xlink:href="#DejaVuSans-46"/>
       <use x="95.410156" xlink:href="#DejaVuSans-48"/>
      </g>
     </g>
    </g>
    <g id="text_35">
     <!-- Control Magnitude -->
     <defs>
      <path d="M 30.609375 48.390625 
Q 23.390625 48.390625 19.1875 42.75 
Q 14.984375 37.109375 14.984375 27.296875 
Q 14.984375 17.484375 19.15625 11.84375 
Q 23.34375 6.203125 30.609375 6.203125 
Q 37.796875 6.203125 41.984375 11.859375 
Q 46.1875 17.53125 46.1875 27.296875 
Q 46.1875 37.015625 41.984375 42.703125 
Q 37.796875 48.390625 30.609375 48.390625 
z
M 30.609375 56 
Q 42.328125 56 49.015625 48.375 
Q 55.71875 40.765625 55.71875 27.296875 
Q 55.71875 13.875 49.015625 6.21875 
Q 42.328125 -1.421875 30.609375 -1.421875 
Q 18.84375 -1.421875 12.171875 6.21875 
Q 5.515625 13.875 5.515625 27.296875 
Q 5.515625 40.765625 12.171875 48.375 
Q 18.84375 56 30.609375 56 
z
" id="DejaVuSans-111"/>
      <path d="M 18.3125 70.21875 
L 18.3125 54.6875 
L 36.8125 54.6875 
L 36.8125 47.703125 
L 18.3125 47.703125 
L 18.3125 18.015625 
Q 18.3125 11.328125 20.140625 9.421875 
Q 21.96875 7.515625 27.59375 7.515625 
L 36.8125 7.515625 
L 36.8125 0 
L 27.59375 0 
Q 17.1875 0 13.234375 3.875 
Q 9.28125 7.765625 9.28125 18.015625 
L 9.28125 47.703125 
L 2.6875 47.703125 
L 2.6875 54.6875 
L 9.28125 54.6875 
L 9.28125 70.21875 
z
" id="DejaVuSans-116"/>
      <path d="M 9.8125 72.90625 
L 24.515625 72.90625 
L 43.109375 23.296875 
L 61.8125 72.90625 
L 76.515625 72.90625 
L 76.515625 0 
L 66.890625 0 
L 66.890625 64.015625 
L 48.09375 14.015625 
L 38.1875 14.015625 
L 19.390625 64.015625 
L 19.390625 0 
L 9.8125 0 
z
" id="DejaVuSans-77"/>
      <path d="M 8.5 21.578125 
L 8.5 54.6875 
L 17.484375 54.6875 
L 17.484375 21.921875 
Q 17.484375 14.15625 20.5 10.265625 
Q 23.53125 6.390625 29.59375 6.390625 
Q 36.859375 6.390625 41.078125 11.03125 
Q 45.3125 15.671875 45.3125 23.6875 
L 45.3125 54.6875 
L 54.296875 54.6875 
L 54.296875 0 
L 45.3125 0 
L 45.3125 8.40625 
Q 42.046875 3.421875 37.71875 1 
Q 33.40625 -1.421875 27.6875 -1.421875 
Q 18.265625 -1.421875 13.375 4.4375 
Q 8.5 10.296875 8.5 21.578125 
z
M 31.109375 56 
z
" id="DejaVuSans-117"/>
     </defs>
     <g transform="translate(18.827187 456.460938)rotate(-90)scale(0.1 -0.1)">
      <use xlink:href="#DejaVuSans-67"/>
      <use x="69.824219" xlink:href="#DejaVuSans-111"/>
      <use x="131.005859" xlink:href="#DejaVuSans-110"/>
      <use x="194.384766" xlink:href="#DejaVuSans-116"/>
      <use x="233.59375" xlink:href="#DejaVuSans-114"/>
      <use x="274.675781" xlink:href="#DejaVuSans-111"/>
      <use x="335.857422" xlink:href="#DejaVuSans-108"/>
      <use x="363.640625" xlink:href="#DejaVuSans-32"/>
      <use x="395.427734" xlink:href="#DejaVuSans-77"/>
      <use x="481.707031" xlink:href="#DejaVuSans-97"/>
      <use x="542.986328" xlink:href="#DejaVuSans-103"/>
      <use x="606.462891" xlink:href="#DejaVuSans-110"/>
      <use x="669.841797" xlink:href="#DejaVuSans-105"/>
      <use x="697.625" xlink:href="#DejaVuSans-116"/>
      <use x="736.833984" xlink:href="#DejaVuSans-117"/>
      <use x="800.212891" xlink:href="#DejaVuSans-100"/>
      <use x="863.689453" xlink:href="#DejaVuSans-101"/>
     </g>
    </g>
   </g>
   <g id="line2d_75">
    <path clip-path="url(#pd6d89af1d8)" d="M 84.418636 297.618182 
L 816.591364 297.618182 
L 816.591364 297.618182 
" style="fill:none;stroke:#303bc1;stroke-linecap:square;stroke-width:1.5;"/>
   </g>
   <g id="line2d_76">
    <path clip-path="url(#pd6d89af1d8)" d="M 84.418636 353.307867 
L 89.299788 353.307867 
L 94.180939 354.675064 
L 99.062091 354.675064 
L 103.943242 356.161583 
L 108.824394 356.161583 
L 113.705545 357.749391 
L 118.586697 357.749391 
L 123.467848 359.413883 
L 128.349 359.413883 
L 133.230152 361.123794 
L 138.111303 361.123794 
L 142.992455 362.844352 
L 147.873606 362.844352 
L 152.754758 364.542119 
L 157.635909 364.542119 
L 162.517061 366.187996 
L 167.398212 366.187996 
L 172.279364 367.759768 
L 177.160515 367.759768 
L 182.041667 369.243706 
L 186.922818 369.243706 
L 191.80397 370.636238 
L 196.685121 370.636238 
L 201.566273 371.946071 
L 206.447424 371.946071 
L 211.328576 373.19624 
L 216.209727 373.19624 
L 221.090879 374.424156 
L 225.97203 374.424156 
L 230.853182 375.679043 
L 235.734333 375.679043 
L 240.615485 377.020318 
L 245.496636 377.020318 
L 250.377788 378.514554 
L 255.258939 378.514554 
L 260.140091 380.230364 
L 265.021242 380.230364 
L 269.902394 382.235912 
L 274.783545 382.235912 
L 279.664697 384.598203 
L 284.545848 384.598203 
L 289.427 387.380709 
L 294.308152 387.380709 
L 299.189303 390.637647 
L 304.070455 390.637647 
L 308.951606 394.40564 
L 313.832758 394.40564 
L 318.713909 398.696638 
L 323.595061 398.696638 
L 328.476212 403.495158 
L 333.357364 403.495158 
L 338.238515 408.760895 
L 343.119667 408.760895 
L 348.000818 414.437462 
L 352.88197 414.437462 
L 357.763121 420.458665 
L 362.644273 420.458665 
L 367.525424 426.711571 
L 372.406576 426.711571 
L 377.287727 432.963129 
L 382.168879 432.963129 
L 387.05003 439.019858 
L 391.931182 439.019858 
L 396.812333 445.062365 
L 401.693485 445.062365 
L 406.574636 452.448917 
L 411.455788 452.448917 
L 416.336939 464.329607 
L 421.218091 464.329607 
L 426.099242 492.262097 
L 430.980394 492.262097 
L 435.861545 497.658173 
L 440.742697 497.658173 
L 445.623848 498.788241 
L 450.505 498.788241 
L 455.386152 493.837211 
L 460.267303 493.837211 
L 465.148455 506.420602 
L 470.029606 506.420602 
L 474.910758 513.750668 
L 479.791909 513.750668 
L 484.673061 511.805142 
L 489.554212 511.805142 
L 494.435364 504.964838 
L 499.316515 504.964838 
L 504.197667 496.552146 
L 509.078818 496.552146 
L 513.95997 487.968987 
L 518.841121 487.968987 
L 523.722273 478.115118 
L 528.603424 478.115118 
L 533.484576 469.068086 
L 538.365727 469.068086 
L 543.246879 460.748088 
L 548.12803 460.748088 
L 553.009182 453.446324 
L 557.890333 453.446324 
L 562.771485 447.230088 
L 567.652636 447.230088 
L 572.533788 441.950266 
L 577.414939 441.950266 
L 582.296091 437.488405 
L 587.177242 437.488405 
L 592.058394 433.745294 
L 596.939545 433.745294 
L 601.820697 430.593813 
L 606.701848 430.593813 
L 611.583 427.867185 
L 616.464152 427.867185 
L 621.345303 425.357826 
L 626.226455 425.357826 
L 631.107606 422.838816 
L 635.988758 422.838816 
L 640.869909 420.10534 
L 645.751061 420.10534 
L 650.632212 417.01501 
L 655.513364 417.01501 
L 660.394515 413.507057 
L 665.275667 413.507057 
L 670.156818 409.644498 
L 675.03797 409.644498 
L 679.919121 405.470476 
L 684.800273 405.470476 
L 689.681424 401.277224 
L 694.562576 401.277224 
L 699.443727 397.316082 
L 704.324879 397.316082 
L 709.20603 393.571387 
L 714.087182 393.571387 
L 718.968333 390.046547 
L 723.849485 390.046547 
L 728.730636 386.738348 
L 733.611788 386.738348 
L 738.492939 383.648388 
L 743.374091 383.648388 
L 748.255242 380.779453 
L 753.136394 380.779453 
L 758.017545 378.12863 
L 762.898697 378.12863 
L 767.779848 375.68862 
L 772.661 375.68862 
L 777.542152 373.445312 
L 782.423303 373.445312 
L 787.304455 371.391876 
L 792.185606 371.391876 
L 797.066758 369.507735 
L 801.947909 369.507735 
L 806.829061 367.784157 
L 816.591364 367.784157 
L 816.591364 367.784157 
" style="fill:none;stroke:#4039b5;stroke-linecap:square;stroke-width:1.5;"/>
   </g>
   <g id="line2d_77">
    <path clip-path="url(#pd6d89af1d8)" d="M 84.418636 407.628776 
L 89.299788 407.628776 
L 94.180939 410.224111 
L 99.062091 410.224111 
L 103.943242 413.0701 
L 108.824394 413.0701 
L 113.705545 416.085121 
L 118.586697 416.085121 
L 123.467848 419.172183 
L 128.349 419.172183 
L 133.230152 422.223614 
L 138.111303 422.223614 
L 142.992455 425.125436 
L 147.873606 425.125436 
L 152.754758 427.762862 
L 157.635909 427.762862 
L 162.517061 430.032854 
L 167.398212 430.032854 
L 172.279364 431.865422 
L 177.160515 431.865422 
L 182.041667 433.163498 
L 186.922818 433.163498 
L 191.80397 434.053449 
L 196.685121 434.053449 
L 201.566273 434.588118 
L 206.447424 434.588118 
L 211.328576 434.890261 
L 216.209727 434.890261 
L 221.090879 435.179718 
L 225.97203 435.179718 
L 230.853182 435.68463 
L 235.734333 435.68463 
L 240.615485 436.767688 
L 245.496636 436.767688 
L 250.377788 439.026832 
L 255.258939 439.026832 
L 260.140091 442.370125 
L 265.021242 442.370125 
L 269.902394 445.996594 
L 274.783545 445.996594 
L 279.664697 449.292872 
L 284.545848 449.292872 
L 289.427 452.19512 
L 294.308152 452.19512 
L 299.189303 454.935316 
L 304.070455 454.935316 
L 308.951606 457.776627 
L 313.832758 457.776627 
L 318.713909 460.871138 
L 323.595061 460.871138 
L 328.476212 464.225292 
L 333.357364 464.225292 
L 338.238515 467.756289 
L 343.119667 467.756289 
L 348.000818 471.388245 
L 352.88197 471.388245 
L 357.763121 474.959024 
L 362.644273 474.959024 
L 367.525424 478.328052 
L 372.406576 478.328052 
L 377.287727 483.031155 
L 382.168879 483.031155 
L 387.05003 500.089946 
L 391.931182 500.089946 
L 396.812333 483.658715 
L 401.693485 483.658715 
L 406.574636 486.213974 
L 411.455788 486.213974 
L 416.336939 486.708586 
L 421.218091 486.708586 
L 426.099242 491.644869 
L 430.980394 491.644869 
L 435.861545 495.116375 
L 440.742697 495.116375 
L 445.623848 477.055628 
L 450.505 477.055628 
L 455.386152 503.188049 
L 460.267303 503.188049 
L 465.148455 506.001694 
L 470.029606 506.001694 
L 474.910758 506.862878 
L 479.791909 506.862878 
L 484.673061 506.520428 
L 489.554212 506.520428 
L 494.435364 504.747836 
L 499.316515 504.747836 
L 504.197667 501.901414 
L 509.078818 501.901414 
L 513.95997 498.330739 
L 518.841121 498.330739 
L 523.722273 494.44063 
L 528.603424 494.44063 
L 533.484576 490.605177 
L 538.365727 490.605177 
L 543.246879 486.998158 
L 548.12803 486.998158 
L 553.009182 483.691304 
L 557.890333 483.691304 
L 562.771485 480.469 
L 567.652636 480.469 
L 572.533788 477.14895 
L 577.414939 477.14895 
L 582.296091 474.81107 
L 587.177242 474.81107 
L 592.058394 473.760851 
L 596.939545 473.760851 
L 601.820697 473.536078 
L 606.701848 473.536078 
L 611.583 473.807913 
L 616.464152 473.807913 
L 621.345303 474.503043 
L 626.226455 474.503043 
L 631.107606 475.44727 
L 635.988758 475.44727 
L 640.869909 476.435297 
L 645.751061 476.435297 
L 650.632212 477.237844 
L 655.513364 477.237844 
L 660.394515 478.315043 
L 665.275667 478.315043 
L 670.156818 479.550969 
L 675.03797 479.550969 
L 679.919121 478.759189 
L 684.800273 478.759189 
L 689.681424 476.448756 
L 694.562576 476.448756 
L 699.443727 472.93054 
L 704.324879 472.93054 
L 709.20603 468.503707 
L 714.087182 468.503707 
L 718.968333 463.559685 
L 723.849485 463.559685 
L 728.730636 458.510824 
L 733.611788 458.510824 
L 738.492939 453.614822 
L 743.374091 453.614822 
L 748.255242 449.079639 
L 753.136394 449.079639 
L 758.017545 445.025863 
L 762.898697 445.025863 
L 767.779848 441.474935 
L 772.661 441.474935 
L 777.542152 438.484083 
L 782.423303 438.484083 
L 787.304455 436.139615 
L 792.185606 436.139615 
L 797.066758 434.371555 
L 801.947909 434.371555 
L 806.829061 432.996706 
L 816.591364 432.996706 
L 816.591364 432.996706 
" style="fill:none;stroke:#5036a8;stroke-linecap:square;stroke-width:1.5;"/>
   </g>
   <g id="line2d_78">
    <path clip-path="url(#pd6d89af1d8)" d="M 84.418636 457.779529 
L 89.299788 457.779529 
L 94.180939 460.348462 
L 99.062091 460.348462 
L 103.943242 463.279816 
L 108.824394 463.279816 
L 113.705545 466.416036 
L 118.586697 466.416036 
L 123.467848 469.596593 
L 128.349 469.596593 
L 133.230152 472.580873 
L 138.111303 472.580873 
L 142.992455 475.380285 
L 147.873606 475.380285 
L 152.754758 478.089553 
L 157.635909 478.089553 
L 162.517061 479.838926 
L 167.398212 479.838926 
L 172.279364 482.353364 
L 177.160515 482.353364 
L 182.041667 490.130108 
L 186.922818 490.130108 
L 191.80397 499.875694 
L 196.685121 499.875694 
L 201.566273 504.657962 
L 206.447424 504.657962 
L 211.328576 481.602271 
L 216.209727 481.602271 
L 221.090879 474.493336 
L 225.97203 474.493336 
L 230.853182 472.451429 
L 235.734333 472.451429 
L 240.615485 477.872623 
L 245.496636 477.872623 
L 250.377788 496.265625 
L 255.258939 496.265625 
L 260.140091 501.25459 
L 265.021242 501.25459 
L 269.902394 477.917349 
L 274.783545 477.917349 
L 279.664697 479.280146 
L 284.545848 479.280146 
L 289.427 480.62366 
L 294.308152 480.62366 
L 299.189303 482.525476 
L 304.070455 482.525476 
L 308.951606 483.795815 
L 313.832758 483.795815 
L 318.713909 484.99328 
L 323.595061 484.99328 
L 328.476212 486.80603 
L 333.357364 486.80603 
L 338.238515 488.720435 
L 343.119667 488.720435 
L 348.000818 490.617141 
L 352.88197 490.617141 
L 357.763121 492.476802 
L 362.644273 492.476802 
L 367.525424 501.195973 
L 372.406576 501.195973 
L 377.287727 494.249402 
L 382.168879 494.249402 
L 387.05003 493.651603 
L 391.931182 493.651603 
L 396.812333 493.298528 
L 421.218091 493.356784 
L 426.099242 492.586701 
L 440.742697 492.6312 
L 445.623848 495.892875 
L 450.505 495.892875 
L 455.386152 500.685151 
L 460.267303 500.685151 
L 465.148455 505.284859 
L 470.029606 505.284859 
L 474.910758 509.172318 
L 479.791909 509.172318 
L 484.673061 511.915101 
L 489.554212 511.915101 
L 494.435364 513.327247 
L 509.078818 513.369776 
L 513.95997 512.173611 
L 518.841121 512.173611 
L 523.722273 510.076365 
L 528.603424 510.076365 
L 533.484576 507.351659 
L 538.365727 507.351659 
L 543.246879 504.17572 
L 548.12803 504.17572 
L 553.009182 500.623635 
L 557.890333 500.623635 
L 562.771485 496.945543 
L 567.652636 496.945543 
L 572.533788 493.291589 
L 577.414939 493.291589 
L 582.296091 489.738064 
L 587.177242 489.738064 
L 592.058394 485.639364 
L 596.939545 485.639364 
L 601.820697 483.241013 
L 606.701848 483.241013 
L 611.583 482.818467 
L 616.464152 482.818467 
L 621.345303 483.149107 
L 626.226455 483.149107 
L 631.107606 483.955201 
L 635.988758 483.955201 
L 640.869909 485.230663 
L 645.751061 485.230663 
L 650.632212 487.999522 
L 655.513364 487.999522 
L 660.394515 492.209162 
L 665.275667 492.209162 
L 670.156818 495.169032 
L 675.03797 495.169032 
L 679.919121 497.520559 
L 684.800273 497.520559 
L 689.681424 499.357541 
L 694.562576 499.357541 
L 699.443727 500.477274 
L 704.324879 500.477274 
L 709.20603 500.609053 
L 714.087182 500.609053 
L 718.968333 499.486987 
L 723.849485 499.486987 
L 728.730636 496.947002 
L 733.611788 496.947002 
L 738.492939 493.060123 
L 743.374091 493.060123 
L 748.255242 488.218401 
L 753.136394 488.218401 
L 758.017545 483.009268 
L 762.898697 483.009268 
L 767.779848 477.9407 
L 772.661 477.9407 
L 777.542152 473.067105 
L 782.423303 473.067105 
L 787.304455 468.638294 
L 792.185606 468.638294 
L 797.066758 465.575563 
L 801.947909 465.575563 
L 806.829061 462.924528 
L 816.591364 462.924528 
L 816.591364 462.924528 
" style="fill:none;stroke:#60349c;stroke-linecap:square;stroke-width:1.5;"/>
   </g>
   <g id="line2d_79">
    <path clip-path="url(#pd6d89af1d8)" d="M 84.418636 508.066482 
L 89.299788 508.066482 
L 94.180939 505.587321 
L 99.062091 505.587321 
L 103.943242 502.798005 
L 108.824394 502.798005 
L 113.705545 500.64477 
L 118.586697 500.64477 
L 123.467848 498.913245 
L 128.349 498.913245 
L 133.230152 500.774494 
L 138.111303 500.774494 
L 142.992455 499.631409 
L 147.873606 499.631409 
L 152.754758 498.088191 
L 157.635909 498.088191 
L 162.517061 496.333589 
L 167.398212 496.333589 
L 172.279364 494.470402 
L 177.160515 494.470402 
L 182.041667 492.535884 
L 186.922818 492.535884 
L 191.80397 490.534579 
L 196.685121 490.534579 
L 201.566273 488.624214 
L 206.447424 488.624214 
L 211.328576 486.818684 
L 216.209727 486.818684 
L 221.090879 485.251322 
L 225.97203 485.251322 
L 230.853182 484.061378 
L 235.734333 484.061378 
L 240.615485 483.256649 
L 245.496636 483.256649 
L 250.377788 482.947717 
L 274.783545 483.05538 
L 284.545848 483.138038 
L 289.427 483.490943 
L 294.308152 483.490943 
L 299.189303 484.28199 
L 304.070455 484.28199 
L 308.951606 485.536087 
L 313.832758 485.536087 
L 318.713909 487.27631 
L 323.595061 487.27631 
L 328.476212 489.332021 
L 333.357364 489.332021 
L 338.238515 491.402534 
L 343.119667 491.402534 
L 348.000818 493.436326 
L 352.88197 493.436326 
L 357.763121 495.274626 
L 362.644273 495.274626 
L 367.525424 497.360922 
L 372.406576 497.360922 
L 377.287727 499.916329 
L 382.168879 499.916329 
L 387.05003 503.319013 
L 391.931182 503.319013 
L 396.812333 508.407581 
L 401.693485 508.407581 
L 406.574636 511.82297 
L 411.455788 511.82297 
L 416.336939 512.791535 
L 421.218091 512.791535 
L 426.099242 513.03965 
L 430.980394 513.03965 
L 435.861545 510.667454 
L 450.505 510.716373 
L 455.386152 511.162296 
L 460.267303 511.162296 
L 465.148455 508.922281 
L 470.029606 508.922281 
L 474.910758 513.066467 
L 479.791909 513.066467 
L 484.673061 495.436546 
L 489.554212 495.436546 
L 494.435364 493.535542 
L 499.316515 493.535542 
L 504.197667 505.717851 
L 509.078818 505.717851 
L 513.95997 494.257096 
L 518.841121 494.257096 
L 523.722273 495.798034 
L 528.603424 495.798034 
L 533.484576 498.092808 
L 538.365727 498.092808 
L 543.246879 500.226525 
L 548.12803 500.226525 
L 553.009182 499.714984 
L 557.890333 499.714984 
L 562.771485 505.749127 
L 567.652636 505.749127 
L 572.533788 503.880129 
L 577.414939 503.880129 
L 582.296091 504.918157 
L 587.177242 504.918157 
L 592.058394 503.861488 
L 596.939545 503.861488 
L 601.820697 501.94996 
L 606.701848 501.94996 
L 611.583 496.282093 
L 616.464152 496.282093 
L 621.345303 492.682422 
L 635.988758 492.692576 
L 640.869909 494.450048 
L 645.751061 494.450048 
L 650.632212 496.458197 
L 655.513364 496.458197 
L 660.394515 498.476633 
L 665.275667 498.476633 
L 670.156818 500.478101 
L 675.03797 500.478101 
L 679.919121 502.408554 
L 684.800273 502.408554 
L 689.681424 504.196249 
L 694.562576 504.196249 
L 699.443727 505.706646 
L 704.324879 505.706646 
L 709.20603 505.975725 
L 714.087182 505.975725 
L 718.968333 505.246999 
L 723.849485 505.246999 
L 728.730636 504.477697 
L 733.611788 504.477697 
L 738.492939 500.742764 
L 743.374091 500.742764 
L 748.255242 495.288147 
L 753.136394 495.288147 
L 758.017545 488.992781 
L 762.898697 488.992781 
L 767.779848 482.831103 
L 772.661 482.831103 
L 777.542152 477.516808 
L 782.423303 477.516808 
L 787.304455 473.156174 
L 792.185606 473.156174 
L 797.066758 469.705697 
L 801.947909 469.705697 
L 806.829061 467.213838 
L 816.591364 467.213838 
L 816.591364 467.213838 
" style="fill:none;stroke:#70318f;stroke-linecap:square;stroke-width:1.5;"/>
   </g>
   <g id="line2d_80">
    <path clip-path="url(#pd6d89af1d8)" d="M 84.418636 492.292739 
L 89.299788 492.292739 
L 94.180939 490.804924 
L 99.062091 490.804924 
L 103.943242 489.480759 
L 108.824394 489.480759 
L 113.705545 488.449289 
L 118.586697 488.449289 
L 123.467848 488.279213 
L 128.349 488.279213 
L 133.230152 487.909404 
L 147.873606 487.949237 
L 152.754758 488.359779 
L 157.635909 488.359779 
L 162.517061 489.058897 
L 167.398212 489.058897 
L 172.279364 489.927944 
L 177.160515 489.927944 
L 182.041667 490.816622 
L 186.922818 490.816622 
L 191.80397 491.585378 
L 196.685121 491.585378 
L 201.566273 492.140619 
L 206.447424 492.140619 
L 211.328576 492.444156 
L 235.734333 492.405382 
L 240.615485 492.252568 
L 274.783545 492.314285 
L 279.664697 491.986244 
L 284.545848 491.986244 
L 289.427 491.085703 
L 294.308152 491.085703 
L 299.189303 489.946521 
L 304.070455 489.946521 
L 308.951606 489.027188 
L 313.832758 489.027188 
L 318.713909 488.461524 
L 323.595061 488.461524 
L 328.476212 488.169018 
L 333.357364 488.169018 
L 338.238515 487.921108 
L 343.119667 487.921108 
L 348.000818 487.542375 
L 352.88197 487.542375 
L 357.763121 486.947312 
L 362.644273 486.947312 
L 367.525424 486.185931 
L 372.406576 486.185931 
L 377.287727 485.49943 
L 382.168879 485.49943 
L 387.05003 485.661771 
L 391.931182 485.661771 
L 396.812333 488.398203 
L 401.693485 488.398203 
L 406.574636 497.009613 
L 411.455788 497.009613 
L 416.336939 509.513738 
L 421.218091 509.513738 
L 426.099242 517.115027 
L 430.980394 517.115027 
L 435.861545 518.906655 
L 440.742697 518.906655 
L 445.623848 519.14666 
L 450.505 519.14666 
L 455.386152 519.022205 
L 460.267303 519.022205 
L 465.148455 517.841638 
L 470.029606 517.841638 
L 474.910758 508.700268 
L 479.791909 508.700268 
L 484.673061 496.981467 
L 489.554212 496.981467 
L 494.435364 493.116113 
L 499.316515 493.116113 
L 504.197667 490.871179 
L 509.078818 490.871179 
L 513.95997 488.926742 
L 518.841121 488.926742 
L 523.722273 490.5113 
L 528.603424 490.5113 
L 533.484576 492.480378 
L 538.365727 492.480378 
L 543.246879 494.571906 
L 548.12803 494.571906 
L 553.009182 496.581411 
L 557.890333 496.581411 
L 562.771485 482.079079 
L 567.652636 482.079079 
L 572.533788 500.089947 
L 577.414939 500.089947 
L 582.296091 499.68113 
L 587.177242 499.68113 
L 592.058394 499.076581 
L 596.939545 499.076581 
L 601.820697 496.117856 
L 606.701848 496.117856 
L 611.583 493.916856 
L 616.464152 493.916856 
L 621.345303 493.245679 
L 626.226455 493.245679 
L 631.107606 505.547979 
L 635.988758 505.547979 
L 640.869909 508.44341 
L 645.751061 508.44341 
L 650.632212 489.058735 
L 655.513364 489.058735 
L 660.394515 491.718543 
L 665.275667 491.718543 
L 670.156818 494.701476 
L 675.03797 494.701476 
L 679.919121 504.326899 
L 684.800273 504.326899 
L 689.681424 505.721639 
L 694.562576 505.721639 
L 699.443727 506.00141 
L 704.324879 506.00141 
L 709.20603 506.413958 
L 714.087182 506.413958 
L 718.968333 506.852694 
L 723.849485 506.852694 
L 728.730636 507.961355 
L 733.611788 507.961355 
L 738.492939 508.999367 
L 743.374091 508.999367 
L 748.255242 508.563755 
L 753.136394 508.563755 
L 758.017545 502.512347 
L 762.898697 502.512347 
L 767.779848 495.979978 
L 772.661 495.979978 
L 777.542152 493.551261 
L 782.423303 493.551261 
L 787.304455 486.432563 
L 792.185606 486.432563 
L 797.066758 481.282274 
L 801.947909 481.282274 
L 806.829061 476.897605 
L 816.591364 476.897605 
L 816.591364 476.897605 
" style="fill:none;stroke:#802f83;stroke-linecap:square;stroke-width:1.5;"/>
   </g>
   <g id="line2d_81">
    <path clip-path="url(#pd6d89af1d8)" d="M 84.418636 485.974273 
L 89.299788 485.974273 
L 94.180939 485.766187 
L 99.062091 485.766187 
L 103.943242 485.348644 
L 108.824394 485.348644 
L 113.705545 484.820274 
L 118.586697 484.820274 
L 123.467848 484.373398 
L 128.349 484.373398 
L 133.230152 484.145958 
L 157.635909 484.193313 
L 162.517061 484.39229 
L 167.398212 484.39229 
L 172.279364 484.824524 
L 177.160515 484.824524 
L 182.041667 485.450139 
L 186.922818 485.450139 
L 191.80397 486.097015 
L 196.685121 486.097015 
L 201.566273 486.615325 
L 206.447424 486.615325 
L 211.328576 486.951143 
L 216.209727 486.951143 
L 221.090879 487.171068 
L 225.97203 487.171068 
L 230.853182 487.400403 
L 235.734333 487.400403 
L 240.615485 487.722894 
L 245.496636 487.722894 
L 250.377788 488.154634 
L 255.258939 488.154634 
L 260.140091 488.668116 
L 265.021242 488.668116 
L 269.902394 489.21662 
L 274.783545 489.21662 
L 279.664697 489.744038 
L 284.545848 489.744038 
L 289.427 490.189225 
L 294.308152 490.189225 
L 299.189303 490.505076 
L 304.070455 490.505076 
L 308.951606 490.683555 
L 333.357364 490.790343 
L 352.88197 490.937485 
L 357.763121 491.166431 
L 362.644273 491.166431 
L 367.525424 491.609268 
L 372.406576 491.609268 
L 377.287727 492.375159 
L 382.168879 492.375159 
L 387.05003 493.464143 
L 391.931182 493.464143 
L 396.812333 494.359667 
L 401.693485 494.359667 
L 406.574636 493.748102 
L 411.455788 493.748102 
L 416.336939 491.115637 
L 421.218091 491.115637 
L 426.099242 490.268858 
L 430.980394 490.268858 
L 435.861545 486.838941 
L 440.742697 486.838941 
L 445.623848 489.801959 
L 450.505 489.801959 
L 455.386152 494.10951 
L 460.267303 494.10951 
L 465.148455 496.083582 
L 470.029606 496.083582 
L 474.910758 491.513542 
L 479.791909 491.513542 
L 484.673061 504.540365 
L 489.554212 504.540365 
L 494.435364 504.969252 
L 499.316515 504.969252 
L 504.197667 505.92199 
L 509.078818 505.92199 
L 513.95997 506.699423 
L 518.841121 506.699423 
L 523.722273 507.539407 
L 538.365727 507.453603 
L 543.246879 504.648984 
L 548.12803 504.648984 
L 553.009182 500.462934 
L 557.890333 500.462934 
L 562.771485 495.798595 
L 567.652636 495.798595 
L 572.533788 491.340058 
L 577.414939 491.340058 
L 582.296091 487.372781 
L 587.177242 487.372781 
L 592.058394 483.922212 
L 596.939545 483.922212 
L 601.820697 481.029526 
L 606.701848 481.029526 
L 611.583 478.803471 
L 616.464152 478.803471 
L 621.345303 477.375251 
L 626.226455 477.375251 
L 631.107606 476.854366 
L 635.988758 476.854366 
L 640.869909 477.304447 
L 645.751061 477.304447 
L 650.632212 478.75453 
L 655.513364 478.75453 
L 660.394515 481.384159 
L 665.275667 481.384159 
L 670.156818 486.21245 
L 675.03797 486.21245 
L 679.919121 496.515799 
L 684.800273 496.515799 
L 689.681424 505.981648 
L 694.562576 505.981648 
L 699.443727 504.544293 
L 704.324879 504.544293 
L 709.20603 506.538144 
L 714.087182 506.538144 
L 718.968333 509.877635 
L 723.849485 509.877635 
L 728.730636 504.934284 
L 733.611788 504.934284 
L 738.492939 500.439807 
L 743.374091 500.439807 
L 748.255242 498.556598 
L 753.136394 498.556598 
L 758.017545 497.865095 
L 762.898697 497.865095 
L 767.779848 499.293135 
L 772.661 499.293135 
L 777.542152 503.626291 
L 782.423303 503.626291 
L 787.304455 496.160348 
L 792.185606 496.160348 
L 797.066758 493.589332 
L 801.947909 493.589332 
L 806.829061 492.556102 
L 816.591364 492.556102 
L 816.591364 492.556102 
" style="fill:none;stroke:#8f2d78;stroke-linecap:square;stroke-width:1.5;"/>
   </g>
   <g id="line2d_82">
    <path clip-path="url(#pd6d89af1d8)" d="M 84.418636 436.402603 
L 89.299788 436.402603 
L 94.180939 439.079447 
L 99.062091 439.079447 
L 103.943242 442.247948 
L 108.824394 442.247948 
L 113.705545 445.865931 
L 118.586697 445.865931 
L 123.467848 449.851535 
L 128.349 449.851535 
L 133.230152 454.005946 
L 138.111303 454.005946 
L 142.992455 457.999161 
L 147.873606 457.999161 
L 152.754758 461.773555 
L 157.635909 461.773555 
L 162.517061 465.430924 
L 167.398212 465.430924 
L 172.279364 468.792483 
L 177.160515 468.792483 
L 182.041667 471.588774 
L 186.922818 471.588774 
L 191.80397 473.669342 
L 196.685121 473.669342 
L 201.566273 474.859417 
L 206.447424 474.859417 
L 211.328576 475.182269 
L 216.209727 475.182269 
L 221.090879 474.864599 
L 225.97203 474.864599 
L 230.853182 474.143962 
L 235.734333 474.143962 
L 240.615485 473.218524 
L 245.496636 473.218524 
L 250.377788 472.30113 
L 255.258939 472.30113 
L 260.140091 471.607811 
L 265.021242 471.607811 
L 269.902394 471.292281 
L 274.783545 471.292281 
L 279.664697 471.429467 
L 284.545848 471.429467 
L 289.427 472.028314 
L 294.308152 472.028314 
L 299.189303 473.027269 
L 304.070455 473.027269 
L 308.951606 474.304655 
L 313.832758 474.304655 
L 318.713909 475.717268 
L 323.595061 475.717268 
L 328.476212 477.145691 
L 333.357364 477.145691 
L 338.238515 478.512687 
L 343.119667 478.512687 
L 348.000818 479.772676 
L 352.88197 479.772676 
L 357.763121 480.923909 
L 362.644273 480.923909 
L 367.525424 482.07025 
L 372.406576 482.07025 
L 377.287727 483.454467 
L 382.168879 483.454467 
L 387.05003 485.348079 
L 391.931182 485.348079 
L 396.812333 487.728979 
L 401.693485 487.728979 
L 406.574636 490.089286 
L 411.455788 490.089286 
L 416.336939 492.486766 
L 421.218091 492.486766 
L 426.099242 496.027274 
L 430.980394 496.027274 
L 435.861545 500.901216 
L 440.742697 500.901216 
L 445.623848 506.251225 
L 450.505 506.251225 
L 455.386152 511.212134 
L 460.267303 511.212134 
L 465.148455 515.074663 
L 470.029606 515.074663 
L 474.910758 516.806394 
L 479.791909 516.806394 
L 484.673061 514.968878 
L 489.554212 514.968878 
L 494.435364 509.22704 
L 499.316515 509.22704 
L 504.197667 502.726977 
L 509.078818 502.726977 
L 513.95997 497.097373 
L 518.841121 497.097373 
L 523.722273 488.448002 
L 528.603424 488.448002 
L 533.484576 472.297974 
L 538.365727 472.297974 
L 543.246879 486.390639 
L 548.12803 486.390639 
L 553.009182 484.589203 
L 557.890333 484.589203 
L 562.771485 481.334654 
L 567.652636 481.334654 
L 572.533788 476.488849 
L 577.414939 476.488849 
L 582.296091 470.612499 
L 587.177242 470.612499 
L 592.058394 464.357606 
L 596.939545 464.357606 
L 601.820697 458.329443 
L 606.701848 458.329443 
L 611.583 453.027334 
L 616.464152 453.027334 
L 621.345303 448.819625 
L 626.226455 448.819625 
L 631.107606 445.921857 
L 635.988758 445.921857 
L 640.869909 444.380318 
L 645.751061 444.380318 
L 650.632212 444.102355 
L 655.513364 444.102355 
L 660.394515 444.946779 
L 665.275667 444.946779 
L 670.156818 446.789059 
L 675.03797 446.789059 
L 679.919121 449.531959 
L 684.800273 449.531959 
L 689.681424 453.114128 
L 694.562576 453.114128 
L 699.443727 457.558141 
L 704.324879 457.558141 
L 709.20603 463.080456 
L 714.087182 463.080456 
L 718.968333 470.111335 
L 723.849485 470.111335 
L 728.730636 477.319076 
L 733.611788 477.319076 
L 738.492939 474.899966 
L 743.374091 474.899966 
L 748.255242 469.43824 
L 753.136394 469.43824 
L 758.017545 470.431396 
L 762.898697 470.431396 
L 767.779848 472.140611 
L 772.661 472.140611 
L 777.542152 473.117668 
L 792.185606 473.145196 
L 797.066758 472.479122 
L 801.947909 472.479122 
L 806.829061 471.528601 
L 816.591364 471.528601 
L 816.591364 471.528601 
" style="fill:none;stroke:#9f2a6b;stroke-linecap:square;stroke-width:1.5;"/>
   </g>
   <g id="line2d_83">
    <path clip-path="url(#pd6d89af1d8)" d="M 84.418636 378.101584 
L 89.299788 378.101584 
L 94.180939 383.21071 
L 99.062091 383.21071 
L 103.943242 389.00113 
L 108.824394 389.00113 
L 113.705545 395.659337 
L 118.586697 395.659337 
L 123.467848 402.99974 
L 128.349 402.99974 
L 133.230152 410.739129 
L 138.111303 410.739129 
L 142.992455 418.433045 
L 147.873606 418.433045 
L 152.754758 425.580409 
L 157.635909 425.580409 
L 162.517061 431.156458 
L 167.398212 431.156458 
L 172.279364 434.356122 
L 177.160515 434.356122 
L 182.041667 434.797204 
L 186.922818 434.797204 
L 191.80397 432.71571 
L 196.685121 432.71571 
L 201.566273 428.879074 
L 206.447424 428.879074 
L 211.328576 424.224802 
L 216.209727 424.224802 
L 221.090879 419.569209 
L 225.97203 419.569209 
L 230.853182 415.493904 
L 235.734333 415.493904 
L 240.615485 412.354193 
L 245.496636 412.354193 
L 250.377788 410.340724 
L 255.258939 410.340724 
L 260.140091 409.547313 
L 265.021242 409.547313 
L 269.902394 410.019667 
L 274.783545 410.019667 
L 279.664697 411.78051 
L 284.545848 411.78051 
L 289.427 414.832501 
L 294.308152 414.832501 
L 299.189303 419.13848 
L 304.070455 419.13848 
L 308.951606 424.583438 
L 313.832758 424.583438 
L 318.713909 430.947005 
L 323.595061 430.947005 
L 328.476212 437.914979 
L 333.357364 437.914979 
L 338.238515 445.103336 
L 343.119667 445.103336 
L 348.000818 452.079711 
L 352.88197 452.079711 
L 357.763121 458.475358 
L 362.644273 458.475358 
L 367.525424 464.270748 
L 372.406576 464.270748 
L 377.287727 470.164204 
L 382.168879 470.164204 
L 387.05003 477.237307 
L 391.931182 477.237307 
L 396.812333 483.685093 
L 401.693485 483.685093 
L 406.574636 488.534277 
L 411.455788 488.534277 
L 416.336939 495.03211 
L 421.218091 495.03211 
L 426.099242 503.83576 
L 430.980394 503.83576 
L 435.861545 512.362564 
L 440.742697 512.362564 
L 445.623848 519.124359 
L 450.505 519.124359 
L 455.386152 522.781818 
L 470.029606 522.768453 
L 474.910758 520.051914 
L 479.791909 520.051914 
L 484.673061 515.049311 
L 489.554212 515.049311 
L 494.435364 505.929277 
L 499.316515 505.929277 
L 504.197667 491.947637 
L 509.078818 491.947637 
L 513.95997 476.6928 
L 518.841121 476.6928 
L 523.722273 465.633531 
L 528.603424 465.633531 
L 533.484576 456.140426 
L 538.365727 456.140426 
L 543.246879 445.491483 
L 548.12803 445.491483 
L 553.009182 435.143873 
L 557.890333 435.143873 
L 562.771485 423.970583 
L 567.652636 423.970583 
L 572.533788 413.932857 
L 577.414939 413.932857 
L 582.296091 405.391519 
L 587.177242 405.391519 
L 592.058394 398.379013 
L 596.939545 398.379013 
L 601.820697 392.738324 
L 606.701848 392.738324 
L 611.583 388.297559 
L 616.464152 388.297559 
L 621.345303 384.936437 
L 626.226455 384.936437 
L 631.107606 382.548092 
L 635.988758 382.548092 
L 640.869909 381.037624 
L 645.751061 381.037624 
L 650.632212 380.318269 
L 665.275667 380.308496 
L 670.156818 380.922183 
L 675.03797 380.922183 
L 679.919121 382.058747 
L 684.800273 382.058747 
L 689.681424 383.59392 
L 694.562576 383.59392 
L 699.443727 385.367291 
L 704.324879 385.367291 
L 709.20603 387.178787 
L 714.087182 387.178787 
L 718.968333 388.771722 
L 723.849485 388.771722 
L 728.730636 389.857719 
L 733.611788 389.857719 
L 738.492939 390.151445 
L 743.374091 390.151445 
L 748.255242 389.422626 
L 753.136394 389.422626 
L 758.017545 387.587266 
L 762.898697 387.587266 
L 767.779848 384.679831 
L 772.661 384.679831 
L 777.542152 381.016831 
L 782.423303 381.016831 
L 787.304455 376.96276 
L 792.185606 376.96276 
L 797.066758 372.869138 
L 801.947909 372.869138 
L 806.829061 369.013024 
L 816.591364 369.013024 
L 816.591364 369.013024 
" style="fill:none;stroke:#af285f;stroke-linecap:square;stroke-width:1.5;"/>
   </g>
   <g id="line2d_84">
    <path clip-path="url(#pd6d89af1d8)" d="M 84.418636 297.618182 
L 816.591364 297.618182 
L 816.591364 297.618182 
" style="fill:none;stroke:#bf2552;stroke-linecap:square;stroke-width:1.5;"/>
   </g>
   <g id="patch_9">
    <path d="M 47.81 534.04 
L 47.81 286.36 
" style="fill:none;stroke:#000000;stroke-linecap:square;stroke-linejoin:miter;stroke-width:0.8;"/>
   </g>
   <g id="patch_10">
    <path d="M 853.2 534.04 
L 853.2 286.36 
" style="fill:none;stroke:#000000;stroke-linecap:square;stroke-linejoin:miter;stroke-width:0.8;"/>
   </g>
   <g id="patch_11">
    <path d="M 47.81 534.04 
L 853.2 534.04 
" style="fill:none;stroke:#000000;stroke-linecap:square;stroke-linejoin:miter;stroke-width:0.8;"/>
   </g>
   <g id="patch_12">
    <path d="M 47.81 286.36 
L 853.2 286.36 
" style="fill:none;stroke:#000000;stroke-linecap:square;stroke-linejoin:miter;stroke-width:0.8;"/>
   </g>
  </g>
 </g>
 <defs>
  <clipPath id="pc0d6ab1bfd">
   <rect height="247.68" width="805.39" x="47.81" y="10.8"/>
  </clipPath>
  <clipPath id="pd6d89af1d8">
   <rect height="247.68" width="805.39" x="47.81" y="286.36"/>
  </clipPath>
 </defs>
</svg>
