<?xml version="1.0" encoding="UTF-8"?>
<svg xmlns="http://www.w3.org/2000/svg" xmlns:xlink="http://www.w3.org/1999/xlink" viewBox="0 0 500 500">
  <defs>
    <style>
      .cls-1 {
        stroke-width: .15px;
      }

      .cls-1, .cls-2, .cls-3, .cls-4 {
        fill: #fff;
      }

      .cls-1, .cls-3, .cls-5, .cls-6, .cls-7, .cls-8, .cls-9, .cls-10, .cls-11, .cls-12, .cls-13 {
        stroke-miterlimit: 10;
      }

      .cls-1, .cls-3, .cls-4, .cls-8, .cls-10, .cls-12 {
        stroke: #fff;
      }

      .cls-3 {
        stroke-width: .25px;
      }

      .cls-14 {
        stroke: #791124;
      }

      .cls-14, .cls-4, .cls-15 {
        stroke-linecap: round;
        stroke-linejoin: round;
        stroke-width: .97px;
      }

      .cls-14, .cls-10 {
        fill: #791125;
      }

      .cls-16, .cls-5 {
        opacity: .8;
      }

      .cls-16, .cls-5, .cls-17, .cls-7, .cls-8, .cls-18, .cls-19, .cls-11, .cls-20, .cls-13 {
        fill: #e6e7e8;
      }

      .cls-5, .cls-7, .cls-11, .cls-13 {
        stroke: #e6e7e8;
        stroke-width: .1px;
      }

      .cls-17 {
        opacity: .7;
      }

      .cls-6, .cls-9 {
        fill: #212121;
        stroke: #212121;
      }

      .cls-15 {
        fill: #790c22;
        stroke: #790c22;
      }

      .cls-7, .cls-18 {
        opacity: .6;
      }

      .cls-8 {
        stroke-width: .05px;
      }

      .cls-9 {
        stroke-width: 3px;
      }

      .cls-20, .cls-13 {
        opacity: .9;
      }

      .cls-12 {
        fill: none;
        stroke-width: .03px;
      }
    </style>
    <symbol id="Square_Star" data-name="Square Star" viewBox="0 0 3.99 3.99">
      <path class="cls-2" d="m3.99,3.99c-1.04-1.04-2.96-1.04-3.99,0C1.04,2.96,1.04,1.04,0,0c1.04,1.04,2.96,1.04,3.99,0-1.04,1.04-1.04,2.96,0,3.99Z"/>
    </symbol>
    <symbol id="Swoop" viewBox="0 0 234.99 175.86">
      <path class="cls-3" d="m234.86,130.55c-1.91,11.42-10.35,20.66-18.78,27.99-7.07,6.15-16.79,9.95-26.21,9.67C104.88,165.68.11.07.11.07.11.07,104.84,175.73,189.87,175.73c10.81,0,21.73-2.98,29.59-10.72,9.36-9.21,13.04-21.95,15.4-34.47Z"/>
    </symbol>
  </defs>
  <g id="Layer_1" data-name="Layer 1">
    <circle class="cls-9" cx="250" cy="250" r="247.5"/>
  </g>
  <g id="Stars">
    <path class="cls-2" d="m350.37,93.84c3.72-4.85,4.82-6.48,1.95-5.68,2.85-1.02.97-2.45-3.54-3.22,4.5.6,7.63.41,6.06-.99,1.54,1.39,3.3-.42,3.55-3.89-.28,3.47.66,5.58,1.92,4.44-1.3,1.18,1.75,1.81,5.79,2.56-4.04-.62-6.62.57-4.82,1.69-1.76-1.12-1.69.99.2,4.82-1.89-3.98-4.38-5.14-5.22-3.23.89-1.71-2.2-1.55-5.88,3.5Z"/>
    <path class="cls-2" d="m125.96,176.24c-.81-1.53-2-1.54-2.83,0,.85-1.44.23-2.27-1.24-1.8,1.48-.58,2.13-1.27,1.36-2.54.74,1.2,1.91,1.21,2.68.02-.79,1.26-.16,1.95,1.32,2.57-1.47-.51-2.11.33-1.28,1.76Z"/>
    <path class="cls-2" d="m98.91,88.62c-.48-1.19-1.98-1.56-2.85-.2.9-1.33,1.47-2.58.99-3.6.44.93,1.86,1.26,2.8.77-.95.62-1.43,1.91-.94,3.04Z"/>
    <use width="3.99" height="3.99" transform="translate(30.1 212.04) scale(.73 .94)" xlink:href="#Square_Star"/>
    <path class="cls-2" d="m198.78,74.9c-4.59-2.94-6.19-3.12-2.45-1.51-3.67-1.82-5.18-2.09-2.53-1.29-2.62-.93-4.13-.8-2.65-.19-1.46-.62-1.22.34.46,1.87-1.67-1.57-3.01-1.82-2.43-.75-.58-1.09-1.05.01-.86,1.96-.19-1.95-.09-.8.2,2.11-.29-2.9-.33-1.73-.08,2.13-.26-3.86-.46-4.98-.38-2.04-.08-2.94-.32-4.06-.44-2.04.12-2.02-.53-3.04-1.2-1.82.67-1.2-.52-.99-2.15.64,1.63-1.6,1.5-2.56-.23-1.79,1.74-.74.3-.71-2.5.56,2.84-1.13,1.43-.91-2.33,1.23,3.84-1.92,2.37-1.66-2.21,1.73,4.59-3.38,5.86-3.79,1.89-1.95,3.9-2.05,5.02-2.61,1.83-1.81,3.16-.93,4.11-1.6,1.65-1.68,2.46.04,2.14-.54-.55-1.09,2.69.52,3.58-.15,1.57-1.45,2,1.27,1.47.36-.92-1.77,2.4,2.08,1.84,1.22-.97-1.81,2.82,2.95,1.98,2.31-1.5-1.59,3.48,3.91,4.36,4.5,1.58,1.52,2.78,3.06,3.72,3.69,1.66,1.37,2.05,2.35,3.28,2.72,2.17.71,1.1,2.02,1.89,1.51,1.41-.92.47,2.44,1.35,2.81,1.58.68-.23,2.13.9,1.65,2-.89-1.11,2.52-.12,1.91,1.74-1.22-1.87,3.09-1.24,2.27,1.11-1.72-2.35,3.99-3.13,4.81-1.37,1.73-1.75,3.12-2.3,4.09-.95,1.87-1.34,2.24-1.32,3.29.06,1.97-1.38,1.33-.27,1.84,1.97,1.08-2.24.78-2.73,1.41-.85,1.15-1.88.3-.71.99,2.06,1.67-2.8-.56-1.37-.17,2.38,1.48-3.83-1.44-2.36-1.07,2.24,1.87Z"/>
    <path class="cls-2" d="m175.14,397.34c-.15-1.14-1.32-1.56-2.33-.85,1.04-.81.83-1.71-.31-2.7,1.12.99,2.17.19,1.99-.96.17,1.18,1.38,1.64,2.37.24-1.02,1.32-.88,2.24.29,2.49-1.16-.11-2.18.62-2.01,1.78Z"/>
    <g>
      <path class="cls-2" d="m219.54,463.7c0,.62-.47,1.08-1.06,1.06-.58.03-1.06-.43-1.06-1.06,0-.63.42-.69,1.06-.68.64-.02,1.06.04,1.06.68Z"/>
      <path class="cls-12" d="m219.54,463.7c0,.62-.47,1.08-1.06,1.06-.58.03-1.06-.43-1.06-1.06,0-.63.42-.69,1.06-.68.64-.02,1.06.04,1.06.68Z"/>
    </g>
    <path class="cls-2" d="m429.39,359.17c4.49,4.68,5.63,4.81,9.97-1.86-3.73,7.28-3.84,6.38.22,9.97-4.67-2.13-5.46-2.36-9.94,2.03,3.85-5.39,3.67-4.38-.25-10.14Z"/>
    <path class="cls-2" d="m51.77,315.67c.54-.96,0-1.4-1.19-1.43,1.18-.04,1.6-.64.88-1.53.7.94,1.64.75,2.2-.38-.58,1.04-.02,1.6,1.14.82-1.16.83-1.61,1.33-.91,2.05-.68-.64-1.6-.46-2.11.47Z"/>
    <path class="cls-2" d="m115.22,370.09c-.63-1.57-2.28-1.57-2.9,0,.69-1.48.76-2.74,0-3.74.73.84,2.17.84,2.9,0-.76,1-.69,2.26,0,3.74Z"/>
    <path class="cls-2" d="m122.46,434.18c-.48-1.19-1.98-1.56-2.85-.2.9-1.33,1.47-2.58.99-3.6.45.93,1.86,1.26,2.8.77-.95.62-1.44,1.91-.94,3.04Z"/>
    <path class="cls-2" d="m199.21,142.66c-.15-1.14-1.32-1.56-2.33-.85,1.04-.81.83-1.71-.31-2.7,1.12.99,2.17.19,1.99-.96.17,1.18,1.38,1.64,2.37.24-1.02,1.32-.88,2.24.29,2.49-1.16-.11-2.18.62-2.01,1.78Z"/>
    <path class="cls-2" d="m292.05,39.66c-.15-1.14-1.32-1.56-2.33-.85,1.04-.81.83-1.71-.31-2.7,1.12.99,2.17.19,1.99-.96.17,1.18,1.38,1.64,2.37.24-1.02,1.32-.88,2.24.29,2.49-1.16-.11-2.18.62-2.01,1.78Z"/>
    <path class="cls-2" d="m376.9,136.66c-.63-1.57-2.28-1.57-2.9,0,.69-1.48.76-2.74,0-3.74.73.84,2.17.84,2.9,0-.76,1-.69,2.26,0,3.74Z"/>
    <path class="cls-2" d="m352.85,402.4c-.48-1.19-1.98-1.56-2.85-.2.9-1.33,1.47-2.58.99-3.6.44.93,1.86,1.26,2.8.77-.95.62-1.43,1.91-.94,3.04Z"/>
  </g>
  <g id="Lines">
    <use width="234.99" height="175.86" transform="translate(134.78 292.14)" xlink:href="#Swoop"/>
    <path class="cls-1" d="m333.06,484.77c-84.23,5.92-206.83-185.81-206.83-185.81,0,0,105.73,168.52,189,191.43l4.48-1.3,4.58-1.4,3.24-1.03,2.48-.82,3.04-1.07Z"/>
    <path class="cls-15" d="m194.42,242.56c-.02.91-.03,1.82-.03,2.73,0,58.18,39.07,102.9,92.65,102.9s97.02-47.16,97.02-105.34c0-.1,0-.2,0-.3h-189.64Z"/>
    <path class="cls-4" d="m236.15,242.56c-.12,2.64-.18,5.27-.18,7.89,0,56.32,28.75,101.25,74.18,94.39,35.14-5.3,83.18-45.66,83.18-101.98,0-.1,0-.2,0-.3h-157.18Z"/>
    <path class="cls-9" d="m229.68,242.56c-.02.62-.04,1.25-.04,1.87,0,37.62,27.94,66.54,66.25,66.54s100.13-30.5,100.13-68.12c0-.1,0-.2,0-.3h-166.33Z"/>
    <path class="cls-14" d="m194.42,242.56c-.02-.91-.02-1.82-.02-2.73.17-58.18,39.37-102.79,92.95-102.63,53.58.16,96.88,47.45,96.71,105.63,0,.1,0,.2,0,.3l-189.64-.56Z"/>
    <path class="cls-4" d="m236.14,242.68c-.11-2.64-.17-5.27-.16-7.89.17-56.32,29.05-101.16,74.46-94.17,35.12,5.41,83.05,45.9,82.88,102.23,0,.1,0,.2,0,.3l-157.18-.46Z"/>
    <path class="cls-9" d="m229.68,242.68c-.01-.62-.04-1.25-.04-1.87.11-37.62,28.14-66.46,66.45-66.35s100.04,30.79,99.92,68.41c0,.1,0,.2,0,.3l-166.33-.48Z"/>
    <polygon class="cls-6" points="129.42 242.11 382.78 242.11 382.78 205.65 256.03 205.65 129.27 205.65 129.27 242.41 129.27 279.16 256.03 279.16 382.78 279.16 382.78 242.41 382.78 242.11 129.42 242.11"/>
    <path class="cls-19" d="m156.54,82.3s-.04-.07-.07-.11c-1.72.64-2.81,1-4.52,1.7.01.08.02.17.04.25,0,.03.02.06.03.09,1.63-.69,2.77-1.11,4.6-1.82-.03-.04-.06-.07-.08-.1Z"/>
    <path class="cls-20" d="m161.43,80.4c-.13.05-.13.04-.26.08-.27.09-.35.13-.62.23-.14.05-.29.1-.43.15-.36.13-.73.26-1.1.39-.33.12-.41.16-.75.28-.35.13-.46.19-.81.32,0,.01.01.02.02.04.05.07.09.13.13.17.26-.1.27-.12.52-.22.24-.09.23-.1.47-.2.33-.13.67-.25,1-.37.16-.06.32-.12.48-.18.19-.07.38-.14.57-.21.24-.09.3-.12.54-.21.15-.05.16-.05.31-.11-.02-.05-.04-.11-.06-.17Z"/>
    <path class="cls-16" d="m166.16,78.81c-.47.15-.79.26-1.28.42-.24.08-.48.16-.72.24-.46.15-.93.31-1.41.47-.18.06-.16.04-.34.1.02.05.04.11.06.16.04-.02.09-.03.13-.05.36-.13.53-.18.88-.31.41-.15.82-.29,1.22-.43.4-.14.79-.28,1.17-.41.16-.06.16-.06.32-.11-.01-.03-.03-.06-.04-.09Z"/>
    <path class="cls-17" d="m170.9,77.32s-.09.03-.14.04c-.29.09-.47.13-.79.23-.32.1-.65.2-.99.31-.26.08-.53.17-.81.26-.44.14-.67.23-1.14.38,0,.03.02.06.03.09.17-.06.1-.06.27-.12.31-.11.84-.28,1.45-.48.57-.18,1.21-.38,1.82-.58.16-.05.17-.04.33-.09,0-.02-.02-.03-.03-.05Z"/>
    <path class="cls-8" d="m136.78,92.44c5.54-3.51,4.97-3.22,9.22-5.44,1.27-.66,2.97-1.44,4.91-2.28,0-.03-.02-.06-.03-.09-.02-.09-.03-.17-.04-.26-3.91,1.6-7.67,3.32-10.73,5.07-14.75,8.41-32.73,23.9-38.89,45.11-1.58,5.44-8.01,27.62,4.89,47.89,8.01,12.58,25.67,22.09,31.89,23.21-3.05-1.46-10.26-4.33-17.67-9.87-4.97-3.72-10.29-9.18-13.51-14.24-12.9-20.28-5.96-42.26-4.38-47.7,5.09-17.55,21.52-33.27,34.33-41.39Z"/>
    <path class="cls-18" d="m174.8,76.04s-.09.03-.14.04c-.29.09.26-.08-.05.02-.32.1-.65.2-.99.31-.26.08-.53.17-.81.26-.44.14-.71.23-1.19.38,0,.03.02.06.03.09.17-.06.15-.05.31-.11.31-.11.84-.28,1.45-.48.57-.18.34-.12.96-.31.16-.05.31-.09.46-.14,0-.02-.02-.03-.03-.05Z"/>
    <path class="cls-7" d="m155.03,50.56c-1.21.43-2.36.87-3.42,1.33,1.07-.46,2.22-.9,3.42-1.32,0,0,0,0,0,0Z"/>
    <path class="cls-5" d="m159.67,49.08c-1.44.42-2.84.86-4.16,1.32,0,0,0,0,0,0,1.33-.46,2.72-.89,4.17-1.31,0,0,0-.01,0-.02Z"/>
    <path class="cls-13" d="m166.1,47.4c-2.03.47-4.03.98-5.94,1.53,0,0,0,.01.01.02,1.92-.54,3.92-1.04,5.96-1.5-.01-.01-.02-.03-.03-.04Z"/>
    <path class="cls-11" d="m221.56,54c-1.76-8.42-19.92-10.28-23.39-10.69-4.2-.5-18.57,1-31.55,3.98.01.01.02.03.03.05,12.93-2.9,27.21-4.26,31.41-3.76,3.47.42,21.18,2.01,22.94,10.43.84,4.02-1.96,7.24-2.17,7.48-1.59,1.76-2.26,2.37-7.19,3.86-1.11.33-2.43.72-4.01,1.18-2.52.73-9.97,2.64-12.63,3.27,2.65-.63,6.48-1.54,11.11-2.67,5.43-1.32,8.2-2.17,10-3.06,1.09-.54,1.84-1.02,2.56-1.86.2-.24,3.73-4.17,2.89-8.19Z"/>
  </g>
  <g id="ASSET">
    <g>
      <path class="cls-10" d="m43.28,288.42h-18.2l33.18-84c3.5-8.82,9.94-12.18,19.88-12.18s16.24,3.36,19.6,12.18l31.92,84h-18.34l-28.7-76.02c-.84-2.24-2.38-3.22-4.62-3.22s-3.78.98-4.76,3.22l-29.96,76.02Z"/>
      <path class="cls-10" d="m208.76,193.93v16.52h-48.44c-8.54,0-12.32,4.62-12.32,11.2,0,5.74,2.94,11.2,14,11.2h22.12c25.76,0,31.78,14.28,31.78,27.86,0,15.96-8.54,27.72-30.1,27.72h-52.64v-16.52h53.2c8.96,0,13.02-4.9,13.02-11.76,0-6.16-3.22-11.76-14.84-11.76h-21.98c-25.2,0-31.08-14.14-31.08-27.3,0-15.68,8.4-27.16,29.4-27.16h47.88Z"/>
      <path class="cls-10" d="m299.33,193.93v16.52h-48.44c-8.54,0-12.32,4.62-12.32,11.2,0,5.74,2.94,11.2,14,11.2h22.12c25.76,0,31.78,14.28,31.78,27.86,0,15.96-8.54,27.72-30.1,27.72h-52.64v-16.52h53.2c8.96,0,13.02-4.9,13.02-11.76,0-6.16-3.22-11.76-14.84-11.76h-21.98c-25.2,0-31.08-14.14-31.08-27.3,0-15.68,8.4-27.16,29.4-27.16h47.88Z"/>
      <path class="cls-10" d="m392.43,193.93v16.52h-47.32c-9.94,0-14.28,4.62-14.28,11.9,0,7.7,4.9,11.2,14.42,11.2h46.48v14.98h-46.9c-9.52,0-14.42,3.78-14.42,11.48s4.62,11.9,14.28,11.9h47.88v16.52h-47.88c-22.4,0-31.5-11.06-31.5-25.76,0-10.78,4.9-18.06,13.58-21.7-8.82-3.64-13.3-10.92-13.3-21.28,0-15.12,9.38-25.76,31.64-25.76h47.32Z"/>
      <path class="cls-10" d="m470.55,193.93v16.52h-27.58v77.98h-16.66v-77.98h-27.58v-16.52h71.82Z"/>
    </g>
  </g>
</svg>